<svg width="30" height="30" viewBox="0 0 30 30" fill="none" xmlns="http://www.w3.org/2000/svg">
<path d="M23.5216 17.3753C23.8076 18.034 23.974 18.84 24.0107 19.772C24.976 19.9927 25.6983 20.854 25.6983 21.8827C25.6983 23.0773 24.724 24.0493 23.5266 24.0493C22.3292 24.0493 21.355 23.0773 21.355 21.8827C21.355 20.8657 22.0616 20.0133 23.0098 19.7803C22.968 18.8547 22.7462 17.4463 21.8381 16.751C21.3747 16.6313 20.8983 16.5447 20.4095 16.5C20.3734 18.1217 15.0012 22.1237 15.0012 22.1237C15.0012 22.1237 9.62723 18.1223 9.59081 16.5007C9.04791 16.55 8.5197 16.649 8.00953 16.7917C7.34702 17.315 7.00424 18.29 6.98653 19.7073C7.18131 19.819 7.33867 19.9933 7.43522 20.2043C8.14885 20.5407 8.77929 21.248 9.26206 22.255C9.34291 22.4243 9.3536 22.6157 9.29414 22.7903C9.58346 23.5333 9.74884 24.3453 9.74884 25.0273C9.74884 25.983 9.74884 26.8867 8.70479 27.1187C8.59186 27.2123 8.45021 27.264 8.30153 27.264H7.60394C7.25414 27.264 6.96949 26.9793 6.96949 26.6313L6.97016 26.6067C6.98352 26.27 7.26584 25.9983 7.60394 25.9983H8.30153C8.37303 25.9983 8.44286 26.0103 8.51034 26.0337C8.55244 26.022 8.5658 26.0123 8.56614 26.012C8.64365 25.8747 8.64365 25.3027 8.64365 25.028C8.64365 24.474 8.50466 23.805 8.26111 23.1833C8.13482 23.1117 8.03259 23.0033 7.96978 22.8723C7.54681 21.9887 6.9715 21.418 6.50443 21.418C6.02667 21.418 5.42263 22.0353 5.00133 22.9527C4.93251 23.1023 4.8119 23.224 4.66356 23.297C4.44339 23.8917 4.32245 24.504 4.32245 25.0277C4.32245 25.2583 4.32245 25.8703 4.41065 26.0143C4.41165 26.0143 4.43136 26.0263 4.48682 26.04C4.55899 26.0123 4.6365 25.998 4.71401 25.998H5.41294C5.73868 25.998 6.01097 26.2453 6.04371 26.567L6.04705 26.606C6.04705 26.9797 5.7624 27.2643 5.41294 27.2643H4.71401C4.57536 27.2643 4.44138 27.218 4.33113 27.134C3.93189 27.059 3.65058 26.8833 3.4725 26.5973C3.25668 26.2517 3.21726 25.7977 3.21726 25.0277C3.21726 24.3523 3.37361 23.5743 3.65759 22.8313C3.61583 22.6723 3.62986 22.5063 3.69936 22.3567C3.99503 21.7113 4.37122 21.1587 4.78684 20.759C5.01536 20.5393 5.26092 20.3627 5.51784 20.2337C5.61406 20.009 5.78111 19.8247 5.98524 19.7083C5.99593 18.82 6.13292 18.053 6.38616 17.4207C3.48687 18.888 1.5 21.889 1.5 25.3547C1.5 29.7833 4.74307 30 8.98844 30C9.45183 30 9.92624 29.9973 10.411 29.9973H19.5876C20.0718 29.9973 20.5462 30 21.0096 30C25.2556 30 28.5 29.7833 28.5 25.3547C28.4997 21.8523 26.4704 18.825 23.5216 17.3753Z" fill="#FFFEFE"/>
<path d="M15.0022 17.664C19.1063 17.664 22.4329 11.507 22.4329 7.41267C22.4329 3.319 19.1063 0 15.0022 0C10.8989 0 7.57227 3.319 7.57227 7.41267C7.57227 11.507 10.8989 17.664 15.0022 17.664Z" fill="#FFFEFE"/>
<path d="M23.5262 22.8826C24.0798 22.8826 24.5285 22.4349 24.5285 21.8826C24.5285 21.3303 24.0798 20.8826 23.5262 20.8826C22.9727 20.8826 22.5239 21.3303 22.5239 21.8826C22.5239 22.4349 22.9727 22.8826 23.5262 22.8826Z" fill="#FFFEFE"/>
</svg>
