<svg width="50" height="50" viewBox="0 0 50 50" fill="none" xmlns="http://www.w3.org/2000/svg">
<g clip-path="url(#clip0_2102_4997)">
<path fill-rule="evenodd" clip-rule="evenodd" d="M17.7355 25.7258C16.4798 25.726 15.2523 25.3539 14.2081 24.6564C13.1639 23.9589 12.35 22.9674 11.8693 21.8074C11.3886 20.6473 11.2628 19.3708 11.5076 18.1391C11.7525 16.9075 12.357 15.7762 13.2449 14.8882C14.1327 14.0002 15.264 13.3955 16.4956 13.1504C17.7271 12.9054 19.0037 13.0311 20.1638 13.5116C21.324 13.9921 22.3156 14.8058 23.0132 15.8499C23.7109 16.894 24.0832 18.1215 24.0832 19.3772C24.0812 21.0602 23.4118 22.6736 22.2218 23.8638C21.0319 25.0539 19.4185 25.7235 17.7355 25.7258ZM21.7934 48.7648H13.6825C12.5356 48.7639 11.4333 48.3203 10.6054 47.5265C9.7776 46.7327 9.28816 45.6499 9.23916 44.5041H26.2319C26.184 45.6495 25.6955 46.7321 24.8685 47.526C24.0415 48.3199 22.9398 48.7637 21.7934 48.7648ZM28.6488 41.0002C28.6479 41.611 28.4049 42.1965 27.973 42.6284C27.5412 43.0602 26.9557 43.3032 26.3449 43.3041H9.12637C8.82261 43.3061 8.52146 43.248 8.24026 43.1331C7.95905 43.0183 7.70334 42.8489 7.48785 42.6348C7.27236 42.4207 7.10134 42.1661 6.98464 41.8857C6.86793 41.6052 6.80785 41.3044 6.80785 41.0007C6.80785 40.6969 6.86793 40.3962 6.98464 40.1157C7.10134 39.8353 7.27236 39.5807 7.48785 39.3666C7.70334 39.1525 7.95905 38.9831 8.24026 38.8682C8.52146 38.7534 8.82261 38.6952 9.12637 38.6972H26.3447C26.9554 38.6979 27.5409 38.9407 27.9728 39.3724C28.4047 39.8042 28.6477 40.3896 28.6486 41.0002H28.6488ZM9.23477 37.4973H17.1387V26.8999C15.2465 26.7498 13.4804 25.8921 12.1924 24.4979C10.9044 23.1037 10.1891 21.2753 10.1891 19.3772C10.1891 17.4791 10.9044 15.6507 12.1924 14.2565C13.4804 12.8623 15.2465 12.0046 17.1387 11.8545V1.23511C7.63594 1.552 9.85688e-08 9.38159 9.85688e-08 18.9603C-0.00030534 21.8576 0.709248 24.7109 2.06661 27.2705C3.42397 29.8302 5.38779 32.0184 7.78633 33.6436C8.23843 33.9412 8.60817 34.348 8.86132 34.8263C9.11447 35.3047 9.24285 35.8392 9.23457 36.3804V37.4973H9.23477ZM31.5216 21.4991V17.2543L29.0201 16.9472C28.9009 16.9331 28.7887 16.8833 28.6981 16.8045C28.6075 16.7257 28.5428 16.6214 28.5123 16.5053C28.2576 15.5539 27.8781 14.6403 27.3839 13.7883C27.3242 13.6847 27.2968 13.5656 27.3051 13.4462C27.3135 13.3269 27.3573 13.2128 27.4309 13.1185L28.9825 11.1316L25.9827 8.12974L23.9941 9.68159C23.9003 9.7554 23.7865 9.79926 23.6674 9.80746C23.5483 9.81566 23.4295 9.78783 23.3265 9.72759C22.4744 9.23358 21.5605 8.85501 20.6087 8.60181C20.4929 8.5709 20.389 8.50611 20.3103 8.41576C20.2315 8.32541 20.1816 8.2136 20.1668 8.09468L19.8564 5.59272H18.3374V11.8545C20.2296 12.0046 21.9957 12.8623 23.2836 14.2565C24.5716 15.6507 25.2869 17.4791 25.2869 19.3772C25.2869 21.2753 24.5716 23.1037 23.2836 24.4979C21.9957 25.8921 20.2296 26.7498 18.3374 26.8999V33.1605H19.8562L20.1665 30.6586C20.1813 30.5398 20.2312 30.4281 20.31 30.338C20.3887 30.2478 20.4927 30.1832 20.6084 30.1526C21.5602 29.8993 22.4741 29.5207 23.3262 29.0267C23.4292 28.9663 23.548 28.9384 23.6671 28.9466C23.7862 28.9548 23.9001 28.9987 23.9938 29.0727L25.9827 30.625L28.9825 27.6231L27.4309 25.6361C27.3573 25.5416 27.3135 25.4273 27.3051 25.3078C27.2968 25.1883 27.3242 25.069 27.3839 24.9652C27.8785 24.1135 28.2579 23.2 28.5123 22.2485C28.5428 22.1324 28.6076 22.0283 28.6982 21.9496C28.7888 21.871 28.9009 21.8214 29.0201 21.8075L31.5216 21.4994V21.4991ZM39.8956 12.4255H32.4008C32.3214 12.4245 32.2425 12.4393 32.1688 12.469C32.0952 12.4987 32.0281 12.5427 31.9716 12.5985C31.915 12.6543 31.8702 12.7208 31.8395 12.7941C31.8089 12.8674 31.7931 12.9461 31.7931 13.0255C31.7931 13.1049 31.8089 13.1836 31.8395 13.2569C31.8702 13.3302 31.915 13.3966 31.9716 13.4524C32.0281 13.5083 32.0952 13.5523 32.1688 13.582C32.2425 13.6117 32.3214 13.6265 32.4008 13.6254H39.9661C40.4881 13.6254 40.8688 13.2994 41.0989 12.6575L42.6791 8.25776C42.8192 8.27834 42.9607 8.28865 43.1023 8.28862C43.8261 8.28961 44.5257 8.02844 45.0718 7.55344C45.6178 7.07844 45.9734 6.42174 46.0727 5.70483C46.1719 4.98793 46.0082 4.25932 45.6118 3.65381C45.2153 3.0483 44.613 2.60685 43.9162 2.41113C43.2194 2.21542 42.4753 2.27867 41.8216 2.58921C41.1679 2.89974 40.6487 3.43653 40.3602 4.10027C40.0716 4.76402 40.0332 5.5098 40.2521 6.19966C40.471 6.88952 40.9323 7.47678 41.5507 7.85278L39.9707 12.2526C39.9506 12.3123 39.9254 12.3701 39.8954 12.4255H39.8956ZM43.1023 30.4656C42.9607 30.4658 42.8193 30.4758 42.6791 30.4958L41.0993 26.0968C40.8688 25.4539 40.4881 25.129 39.9665 25.129H32.4008C32.3214 25.1279 32.2425 25.1427 32.1688 25.1724C32.0952 25.2021 32.0281 25.2461 31.9716 25.3019C31.915 25.3578 31.8702 25.4242 31.8395 25.4975C31.8089 25.5708 31.7931 25.6495 31.7931 25.7289C31.7931 25.8083 31.8089 25.887 31.8395 25.9603C31.8702 26.0336 31.915 26.1001 31.9716 26.1559C32.0281 26.2117 32.0952 26.2557 32.1688 26.2854C32.2425 26.3151 32.3214 26.3299 32.4008 26.3289H39.8956C39.926 26.384 39.9512 26.4419 39.9709 26.5018L41.5507 30.9016C40.934 31.2772 40.4741 31.8634 40.2561 32.5518C40.0381 33.2402 40.0768 33.9842 40.3649 34.6463C40.6531 35.3084 41.1712 35.8438 41.8236 36.1534C42.4759 36.4631 43.2183 36.5261 43.9134 36.3307C44.6086 36.1354 45.2095 35.6949 45.605 35.0908C46.0006 34.4867 46.164 33.7598 46.0651 33.0445C45.9662 32.3292 45.6116 31.674 45.067 31.1999C44.5223 30.7258 43.8244 30.4649 43.1023 30.4656ZM32.7205 19.2773V19.4769C32.7207 19.6095 32.7735 19.7366 32.8673 19.8304C32.9611 19.9242 33.0882 19.977 33.2208 19.9772H44.0802C44.2289 20.7031 44.6417 21.348 45.2388 21.7869C45.8358 22.2258 46.5745 22.4274 47.3118 22.3527C48.049 22.278 48.7322 21.9322 49.2291 21.3825C49.7259 20.8327 50.001 20.1181 50.001 19.3771C50.001 18.6361 49.7259 17.9215 49.2291 17.3717C48.7322 16.822 48.049 16.4762 47.3118 16.4015C46.5745 16.3268 45.8358 16.5284 45.2388 16.9673C44.6417 17.4062 44.2289 18.0511 44.0802 18.777H33.2208C33.0882 18.7772 32.9611 18.83 32.8673 18.9238C32.7735 19.0176 32.7207 19.1447 32.7205 19.2773Z" fill="url(#paint0_linear_2102_4997)"/>
</g>
<defs>
<linearGradient id="paint0_linear_2102_4997" x1="50.001" y1="25" x2="0" y2="25" gradientUnits="userSpaceOnUse">
<stop stop-color="#4EC057"/>
<stop offset="1" stop-color="#019297"/>
</linearGradient>
<clipPath id="clip0_2102_4997">
<rect width="50" height="50" fill="white"/>
</clipPath>
</defs>
</svg>
