<svg width="50" height="50" viewBox="0 0 50 50" fill="none" xmlns="http://www.w3.org/2000/svg">
<g clip-path="url(#clip0_2102_4963)">
<path d="M42.5781 29.2969H32.6733C31.9874 32.911 28.8138 35.6445 25 35.6445C21.1862 35.6445 18.0126 32.911 17.3267 29.2969H7.42188C5.96426 29.2969 4.57705 28.9905 3.32031 28.4398V31.7383C3.32031 32.5473 3.97617 33.2031 4.78516 33.2031H7.74678C8.15791 34.5272 8.71924 35.7943 9.42461 36.9904L7.25342 39.1617C6.68135 39.7338 6.68135 40.6612 7.25342 41.2333L12.0871 46.067C12.6591 46.6391 13.5866 46.6391 14.1587 46.067L16.4669 43.7589C17.6286 44.3831 18.8499 44.8753 20.1173 45.2299V48.5352C20.1173 49.3441 20.7731 50 21.5821 50H28.4181C29.2271 50 29.8829 49.3441 29.8829 48.5352V45.2299C31.1503 44.8752 32.3716 44.383 33.5333 43.7589L35.8415 46.067C36.4135 46.6391 37.341 46.6391 37.9131 46.067L42.7468 41.2333C43.3188 40.6613 43.3188 39.7338 42.7468 39.1617L40.5756 36.9904C41.281 35.7943 41.8423 34.5272 42.2534 33.2031H45.2148C46.0238 33.2031 46.6797 32.5473 46.6797 31.7383V28.4398C45.423 28.9905 44.0357 29.2969 42.5781 29.2969Z" fill="url(#paint0_linear_2102_4963)"/>
<path d="M43.205 11.7453C41.9961 9.43281 39.6235 7.91201 36.9811 7.81719C36.0925 3.88145 32.5792 0.976562 28.418 0.976562C26.2491 0.976562 24.2177 1.7541 22.6313 3.15469C20.7142 1.1543 18.057 0 15.2344 0C9.58037 0 4.98047 4.5999 4.98047 10.2539C4.98047 10.8666 5.03691 11.4781 5.14893 12.0838C3.97793 12.465 2.91465 13.1393 2.0585 14.0586C0.794043 15.4164 0.0976562 17.1865 0.0976562 19.043C0.0976562 23.0815 3.3833 26.3672 7.42188 26.3672H23.5352V17.6966L22.1296 19.1021C21.5575 19.6742 20.6301 19.6742 20.058 19.1021C19.4859 18.5301 19.4859 17.6026 20.058 17.0306L23.9643 13.1243C24.5363 12.5522 25.4638 12.5522 26.0358 13.1243L29.9421 17.0306C30.5142 17.6026 30.5142 18.5301 29.9421 19.1021C29.37 19.6742 28.4426 19.6742 27.8705 19.1021L26.4648 17.6966V26.3672H42.5781C46.6167 26.3672 49.9023 23.0815 49.9023 19.043C49.9023 15.2156 46.9511 12.0646 43.205 11.7453Z" fill="url(#paint1_linear_2102_4963)"/>
</g>
<defs>
<linearGradient id="paint0_linear_2102_4963" x1="49.9023" y1="25" x2="0.0976562" y2="25" gradientUnits="userSpaceOnUse">
<stop stop-color="#4EC057"/>
<stop offset="1" stop-color="#019297"/>
</linearGradient>
<linearGradient id="paint1_linear_2102_4963" x1="49.9023" y1="25" x2="0.0976562" y2="25" gradientUnits="userSpaceOnUse">
<stop stop-color="#4EC057"/>
<stop offset="1" stop-color="#019297"/>
</linearGradient>
<clipPath id="clip0_2102_4963">
<rect width="50" height="50" fill="white"/>
</clipPath>
</defs>
</svg>
