<svg width="50" height="50" viewBox="0 0 50 50" fill="none" xmlns="http://www.w3.org/2000/svg">
<g clip-path="url(#clip0_2102_4946)">
<path fill-rule="evenodd" clip-rule="evenodd" d="M22.8886 20.873C22.8885 21.6585 23.1213 22.4263 23.5576 23.0794C23.9939 23.7326 24.614 24.2417 25.3397 24.5423C26.0653 24.843 26.8638 24.9217 27.6341 24.7686C28.4045 24.6154 29.1122 24.2372 29.6676 23.6819C30.223 23.1265 30.6013 22.419 30.7546 21.6486C30.9079 20.8783 30.8293 20.0798 30.5287 19.3541C30.2282 18.6284 29.7192 18.0082 29.0661 17.5718C28.413 17.1354 27.6452 16.9025 26.8598 16.9025C25.8067 16.9025 24.7967 17.3208 24.052 18.0654C23.3072 18.81 22.8888 19.8199 22.8886 20.873ZM28.0825 30.4808L27.9119 29.2083C28.0254 29.1289 28.1096 29.0143 28.1515 28.8823L28.4509 27.9606C28.4822 27.8656 28.4904 27.7646 28.4749 27.6658C28.4594 27.567 28.4207 27.4734 28.3619 27.3925C28.3031 27.3116 28.226 27.2458 28.1368 27.2006C28.0477 27.1554 27.949 27.1319 27.8491 27.1323H25.8699C25.7699 27.1319 25.6713 27.1553 25.5821 27.2006C25.493 27.2458 25.4158 27.3116 25.3571 27.3925C25.2983 27.4734 25.2596 27.5671 25.2441 27.6658C25.2287 27.7646 25.2369 27.8656 25.2681 27.9606L25.5676 28.8823C25.6094 29.0143 25.6936 29.1289 25.8072 29.2082L25.6366 30.4806L26.8592 32.3424L28.0819 30.4805L28.0825 30.4808ZM18.2782 35.2994C19.3983 36.4385 20.7339 37.3433 22.2073 37.9609C23.6807 38.5785 25.2623 38.8966 26.8598 38.8966C28.4574 38.8966 30.039 38.5785 31.5124 37.9609C32.9857 37.3433 34.3214 36.4385 35.4415 35.2994C35.3744 33.9333 34.9819 32.603 34.2966 31.4192C33.6114 30.2355 32.6533 29.2326 31.5021 28.4941C31.4328 28.4495 31.3487 28.4341 31.2681 28.4512C31.1875 28.4683 31.117 28.5165 31.0718 28.5854L26.8598 35L22.6479 28.5855C22.6027 28.5167 22.5321 28.4684 22.4515 28.4514C22.3709 28.4343 22.2869 28.4497 22.2176 28.4943C21.0664 29.2328 20.1083 30.2356 19.4231 31.4193C18.7379 32.603 18.3453 33.9333 18.2782 35.2994ZM18.6146 0H1.15802C0.851081 0.000605624 0.556885 0.122806 0.339845 0.339845C0.122806 0.556885 0.000605624 0.851081 0 1.15802V12.2116C0.000605624 12.5185 0.122806 12.8127 0.339845 13.0297C0.556885 13.2468 0.851081 13.369 1.15802 13.3696H8.01917C8.01917 13.3696 8.105 17.5192 12.9887 18.505C13.0477 18.517 13.1089 18.5118 13.165 18.4899C13.221 18.468 13.2696 18.4304 13.3048 18.3816C13.34 18.3328 13.3603 18.2749 13.3634 18.2148C13.3665 18.1547 13.3521 18.095 13.3221 18.0428C12.8553 17.2322 12.2053 15.6053 12.7122 13.3691H18.6146C18.9215 13.3685 19.2157 13.2463 19.4327 13.0292C19.6497 12.8122 19.7719 12.518 19.7725 12.211V1.15802C19.7719 0.85109 19.6497 0.556895 19.4327 0.339852C19.2157 0.122809 18.9215 0.000605712 18.6146 0ZM16.0532 10.8117H3.71969C3.5263 10.8117 3.34083 10.7348 3.20409 10.5981C3.06734 10.4614 2.99052 10.2759 2.99052 10.0825C2.99052 9.88911 3.06734 9.70365 3.20409 9.5669C3.34083 9.43016 3.5263 9.35333 3.71969 9.35333H16.053C16.2464 9.35333 16.4319 9.43016 16.5686 9.5669C16.7054 9.70365 16.7822 9.88911 16.7822 10.0825C16.7822 10.2759 16.7054 10.4614 16.5686 10.5981C16.4319 10.7348 16.2464 10.8117 16.053 10.8117H16.0532ZM16.0532 7.41396H3.71969C3.5263 7.41396 3.34083 7.33714 3.20409 7.20039C3.06734 7.06364 2.99052 6.87818 2.99052 6.68479C2.99052 6.49141 3.06734 6.30594 3.20409 6.16919C3.34083 6.03245 3.5263 5.95563 3.71969 5.95563H16.053C16.2464 5.95563 16.4319 6.03245 16.5686 6.16919C16.7054 6.30594 16.7822 6.49141 16.7822 6.68479C16.7822 6.87818 16.7054 7.06364 16.5686 7.20039C16.4319 7.33714 16.2464 7.41396 16.053 7.41396H16.0532ZM16.0532 4.01625H3.71969C3.5263 4.01625 3.34083 3.93943 3.20409 3.80268C3.06734 3.66594 2.99052 3.48047 2.99052 3.28708C2.99052 3.0937 3.06734 2.90823 3.20409 2.77148C3.34083 2.63474 3.5263 2.55792 3.71969 2.55792H16.053C16.2464 2.55792 16.4319 2.63474 16.5686 2.77148C16.7054 2.90823 16.7822 3.0937 16.7822 3.28708C16.7822 3.48047 16.7054 3.66594 16.5686 3.80268C16.4319 3.93943 16.2464 4.01625 16.053 4.01625H16.0532ZM48.4803 23.0259C43.9233 23.0259 41.6366 17.5051 44.8591 14.2832C45.144 13.9981 45.304 13.6114 45.304 13.2083C45.304 12.8052 45.144 12.4186 44.8591 12.1334L41.5865 8.86094C41.3014 8.57591 40.9147 8.41578 40.5116 8.41578C40.1085 8.41578 39.7219 8.57591 39.4368 8.86094C36.2144 12.0833 30.6938 9.79656 30.6938 5.23958C30.6938 5.03997 30.6545 4.8423 30.5781 4.65787C30.5017 4.47345 30.3897 4.30587 30.2486 4.16471C30.1074 4.02356 29.9399 3.91159 29.7555 3.83519C29.571 3.7588 29.3734 3.71948 29.1737 3.71948H24.5459C24.3463 3.71948 24.1487 3.7588 23.9642 3.83519C23.7798 3.91159 23.6122 4.02356 23.4711 4.16471C23.33 4.30587 23.218 4.47345 23.1416 4.65787C23.0652 4.8423 23.0259 5.03997 23.0259 5.23958C23.0346 5.98179 22.878 6.71662 22.5676 7.39085C22.2572 8.06508 21.8007 8.66181 21.2311 9.13781V12.2115C21.2304 12.9052 20.9545 13.5703 20.4639 14.0608C19.9734 14.5513 19.3083 14.8272 18.6146 14.8279H13.9896C13.9546 15.6963 14.1609 16.5574 14.5857 17.3156C15.3435 18.6321 14.1892 20.2357 12.7003 19.935C11.8373 19.7672 11.0036 19.4735 10.2259 19.0633C9.71344 21.2155 7.84927 23.0259 5.2399 23.0259C5.04028 23.0259 4.84262 23.0652 4.6582 23.1416C4.47378 23.218 4.30621 23.33 4.16506 23.4711C4.02391 23.6123 3.91195 23.7798 3.83557 23.9642C3.75919 24.1487 3.71988 24.3463 3.7199 24.5459V29.1737C3.71987 29.5768 3.87996 29.9634 4.16495 30.2485C4.44995 30.5335 4.8365 30.6937 5.23958 30.6938C9.79656 30.6938 12.0833 36.2146 8.86083 39.4365C8.57596 39.7216 8.41594 40.1082 8.41594 40.5113C8.41594 40.9144 8.57596 41.301 8.86083 41.5861L12.1334 44.8586C12.4185 45.1437 12.8051 45.3038 13.2083 45.3038C13.6114 45.3038 13.998 45.1437 14.2831 44.8586C17.5093 41.6326 23.0258 43.9174 23.0258 48.48C23.0258 48.6796 23.0651 48.8773 23.1415 49.0617C23.2179 49.2461 23.3299 49.4137 23.471 49.5549C23.6122 49.696 23.7798 49.808 23.9642 49.8844C24.1486 49.9607 24.3463 50 24.5459 50H29.1737C29.3734 50 29.571 49.9607 29.7554 49.8843C29.9399 49.8079 30.1074 49.696 30.2486 49.5548C30.3897 49.4137 30.5017 49.2461 30.5781 49.0617C30.6545 48.8773 30.6938 48.6796 30.6938 48.48C30.6938 43.923 36.2146 41.6362 39.4365 44.8586C39.7215 45.1437 40.1082 45.3038 40.5113 45.3038C40.9144 45.3038 41.3011 45.1437 41.5861 44.8586L44.8587 41.5861C45.1436 41.301 45.3036 40.9144 45.3036 40.5113C45.3036 40.1082 45.1436 39.7216 44.8587 39.4365C41.6367 36.2144 43.923 30.6938 48.48 30.6938C48.6796 30.6938 48.8773 30.6545 49.0617 30.5781C49.2461 30.5017 49.4137 30.3897 49.5548 30.2486C49.696 30.1074 49.8079 29.9399 49.8843 29.7554C49.9607 29.571 50 29.3734 50 29.1737V24.5459C50 24.3463 49.9607 24.1487 49.8843 23.9642C49.8079 23.7798 49.696 23.6123 49.5548 23.4711C49.4137 23.33 49.2461 23.218 49.0617 23.1416C48.8773 23.0652 48.6796 23.0259 48.48 23.0259H48.4803ZM26.8598 40.3549C24.1907 40.3549 21.5816 39.5634 19.3623 38.0805C17.1431 36.5976 15.4134 34.49 14.392 32.0241C13.3706 29.5582 13.1034 26.8448 13.6241 24.227C14.1448 21.6092 15.4301 19.2046 17.3175 17.3173C19.2048 15.43 21.6094 14.1447 24.2272 13.624C26.845 13.1033 29.5584 13.3705 32.0243 14.392C34.4902 15.4134 36.5978 17.1431 38.0807 19.3623C39.5635 21.5816 40.355 24.1907 40.355 26.8598C40.355 28.632 40.0059 30.3869 39.3277 32.0242C38.6495 33.6615 37.6555 35.1492 36.4023 36.4023C35.1492 37.6554 33.6615 38.6495 32.0242 39.3277C30.3869 40.0059 28.632 40.3549 26.8598 40.3549Z" fill="url(#paint0_linear_2102_4946)"/>
</g>
<defs>
<linearGradient id="paint0_linear_2102_4946" x1="50" y1="25" x2="0" y2="25" gradientUnits="userSpaceOnUse">
<stop stop-color="#4EC057"/>
<stop offset="1" stop-color="#019297"/>
</linearGradient>
<clipPath id="clip0_2102_4946">
<rect width="50" height="50" fill="white"/>
</clipPath>
</defs>
</svg>
