<svg width="40" height="40" viewBox="0 0 40 40" fill="none" xmlns="http://www.w3.org/2000/svg">
<path d="M27.853 7.14819H27.8466C26.7989 7.14819 25.2364 7.77784 23.8573 8.33355C22.5863 8.84578 21.4885 9.28819 20.7145 9.29105H20.7056C19.9315 9.28819 18.8337 8.84578 17.5627 8.33355C16.181 7.77677 14.6181 7.14748 13.5672 7.14819C11.2287 7.15391 9.47296 8.00668 8.34859 9.68266C6.96707 11.7422 6.74082 14.9952 7.7985 17.5934C8.77778 19.9988 9.01341 21.8791 9.26278 23.8689C9.54591 26.1264 9.86671 28.6852 11.3748 32.6062C12.5371 35.6279 14.6455 36.4341 15.7081 36.4341C16.3903 36.4341 16.8719 36.0212 17.1559 35.6752C17.9256 34.7363 18.1906 33.2034 17.8649 31.5745C16.9606 27.0531 17.7462 24.9143 18.5644 23.9161C19.1211 23.237 19.8825 22.863 20.7081 22.863H20.7121C21.5378 22.863 22.299 23.237 22.8559 23.9161C23.6741 24.9143 24.4596 27.0531 23.5554 31.5745C23.2296 33.2033 23.4946 34.7362 24.2643 35.6752C24.5483 36.0215 25.0299 36.4341 25.7121 36.4341C26.7746 36.4341 28.8832 35.6279 30.0454 32.6063C31.5535 28.6852 31.8743 26.1264 32.1573 23.8689C32.4069 21.8786 32.6427 19.9988 33.6216 17.5934C34.6792 14.9952 34.453 11.7423 33.0714 9.68266C31.9471 8.00659 30.1915 7.15391 27.853 7.14819ZM9.27939 14.2877C9.27457 12.4239 9.70225 11.0477 10.5505 10.1972C11.1453 9.60096 11.9407 9.28578 12.8509 9.28578C13.0403 9.28578 13.222 9.36104 13.356 9.49499C13.4899 9.62895 13.5652 9.81063 13.5652 10.0001C13.5652 10.1895 13.4899 10.3712 13.356 10.5051C13.222 10.6391 13.0403 10.7144 12.8509 10.7144C12.3136 10.7144 11.892 10.8751 11.562 11.2061C10.9995 11.77 10.7042 12.8343 10.708 14.2839C10.7082 14.3777 10.69 14.4706 10.6543 14.5574C10.6186 14.6442 10.5662 14.723 10.5001 14.7895C10.4339 14.856 10.3553 14.9089 10.2688 14.945C10.1822 14.9811 10.0894 14.9998 9.99555 15.0001H9.99367C9.80456 15.0001 9.62316 14.9251 9.48926 14.7915C9.35536 14.658 9.27989 14.4768 9.27939 14.2877ZM14.5584 32.8004C14.4721 32.8372 14.3793 32.8565 14.2855 32.8574C14.1917 32.8582 14.0986 32.8406 14.0117 32.8054C13.9247 32.7703 13.8455 32.7183 13.7786 32.6525C13.7117 32.5867 13.6585 32.5083 13.6219 32.4219C12.0439 28.7029 11.613 25.8819 11.2321 23.3929C10.9575 21.5966 10.6981 19.9 10.0376 18.1037C9.97222 17.9259 9.98015 17.7294 10.0596 17.5575C10.1391 17.3855 10.2837 17.2522 10.4615 17.1868C10.6393 17.1214 10.8358 17.1294 11.0077 17.2089C11.1797 17.2883 11.313 17.4329 11.3784 17.6107C12.0885 19.5419 12.3585 21.3077 12.6443 23.177C13.0301 25.7005 13.4289 28.3098 14.937 31.8639C15.011 32.0383 15.0126 32.2349 14.9416 32.4106C14.8707 32.5862 14.7328 32.7264 14.5584 32.8004Z" fill="white"/>
<path d="M40.0004 35C39.1213 35.5026 38.3928 36.2314 37.8904 37.1106C37.3879 37.9898 37.13 38.9874 37.1433 40C37.1566 38.9874 36.8986 37.9898 36.3962 37.1106C35.8938 36.2314 35.1652 35.5026 34.2861 35C35.1652 34.4974 35.8938 33.7686 36.3962 32.8894C36.8986 32.0102 37.1566 31.0126 37.1433 30C37.13 31.0126 37.3879 32.0102 37.8904 32.8894C38.3928 33.7686 39.1213 34.4974 40.0004 35Z" fill="white"/>
<path d="M5.71429 5C4.83519 5.50262 4.10663 6.23136 3.60422 7.11058C3.10181 7.98979 2.84386 8.98745 2.85714 10C2.87042 8.98745 2.61247 7.98979 2.11006 7.11058C1.60765 6.23136 0.879095 5.50262 0 5C0.879095 4.49738 1.60765 3.76864 2.11006 2.88942C2.61247 2.01021 2.87042 1.01255 2.85714 0C2.84386 1.01255 3.10181 2.01021 3.60422 2.88942C4.10663 3.76864 4.83519 4.49738 5.71429 5Z" fill="white"/>
</svg>
