<svg width="40" height="40" viewBox="0 0 40 40" fill="none" xmlns="http://www.w3.org/2000/svg">
<path fill-rule="evenodd" clip-rule="evenodd" d="M20.1562 19.9999C20 19.9999 19.8438 19.9999 19.6875 19.9218H19.375V20.7031C19.375 21.5624 18.75 22.1874 17.8906 22.1874H16.25C15.3906 22.1874 14.6875 21.5624 14.6875 20.7031V19.6874C13.75 19.6093 12.8125 19.4531 11.875 19.3749C11.875 19.6874 11.7969 20.0781 11.7969 20.4687C11.4844 22.5781 11.1719 25.3906 13.2812 29.3749C14.0625 30.8593 15.2344 32.6562 16.4062 32.7343H16.4844C16.875 32.7343 17.4219 32.5781 17.8906 31.8749V31.7968C18.125 31.4062 18.125 30.3124 18.0469 28.0468C18.0469 26.9531 18.0469 25.7812 18.125 25.3124C18.3594 23.4374 19.375 22.4218 20.2344 22.4999C21.1719 22.5781 22.1094 24.2968 22.0312 27.9687C22.0312 28.2031 21.9531 28.5156 21.9531 28.9062C21.9531 29.6874 21.875 30.5468 22.0312 31.0937C22.1094 31.8749 22.5 32.3437 23.0469 32.5781C23.6719 32.8124 24.375 32.6562 25 32.0312C27.2656 29.9999 28.9062 24.6093 28.3594 20.9374C28.3594 20.3906 28.2812 19.9999 28.2812 19.6874C27.1094 19.7656 25.9375 19.8437 24.8438 19.9218V20.7031C24.8438 21.5624 24.2188 22.1874 23.3594 22.1874H21.7188C20.8594 22.1874 20.1562 21.5624 20.1562 20.7031V19.9999ZM19.375 18.8281H19.6875C19.8438 18.9062 20 18.9062 20.1562 18.9062V18.2031C20.1562 17.3437 20.8594 16.6406 21.7188 16.6406H23.3594C24.2188 16.6406 24.8438 17.3437 24.8438 18.2031V18.8281C25.9375 18.7499 27.0312 18.6718 28.2031 18.5937C28.2031 18.2812 28.2812 18.2031 28.4375 17.9687C28.6719 17.6562 28.9844 17.1874 29.4531 16.0937C30 14.8437 30.2344 13.4374 30.1562 12.1874C30 10.7812 29.6094 9.60932 28.9062 8.74994C27.8125 7.49994 26.1719 7.03119 24.2969 7.42182C23.5938 7.57807 22.9688 7.81244 22.4219 8.04682C21.3281 8.51557 20.3906 8.82807 18.8281 8.43744C18.3594 8.35932 17.8906 8.20307 17.4219 7.96869C16.0156 7.42182 14.4531 6.87494 12.8125 7.65619C10.7812 8.67182 9.84375 10.1562 9.84375 12.4999C9.84375 14.8437 10.4688 15.7812 11.1719 17.0312L11.6406 17.9687C11.7188 18.0468 11.7188 18.1249 11.7969 18.2031C12.7344 18.3593 13.75 18.4374 14.6875 18.5937V18.2031C14.6875 17.3437 15.3906 16.6406 16.25 16.6406H17.8906C18.75 16.6406 19.375 17.3437 19.375 18.2031V18.8281ZM25.625 17.5781C25.5469 17.5781 25.4688 17.5781 25.3906 17.4999C25.1562 17.3437 25 17.0312 25.1562 16.7968C25.3125 16.4843 25.4688 16.1718 25.625 15.9374C25.8594 15.5468 26.0938 15.2343 26.3281 14.7656C26.7969 13.5937 26.9531 11.5624 26.1719 10.8593C25.8594 10.6249 25.4688 10.7031 25 10.7812C24.2188 10.9374 23.4375 11.2499 22.8906 11.4843C22.8906 11.4843 22.8906 11.5624 22.8125 11.5624C21.0156 12.1093 19.6094 12.1874 18.0469 11.7968C17.4219 11.5624 16.875 11.4062 16.25 11.1718C16.0156 11.0937 15.7812 11.0156 15.5469 10.8593C15 10.7031 14.5312 10.6249 14.375 10.7031C14.2969 10.7031 14.2969 10.7031 14.2969 10.7031C13.5156 11.0937 13.2812 11.4843 13.2812 12.4999C13.2812 13.9843 13.5156 14.4531 14.1406 15.4687C14.2969 15.7031 14.4531 16.0156 14.6875 16.4062C14.7656 16.6406 14.6875 16.9531 14.4531 17.1093C14.1406 17.2656 13.8281 17.1874 13.6719 16.8749C13.5156 16.5624 13.3594 16.2499 13.2031 16.0156C12.5781 14.9218 12.1875 14.2968 12.1875 12.4999C12.1875 11.0937 12.6562 10.2343 13.8281 9.76557C14.5312 9.37494 15.4688 9.68744 15.9375 9.84369C16.1719 9.99994 16.4062 10.0781 16.6406 10.1562C17.1875 10.3906 17.7344 10.5468 18.2812 10.7031C19.9219 11.0937 21.1719 10.8593 22.5 10.4687C23.4375 10.0781 24.1406 9.84369 24.7656 9.68744C25.3125 9.60932 26.1719 9.45307 26.875 9.99994C28.2812 11.2499 27.8125 14.0624 27.3438 15.1562V15.2343C27.1094 15.7031 26.7969 16.0937 26.5625 16.4843C26.4062 16.7968 26.25 17.0312 26.0938 17.2656C26.0156 17.4999 25.8594 17.5781 25.625 17.5781Z" fill="white"/>
<path fill-rule="evenodd" clip-rule="evenodd" d="M28.8281 30.3905C28.5156 30.3905 28.125 30.1561 27.8125 29.9217C29.1406 27.0311 29.7656 23.3592 29.4531 20.8592C29.4531 20.3905 29.375 19.9999 29.375 19.5311C32.6562 19.2186 36.0156 18.6717 38.8281 18.1249C38.75 18.203 38.6719 18.3592 38.5938 18.4374C38.3594 18.7499 38.3594 18.7499 38.5938 20.703C38.9062 23.828 37.6562 28.203 35.8594 29.7655C35 30.4686 34.4531 30.3124 34.1406 30.2342C33.8281 30.1561 33.3594 29.8436 33.2031 28.9061C33.125 28.4374 33.125 27.7342 33.2031 27.1092C33.2031 26.8749 33.2031 26.5624 33.2031 26.4061C33.2812 23.5155 32.5781 22.1092 31.7969 22.1092C31.25 22.0311 30.4688 22.8905 30.2344 24.2967V26.0155C30.3125 28.2811 30.2344 29.1405 30 29.5311C29.6875 30.2342 29.2188 30.3905 28.8281 30.3905C28.9062 30.3905 28.9062 30.3905 28.8281 30.3905ZM29.4531 18.4374C29.8438 17.8124 30.1562 17.1874 30.4688 16.4842C31.0156 15.1561 31.3281 13.5936 31.25 12.1092C31.1719 11.5624 31.0938 11.0936 31.0156 10.6249C32.1094 10.7811 32.8125 10.5467 33.5938 10.2342C34.0625 10.078 34.5312 9.84361 35.1562 9.76549C36.7188 9.45299 38.0469 9.76549 38.9062 10.8592C40.0781 12.2655 40.3125 14.6874 39.4531 16.7967C36.5625 17.4999 32.9688 18.1249 29.4531 18.4374Z" fill="white"/>
<path fill-rule="evenodd" clip-rule="evenodd" d="M5.46875 30.3906C4.375 30.3906 3.51562 28.9844 2.8125 27.7344L2.73438 27.5781C1.01562 24.375 1.32812 22.0312 1.48438 20.3906C1.5625 19.5312 1.64062 18.9062 1.40625 18.4375C1.25 18.2031 1.09375 17.9688 1.01562 17.7344C0.859375 17.4219 0.625 17.1094 0.546875 16.7969C3.4375 17.7344 7.10938 18.5938 10.7812 19.2188C10.7812 19.6094 10.7031 20.1562 10.7031 20.3906C10.5469 21.7188 10.4688 22.9688 10.5469 24.2969C10.7812 26.25 11.4062 28.125 12.2656 29.8438C11.6406 30.3906 11.0156 30.3906 10.7031 30.2344C10.4688 30.1562 9.92188 29.9219 9.6875 28.9844C9.6875 28.9062 9.6875 28.9062 9.6875 28.9062C9.6875 28.4375 9.6875 27.8906 9.76562 27.3438C9.76562 26.9531 9.76562 26.6406 9.76562 26.4062C9.84375 23.5156 9.14062 22.1875 8.35938 22.1094C7.8125 22.0312 7.03125 22.8906 6.79688 24.2969C6.71875 24.6875 6.79688 25.5469 6.79688 26.4844C6.79688 28.3594 6.79688 29.1406 6.5625 29.5312C6.25 30.2344 5.78125 30.3906 5.46875 30.3906ZM0.078125 15.5469C0 15.0781 0 14.6094 0 13.9844C0 12.0312 0.859375 10.7031 2.42188 10C3.75 9.29688 5.07812 9.76562 6.17188 10.1562C6.5625 10.3125 6.95312 10.4688 7.34375 10.5469C7.96875 10.7031 8.51562 10.7031 8.98438 10.625C8.82812 11.1719 8.75 11.7969 8.75 12.5C8.75 14.0625 8.98438 15.3125 9.6875 16.7188C9.84375 17.0312 10 17.2656 10.2344 17.5781L10.4688 18.0469C6.64062 17.4219 2.89062 16.4844 0.078125 15.5469Z" fill="white"/>
<path fill-rule="evenodd" clip-rule="evenodd" d="M17.8906 21.0938H16.25C16.0156 21.0938 15.7812 20.9375 15.7812 20.7031V18.2031C15.7812 17.9688 16.0156 17.7344 16.25 17.7344H17.8906C18.125 17.7344 18.2812 17.9688 18.2812 18.2031V20.7031C18.2812 20.9375 18.125 21.0938 17.8906 21.0938Z" fill="white"/>
<path fill-rule="evenodd" clip-rule="evenodd" d="M23.3594 21.0938H21.7188C21.4844 21.0938 21.25 20.9375 21.25 20.7031V18.2031C21.25 17.9688 21.4844 17.7344 21.7188 17.7344H23.3594C23.5938 17.7344 23.75 17.9688 23.75 18.2031V20.7031C23.75 20.9375 23.5938 21.0938 23.3594 21.0938Z" fill="white"/>
</svg>
