<svg width="40" height="40" viewBox="0 0 40 40" fill="none" xmlns="http://www.w3.org/2000/svg">
<g clip-path="url(#clip0_2102_2253)">
<path d="M19.2889 26.2359C19.7436 26.6919 20.489 26.694 20.9459 26.2359C21.0085 26.1677 24.5248 22.6707 24.4238 22.7391H15.811C15.6919 22.652 19.2385 26.1802 19.2889 26.2359Z" fill="white"/>
<path d="M25.9723 19.6112C26.1007 19.0058 26.0991 18.3115 26.0933 17.6909H14.1418C14.1197 18.5941 14.1696 19.5379 14.4651 20.3955H25.7701C25.8536 20.1393 25.9208 19.8776 25.9723 19.6112Z" fill="white"/>
<path d="M33.4232 22.0519C33.8521 22.4546 34.5696 22.4536 34.9988 22.0519L37.417 19.8529C37.8957 19.4175 37.931 18.6764 37.4959 18.1975C37.0609 17.7187 36.3201 17.6832 35.8414 18.1185L35.3822 18.536V14.2432C35.3822 13.596 34.8578 13.0713 34.211 13.0713C33.5641 13.0713 33.0397 13.596 33.0397 14.2432V18.5361L32.5806 18.1186C32.1017 17.6832 31.361 17.7187 30.9261 18.1975C30.491 18.6764 30.5264 19.4176 31.005 19.8529L33.4232 22.0519Z" fill="white"/>
<path d="M5.23622 22.052C5.66552 22.4538 6.38286 22.4546 6.81177 22.052L9.22997 19.8529C9.70872 19.4176 9.74403 18.6764 9.30888 18.1975C8.87388 17.7188 8.13302 17.6833 7.65435 18.1186L7.1952 18.5361V14.2432C7.1952 13.596 6.67083 13.0713 6.02396 13.0713C5.37708 13.0713 4.8527 13.596 4.8527 14.2432V18.536L4.39364 18.1186C3.91497 17.6831 3.17419 17.7186 2.73911 18.1975C2.30403 18.6764 2.33935 19.4175 2.81802 19.8528L5.23622 22.052Z" fill="white"/>
<path d="M12.5179 13.0451C12.0198 13.18 11.6525 13.6344 11.6525 14.1752C11.6525 14.8229 12.1772 15.3471 12.8237 15.3471H27.1757C27.8222 15.3471 28.3469 14.8229 28.3469 14.1752C28.3469 13.6344 27.9796 13.1801 27.4816 13.0452C28.7951 11.5383 30.292 9.34186 30.5239 6.96757C30.6903 5.25975 30.2014 3.70436 29.0693 2.34499C27.684 0.682489 25.8779 -0.123683 23.8493 0.0153797C22.625 0.0989734 21.3327 0.516161 19.9997 1.25835C18.6668 0.516161 17.3753 0.0989734 16.1501 0.0153797C14.1207 -0.122902 12.3154 0.682567 10.931 2.34499C9.79879 3.70436 9.30918 5.25975 9.47551 6.96757C9.7073 9.34218 11.2043 11.5384 12.5179 13.0451Z" fill="white"/>
<path d="M39.9188 29.5756C40.4388 27.1634 38.383 24.6995 35.9131 24.7647H27.9453C26.0713 24.7647 24.4479 26.1569 24.1699 28.0037C23.8584 30.0692 22.0367 31.6614 20.0182 31.6286H19.9995H19.9807C17.9669 31.6638 16.1406 30.0692 15.829 28.0037C15.551 26.1569 13.9277 24.7647 12.0536 24.7647H4.08587C1.61369 24.7025 -0.435845 27.1552 0.0801704 29.5763C0.351889 31.0248 0.572905 32.1731 0.736889 32.988C0.875873 33.6802 0.766577 34.6949 0.42142 35.9238C-0.19233 37.8985 1.46056 40.0572 3.52369 39.9988H36.4754C38.5387 40.0572 40.1914 37.8984 39.5777 35.9238C39.2325 34.6957 39.1232 33.6809 39.2614 32.9888C39.4261 32.1731 39.6471 31.0248 39.9188 29.5756Z" fill="white"/>
</g>
<defs>
<clipPath id="clip0_2102_2253">
<rect width="40" height="40" fill="white"/>
</clipPath>
</defs>
</svg>
