<svg width="40" height="40" viewBox="0 0 40 40" fill="none" xmlns="http://www.w3.org/2000/svg">
<path d="M33.6995 12.0511C32.4771 10.1744 30.3494 9.27066 28.0956 9.0788C27.9808 9.07007 27.8654 9.08639 27.7593 9.12638C27.6531 9.16636 27.5595 9.2288 27.4863 9.30833C26.5864 10.2752 25.7207 11.2671 24.8893 12.2842C23.9608 13.4174 23.0823 14.5826 22.2538 15.7797L22.2581 15.7842C24.6808 14.9465 27.9092 15.1818 28.9855 17.0183C29.4719 17.8582 29.7185 18.7925 29.7033 19.7382C29.7033 21.794 28.707 23.9328 27.7927 25.8897C27.657 26.177 27.5249 26.4611 27.3963 26.742C26.7071 28.252 26.4035 30.5217 26.1357 32.5264C25.9678 33.7756 25.7496 35.4113 25.4636 36.0906C25.4536 36.1143 25.4357 36.1347 25.4122 36.149C25.3888 36.1633 25.361 36.1707 25.3327 36.1704C25.3044 36.17 25.2768 36.1619 25.2539 36.147C25.2309 36.1322 25.2136 36.1114 25.2043 36.0874C24.9901 35.5071 24.9001 34.1721 24.8286 33.1426C24.6358 30.2312 24.3679 26.2408 21.8431 24.3957C21.3151 24.0045 20.6511 23.7902 19.9653 23.7896C19.2795 23.789 18.615 24.0022 18.0862 24.3925C17.846 24.5683 17.6248 24.7639 17.4255 24.9767C15.5328 26.9687 15.2792 30.4291 15.1042 33.0532C15.1007 33.0851 15.1007 33.117 15.0971 33.1457C15.0292 34.1743 14.94 35.5163 14.7325 36.0903C14.724 36.115 14.7072 36.1368 14.6843 36.1526C14.6615 36.1684 14.6337 36.1775 14.6048 36.1786C14.5759 36.1797 14.5474 36.1727 14.5231 36.1587C14.4988 36.1446 14.48 36.1242 14.4693 36.1002C14.1797 35.4276 13.9615 33.782 13.7936 32.5248C13.5258 30.5233 13.2222 28.2536 12.533 26.7436C12.4044 26.4627 12.2723 26.1786 12.1366 25.8913C10.8081 23.047 9.30103 19.8196 10.9438 17.0199C11.633 15.842 13.2079 15.3216 14.89 15.3216C15.7848 15.3235 16.6727 15.4628 17.5148 15.7334C18.5778 16.0786 19.717 16.1946 20.8396 16.0718C22.4429 13.6102 24.2679 11.2694 26.2964 9.07274C24.9894 9.16883 23.7134 9.47941 22.5323 9.98892C22.0779 10.1874 21.5965 10.3323 21.1003 10.4199C20.9545 10.4413 20.8199 10.5029 20.7153 10.5961C20.6107 10.6893 20.5414 10.8094 20.517 10.9397C20.4925 11.0699 20.5143 11.2036 20.5792 11.3222C20.6441 11.4408 20.7489 11.5383 20.8789 11.601C20.9429 11.6291 21.0109 11.6491 21.081 11.6604C21.2173 11.6755 21.3437 11.7316 21.4394 11.8196C21.5351 11.9076 21.5944 12.0222 21.6074 12.1444C21.6063 12.271 21.5495 12.3923 21.4493 12.4818C21.3491 12.5714 21.2134 12.6222 21.0717 12.6232H21.0182C19.9075 12.5242 19.3825 11.8666 18.8754 11.2282C18.5207 10.7018 18.0104 10.2732 17.4005 9.98956C13.9115 8.32319 8.49393 8.57857 6.22979 12.0518C3.26212 16.6104 6.22979 23.2343 9.17604 27.911C12.1223 32.5877 11.0938 40.594 15.2792 39.9651C18.3362 39.5022 16.697 26.7395 19.9647 26.7395C23.2323 26.7395 21.5967 39.5022 24.6536 39.9651C28.8391 40.594 27.8142 32.5909 30.7568 27.911C33.6995 23.2312 36.6708 16.6097 33.6995 12.0511Z" fill="white"/>
<path d="M14.1988 34.2007C14.0604 32.8357 14.0557 31.4625 14.1845 30.0967C14.3357 28.7285 14.6024 27.3725 14.9823 26.0403C15.7562 23.3893 16.8476 20.8206 18.2374 18.3788C21.0187 13.5064 24.6187 9.04378 28.9121 5.14613C28.9614 5.10112 29.02 5.06523 29.0848 5.0405C29.1496 5.01577 29.2191 5.00268 29.2896 5.00198C29.36 5.00129 29.4299 5.01299 29.4952 5.03644C29.5606 5.05988 29.6201 5.09461 29.6705 5.13863C29.7208 5.18264 29.761 5.23509 29.7886 5.29298C29.8163 5.35087 29.8309 5.41307 29.8317 5.47601C29.8325 5.53896 29.8194 5.60143 29.7932 5.65985C29.767 5.71827 29.7281 5.7715 29.6789 5.81651C27.5886 7.74176 25.6528 9.7963 23.8857 11.9648C22.1072 14.125 20.5217 16.4068 19.1438 18.7893C17.7663 21.1652 16.6791 23.6669 15.9011 26.251C15.5286 27.5403 15.2552 28.8509 15.083 30.1736C14.9326 31.4965 14.853 32.8427 14.8123 34.1777V34.1822C14.8097 34.2518 14.7776 34.3179 14.7225 34.3672C14.6674 34.4165 14.5934 34.4452 14.5155 34.4476C14.4377 34.45 14.3617 34.4259 14.3029 34.3801C14.2442 34.3343 14.2071 34.2703 14.1991 34.201L14.1988 34.2007Z" fill="white"/>
<path d="M32.1248 0.892245L29.1706 3.8926C28.6854 4.38541 28.7389 5.13654 29.2902 5.57029C29.8415 6.00404 30.6818 5.95617 31.1671 5.46336L34.1213 2.463C34.6065 1.97019 34.553 1.21906 34.0017 0.78531C33.4504 0.351557 32.6101 0.399433 32.1248 0.892245Z" fill="white"/>
</svg>
