<svg width="37" height="44" viewBox="0 0 37 44" fill="none" xmlns="http://www.w3.org/2000/svg">
<path fill-rule="evenodd" clip-rule="evenodd" d="M12.7025 17.2215L12.6998 17.2339C9.93965 17.3774 8.53959 11.4421 11.897 12.6823C12.4444 10.2651 13.0519 8.56302 13.7199 7.57537C17.6471 12.398 21.359 14.8792 24.8558 15.0191C24.9816 14.2938 25.0662 13.5152 25.103 12.6823C28.4604 11.4421 27.0604 17.3774 24.3003 17.2339L24.2981 17.2218C21.9221 24.1221 15.0802 24.1207 12.7025 17.2215ZM18.5 44C12.3268 44 7.02972 42.5039 5.89566 40.4388L6.545 32.7594C6.57829 32.3562 6.2766 32.0022 5.87087 31.9691C5.46513 31.9359 5.10916 32.2356 5.0756 32.6391L4.40297 40.595L4.47266 40.5965C2.74107 40.572 1.08182 39.7659 0 38.3566C0.75055 34.3634 1.38784 29.8067 4.18133 27.1696C5.75265 25.6862 8.29501 24.9684 10.685 24.4119V29.6542C9.81648 29.7108 9.03157 30.0868 8.44873 30.6652L8.44723 30.6667L8.44563 30.6683C7.81303 31.2982 7.42129 32.1657 7.42129 33.1189V35.5002C7.42129 35.9053 7.7514 36.2335 8.15873 36.2335C8.56606 36.2335 8.89627 35.9052 8.89627 35.5002V33.1189C8.89627 32.5651 9.1218 32.0638 9.48583 31.7021L9.48866 31.6994C9.85252 31.3378 10.3567 31.1132 10.9138 31.1132H11.9314C12.4883 31.1132 12.9927 31.3378 13.3564 31.6994V31.7021C13.7221 32.0657 13.9488 32.5673 13.9488 33.1189V35.4409C13.9488 35.8456 14.2791 36.1743 14.6864 36.1743C15.0936 36.1743 15.424 35.8456 15.424 35.4409V33.1189C15.424 32.1624 15.0318 31.294 14.3995 30.6653L14.3979 30.6668C13.8149 30.0876 13.0292 29.7109 12.16 29.6543V24.0768C12.5558 23.9866 12.9397 23.8978 13.3061 23.8079L18.5 38.3499V44ZM23.6939 23.8077C24.0603 23.8983 24.4442 23.9871 24.8398 24.0766V30.0848C24.6641 30.1688 24.505 30.2814 24.3684 30.4171L24.3654 30.4201C24.0556 30.7286 23.8635 31.1537 23.8635 31.6221C23.8635 32.0905 24.0554 32.5157 24.3654 32.8242L24.3684 32.8266C24.6784 33.1346 25.1063 33.3258 25.5773 33.3258C26.0487 33.3258 26.4764 33.1352 26.7866 32.8266L26.7894 32.8242C27.0995 32.5157 27.2916 32.0905 27.2916 31.6221C27.2916 31.1513 27.0995 30.7255 26.7894 30.4171H26.7864C26.6498 30.2814 26.4904 30.1688 26.3148 30.0848V24.4119C28.7048 24.9684 31.2459 25.6868 32.8188 27.1696C35.6122 29.8067 36.2495 34.3634 37 38.3566C35.9331 39.7466 34.3049 40.5495 32.5994 40.595L31.9267 32.6392C31.8933 32.2357 31.5373 31.936 31.1316 31.9692C30.7258 32.0023 30.4239 32.3562 30.4575 32.7594L31.1068 40.4393L31.1081 40.4397L31.1044 40.4389C30.0621 42.3371 25.5008 43.7547 19.9749 43.9714V38.097L18.619 34.3004L23.6939 23.8077ZM25.6664 22.7545C28.9783 21.1975 30.8369 18.6401 30.363 15.0381C29.6511 8.91436 25.1945 -0.00589532 18.5 2.92351e-06C11.8056 -0.00589532 7.34885 8.91436 6.63709 15.0381C6.16069 18.6561 8.10799 21.1817 11.476 22.7213L12.1601 22.562V22.5717C12.4248 22.5109 12.6893 22.4486 12.953 22.3837L13.3749 22.2804L13.4557 22.1781C13.5292 22.0861 13.5727 21.8571 13.5983 21.6233C14.8822 22.9727 16.5733 23.8644 18.5024 23.864C20.4096 23.8636 22.1127 22.983 23.4025 21.6255C23.4281 21.8605 23.4719 22.0894 23.545 22.1793L23.6267 22.2797L24.0505 22.3847C24.3128 22.4497 24.5763 22.5117 24.8399 22.5721V22.562L25.6664 22.7545Z" fill="white"/>
</svg>
