<svg width="40" height="40" viewBox="0 0 40 40" fill="none" xmlns="http://www.w3.org/2000/svg">
<g clip-path="url(#clip0_2102_2210)">
<path fill-rule="evenodd" clip-rule="evenodd" d="M39.9443 8.74677C39.3084 3.20615 33.374 0.167864 25.5318 3.2788C24.8318 3.55536 24.4154 3.55536 23.7162 3.2788C16.2131 0.302239 10.4576 2.95536 9.41698 8.03974C11.9881 7.20224 14.8889 7.41552 17.4068 8.86786C22.1146 11.5874 23.7342 17.6288 21.0162 22.3366C19.2685 25.3616 16.1506 27.1116 12.8951 27.253C12.9131 27.7093 12.9373 28.1569 12.9771 28.5999C13.2607 31.8022 14.7623 36.778 18.9607 35.664C22.5021 34.7226 22.3576 31.4233 22.5217 28.5999C22.599 27.2421 22.7474 26.053 22.9443 25.0608C23.9279 20.1421 25.6021 21.0991 26.3724 25.4483C26.5404 26.3874 26.6646 27.4811 26.731 28.7147C26.8842 31.514 26.7974 34.7358 30.2834 35.664C34.4842 36.778 35.9857 31.8015 36.2693 28.5999C36.4662 26.3694 36.2935 24.0069 36.624 21.3601C37.2287 16.5108 40.4623 13.2804 39.9443 8.74677ZM37.2248 10.2905C37.1873 10.6983 37.1162 11.0897 37.017 11.4772C36.9303 11.8202 36.5787 12.0311 36.2334 11.9421C35.8881 11.8554 35.6795 11.5038 35.7685 11.1585C35.8553 10.8194 35.917 10.4921 35.9459 10.1749C35.9748 9.86005 35.9748 9.53896 35.9349 9.20458C35.8998 8.8788 35.8264 8.56865 35.7154 8.2788C35.6115 8.01083 35.4717 7.75849 35.2928 7.52568C34.892 7.00771 34.367 6.65302 33.7693 6.42255C33.0498 6.14755 32.2232 6.05068 31.3779 6.0749C31.0232 6.08115 30.7287 5.80068 30.7201 5.44599C30.7115 5.0913 30.9928 4.79677 31.3467 4.78818C32.3521 4.76161 33.3443 4.88115 34.2303 5.22021C35.0365 5.52802 35.7514 6.01708 36.3099 6.73974C36.5693 7.07177 36.7662 7.43271 36.9146 7.8163C37.0693 8.21708 37.1693 8.63349 37.2154 9.05849C37.2623 9.47333 37.2623 9.88271 37.2248 10.2905ZM8.76073 25.128C8.75838 25.1343 8.75448 25.1413 8.74979 25.1476L7.20838 27.8202L7.2037 27.8265C7.55995 28.1054 7.66854 28.6147 7.43651 29.0179L2.68417 37.2507C2.28807 37.9351 1.40448 38.1718 0.71776 37.778C0.0333847 37.3819 -0.203334 36.496 0.190416 35.8116L4.94276 27.5804C5.17557 27.1772 5.67167 27.0155 6.08963 27.1858L6.09432 27.1796L7.63573 24.5085C7.64042 24.5022 7.64432 24.4952 7.64901 24.4866C3.97479 21.9866 2.79901 17.0343 5.0576 13.1233C7.42245 9.02646 12.6646 7.62255 16.7615 9.9874C20.8607 12.3522 22.2646 17.5944 19.8974 21.6913C17.6412 25.6038 12.7646 27.0616 8.76073 25.128Z" fill="white"/>
</g>
<defs>
<clipPath id="clip0_2102_2210">
<rect width="40" height="40" fill="white"/>
</clipPath>
</defs>
</svg>
