<svg width="30" height="30" viewBox="0 0 30 30" fill="none" xmlns="http://www.w3.org/2000/svg">
<g clip-path="url(#clip0_2102_3861)">
<path d="M30 12.5V17.5C30 18.8789 28.8789 20 27.5 20H26.8193C25.8633 25.666 20.9346 30 15 30C14.4473 30 14 29.5527 14 29C14 28.4473 14.4473 28 15 28C20.5137 28 25 23.5137 25 18V12C25 6.48633 20.5137 2 15 2C9.48633 2 5 6.48633 5 12V19C5 19.5527 4.55273 20 4 20H2.5C1.12109 20 0 18.8789 0 17.5V12.5C0 11.1211 1.12109 10 2.5 10H3.18066C4.13672 4.33398 9.06543 0 15 0C20.9346 0 25.8633 4.33398 26.8193 10H27.5C28.8789 10 30 11.1211 30 12.5ZM15 4C10.5889 4 7 7.58887 7 12V17C7 21.4111 10.5889 25 15 25C19.4111 25 23 21.4111 23 17V12C23 7.58887 19.4111 4 15 4Z" fill="#01433D"/>
</g>
<defs>
<clipPath id="clip0_2102_3861">
<rect width="30" height="30" fill="white"/>
</clipPath>
</defs>
</svg>
