<svg width="60" height="60" viewBox="0 0 60 60" fill="none" xmlns="http://www.w3.org/2000/svg">
<g clip-path="url(#clip0_2102_6470)">
<path d="M51.5237 56.4708L27.925 43.9758C27.31 43.6495 26.56 43.6945 25.9787 44.0883L7.93372 56.5833C7.25872 57.052 6.96622 57.9033 7.21372 58.687C7.45372 59.4633 8.18122 59.9995 8.99872 59.9995H50.6425C51.5012 59.9995 52.255 59.4145 52.4612 58.5745C52.6712 57.7383 52.2812 56.872 51.5237 56.4708Z" fill="#C4F500"/>
<path d="M59.4212 52.9085L53.8712 27.9223C53.7362 27.311 53.305 26.8123 52.7237 26.5835C52.1387 26.3548 51.4825 26.4335 50.9725 26.786L32.9237 39.281C32.3837 39.656 32.08 40.2823 32.1212 40.931C32.1587 41.5873 32.5375 42.1723 33.115 42.476L56.71 54.971C56.9875 55.1173 57.2875 55.1923 57.5875 55.1923C57.9887 55.1923 58.39 55.0648 58.7237 54.806C59.305 54.3635 59.5787 53.6248 59.4212 52.9085Z" fill="#C4F500"/>
<path d="M46.3637 23.8162C46.1162 23.0325 45.3924 22.5 44.5712 22.5H27.4562C24.3437 28.1363 19.7387 33.525 17.845 35.6325C16.78 36.8175 15.2537 37.5 13.66 37.5C12.0662 37.5 10.54 36.8175 9.47495 35.6325C8.7437 34.8187 7.6112 33.5175 6.3137 31.905L1.7762 52.3275C1.6112 53.0813 1.92245 53.8575 2.55995 54.2888C2.87495 54.5025 3.24245 54.6075 3.6062 54.6075C3.9812 54.6075 4.35245 54.4987 4.67495 54.2737L45.6362 25.9125C46.3149 25.4512 46.6037 24.6 46.3637 23.8162Z" fill="#C4F500"/>
<path d="M13.66 0C6.42247 0 0.534973 5.8875 0.534973 13.125C0.534973 19.86 11.065 31.7887 12.265 33.1275C12.6212 33.5212 13.1275 33.75 13.66 33.75C14.1925 33.75 14.6987 33.5212 15.055 33.1275C16.255 31.7887 26.785 19.86 26.785 13.125C26.785 5.8875 20.8975 0 13.66 0ZM13.66 18.75C10.555 18.75 8.03497 16.23 8.03497 13.125C8.03497 10.02 10.555 7.5 13.66 7.5C16.765 7.5 19.285 10.02 19.285 13.125C19.285 16.23 16.765 18.75 13.66 18.75Z" fill="#C4F500"/>
</g>
<defs>
<clipPath id="clip0_2102_6470">
<rect width="60" height="60" fill="white"/>
</clipPath>
</defs>
</svg>
