<svg width="45" height="45" viewBox="0 0 45 45" fill="none" xmlns="http://www.w3.org/2000/svg">
<g clip-path="url(#clip0_2107_253)">
<path fill-rule="evenodd" clip-rule="evenodd" d="M14.6767 17.2414L15.3196 17.9305C15.8314 18.4798 16.0207 19.1847 15.852 19.9149L15.644 20.8166C15.3843 21.9393 16.0367 23.0657 17.1436 23.4061L18.0472 23.683C18.6161 23.8574 19.0586 24.2173 19.3285 24.7134H25.855C27.3097 24.7134 28.5394 25.7279 28.8646 27.08L38.636 22.2209C38.8441 22.1174 39.0569 22.0185 39.2725 21.9262C39.3765 21.5765 39.3934 21.1961 39.3072 20.8156L39.0972 19.899C38.9294 19.1679 39.1206 18.4639 39.6333 17.9156L40.267 17.2386C41.0562 16.3948 41.0571 15.0958 40.2698 14.251L39.6268 13.5619C39.115 13.0127 38.9257 12.3077 39.0944 11.5776L39.3025 10.6759C39.5621 9.55316 38.9097 8.42673 37.8028 8.08638L36.8992 7.80943C36.1794 7.58843 35.662 7.07184 35.4408 6.3557L35.168 5.47078C34.8287 4.36859 33.6974 3.71772 32.5689 3.97415L31.6475 4.18302C30.9127 4.34994 30.205 4.15971 29.6539 3.64965L28.9734 3.01929C28.1251 2.23414 26.8194 2.23321 25.9702 3.01649L25.2776 3.65617C24.7255 4.16531 24.0169 4.35367 23.283 4.18582L22.3766 3.97881C21.2481 3.72051 20.1158 4.36952 19.7737 5.46984L19.4944 6.36875C19.2723 7.08489 18.753 7.59962 18.0331 7.81969L17.1436 8.09104C16.0357 8.4286 15.3815 9.5541 15.6393 10.6768L15.8492 11.5934C16.017 12.3245 15.8267 13.0285 15.3131 13.5768L14.6795 14.2538C13.8903 15.0977 13.8893 16.3966 14.6767 17.2414ZM27.4727 7.51383C32.043 7.51383 35.7482 11.1999 35.7482 15.7467C35.7482 20.2934 32.043 23.9795 27.4727 23.9795C22.9024 23.9795 19.1973 20.2934 19.1973 15.7467C19.1973 11.1999 22.9024 7.51383 27.4727 7.51383ZM14.4892 42.1834L13.2791 44.2684C12.8752 44.965 11.9632 45.2074 11.263 44.8064L0.737051 38.7602C0.0350097 38.3574 -0.209627 37.4538 0.196226 36.7545L1.42128 34.6443C1.82714 33.9459 2.73632 33.7025 3.43836 34.1062L13.9334 40.1347C14.7038 40.6019 14.8885 41.3889 14.4901 42.1843L14.4892 42.1834ZM44.4623 24.912L29.7457 33.3649C27.604 34.5949 25.4491 35.1674 22.9765 35.1674L19.6097 35.1693C17.5157 35.1693 15.7039 36.209 14.657 38.0133L14.0196 39.1127L4.31381 33.5384L6.98325 28.9394C9.4568 24.677 12.9136 24.1623 17.3508 25.6254C17.3995 25.6412 17.4483 25.6487 17.497 25.6487H25.855C27.0397 25.6487 28.0126 26.6184 28.0126 27.7971C28.0126 28.9757 27.0406 29.9437 25.855 29.9437H19.56C19.3013 29.9437 19.0914 30.1525 19.0914 30.4099C19.0914 30.6673 19.3013 30.8761 19.56 30.8761H25.855C27.4446 30.8761 28.785 29.6621 28.9359 28.0899L39.056 23.0573C40.924 22.1286 43.3629 21.4786 44.7988 23.448C45.185 23.9786 44.9835 24.5707 44.4642 24.9139L44.4623 24.912ZM14.1508 19.2994C14.2174 19.5475 14.0693 19.803 13.819 19.8692L12.2331 20.2916C11.9838 20.3578 11.727 20.2105 11.6604 19.9615C11.5939 19.7134 11.742 19.4579 11.9913 19.3917L13.5772 18.9693C13.8265 18.9031 14.0833 19.0505 14.1499 19.2994H14.1508ZM11.6604 11.5328C11.727 11.2848 11.9838 11.1365 12.2331 11.2027L13.819 11.6251C14.0683 11.6913 14.2174 11.9468 14.1499 12.1949C14.0833 12.4429 13.8265 12.5912 13.5772 12.525L11.9913 12.1026C11.742 12.0364 11.5929 11.7809 11.6604 11.5328ZM15.897 4.89077C15.7143 4.70894 15.7143 4.41334 15.897 4.23151C16.0798 4.04968 16.3769 4.04968 16.5597 4.23151L17.721 5.38685C17.9038 5.56869 17.9038 5.86428 17.721 6.04611C17.5382 6.22795 17.2411 6.22795 17.0583 6.04611L15.897 4.89077ZM22.9053 0.586455C22.8387 0.338416 22.9868 0.0829167 23.2371 0.0167108C23.4864 -0.0494952 23.7432 0.0978364 23.8098 0.346808L24.2344 1.92456C24.3009 2.1726 24.1528 2.4281 23.9025 2.49431C23.6532 2.56051 23.3964 2.41318 23.3299 2.16421L22.9053 0.586455ZM30.7121 1.92363L31.1367 0.345876C31.2032 0.0978364 31.46 -0.0504276 31.7094 0.0157784C31.9587 0.0819843 32.1077 0.337483 32.0412 0.585522L31.6166 2.16328C31.55 2.41131 31.2932 2.55958 31.0439 2.49337C30.7946 2.42717 30.6455 2.17167 30.7121 1.92363ZM37.2263 6.04518C37.0436 5.86335 37.0436 5.56775 37.2263 5.38592L38.3877 4.23058C38.5704 4.04875 38.8676 4.04875 39.0503 4.23058C39.2331 4.41241 39.2331 4.70801 39.0503 4.88984L37.889 6.04518C37.7062 6.22702 37.4091 6.22702 37.2263 6.04518ZM40.7965 12.1958C40.73 11.9478 40.8781 11.6923 41.1283 11.6261L42.7143 11.2036C42.9636 11.1374 43.2204 11.2848 43.287 11.5337C43.3535 11.7818 43.2054 12.0373 42.9552 12.1035L41.3692 12.5259C41.1199 12.5921 40.8631 12.4448 40.7965 12.1958ZM43.287 19.9624C43.2204 20.2105 42.9636 20.3587 42.7143 20.2925L41.1283 19.8701C40.879 19.8039 40.73 19.5484 40.7965 19.3004C40.8631 19.0523 41.1199 18.9041 41.3692 18.9703L42.9552 19.3927C43.2045 19.4589 43.3535 19.7144 43.286 19.9624H43.287ZM27.4737 23.048C31.5266 23.048 34.8118 19.7797 34.8118 15.7476C34.8118 11.7156 31.5266 8.44724 27.4737 8.44724C23.4208 8.44724 20.1355 11.7156 20.1355 15.7476C20.1355 19.7797 23.4208 23.048 27.4737 23.048ZM22.491 13.63L25.959 13.6365C26.063 13.6365 26.1511 13.5731 26.1839 13.4742L27.2497 10.191C27.32 9.97464 27.6274 9.97464 27.6977 10.191L28.7634 13.4742C28.7953 13.5731 28.8843 13.6365 28.9884 13.6365L32.4564 13.63C32.6842 13.63 32.7798 13.9209 32.5951 14.0542L29.7851 16.0768C29.7007 16.1374 29.667 16.2409 29.6988 16.3397L30.7767 19.6193C30.847 19.8337 30.5977 20.0146 30.414 19.8813L27.6124 17.8476C27.528 17.7869 27.4193 17.7869 27.335 17.8476L24.5334 19.8813C24.3496 20.0146 24.1003 19.8337 24.1706 19.6193L25.2485 16.3397C25.2804 16.2409 25.2466 16.1374 25.1623 16.0768L22.3522 14.0542C22.1676 13.9209 22.2623 13.63 22.491 13.63Z" fill="#FACF61"/>
</g>
<defs>
<clipPath id="clip0_2107_253">
<rect width="45" height="45" fill="white"/>
</clipPath>
</defs>
</svg>
