<svg width="60" height="60" viewBox="0 0 60 60" fill="none" xmlns="http://www.w3.org/2000/svg">
<g clip-path="url(#clip0_2102_4636)">
<path d="M51.5235 56.4708L27.9248 43.9758C27.3098 43.6495 26.5598 43.6945 25.9785 44.0883L7.93354 56.5833C7.25854 57.052 6.96604 57.9033 7.21354 58.687C7.45354 59.4633 8.18104 59.9995 8.99854 59.9995H50.6423C51.501 59.9995 52.2548 59.4145 52.461 58.5745C52.671 57.7383 52.281 56.872 51.5235 56.4708Z" fill="#FFE06E"/>
<path d="M59.4214 52.9085L53.8714 27.9223C53.7364 27.311 53.3051 26.8123 52.7239 26.5835C52.1389 26.3548 51.4826 26.4335 50.9726 26.786L32.9239 39.281C32.3839 39.656 32.0801 40.2823 32.1214 40.931C32.1589 41.5873 32.5376 42.1723 33.1151 42.476L56.7101 54.971C56.9876 55.1173 57.2876 55.1923 57.5876 55.1923C57.9889 55.1923 58.3901 55.0648 58.7239 54.806C59.3051 54.3635 59.5789 53.6248 59.4214 52.9085Z" fill="#FFE06E"/>
<path d="M46.3636 23.8162C46.1161 23.0325 45.3924 22.5 44.5711 22.5H27.4561C24.3436 28.1363 19.7386 33.525 17.8449 35.6325C16.7799 36.8175 15.2536 37.5 13.6599 37.5C12.0661 37.5 10.5399 36.8175 9.47486 35.6325C8.74361 34.8187 7.61111 33.5175 6.31361 31.905L1.77611 52.3275C1.61111 53.0813 1.92236 53.8575 2.55986 54.2888C2.87486 54.5025 3.24236 54.6075 3.60611 54.6075C3.98111 54.6075 4.35236 54.4987 4.67486 54.2737L45.6361 25.9125C46.3149 25.4512 46.6036 24.6 46.3636 23.8162Z" fill="#FFE06E"/>
<path d="M13.6602 0C6.42266 0 0.535156 5.8875 0.535156 13.125C0.535156 19.86 11.0652 31.7887 12.2652 33.1275C12.6214 33.5212 13.1277 33.75 13.6602 33.75C14.1927 33.75 14.6989 33.5212 15.0552 33.1275C16.2552 31.7887 26.7852 19.86 26.7852 13.125C26.7852 5.8875 20.8977 0 13.6602 0ZM13.6602 18.75C10.5552 18.75 8.03516 16.23 8.03516 13.125C8.03516 10.02 10.5552 7.5 13.6602 7.5C16.7652 7.5 19.2852 10.02 19.2852 13.125C19.2852 16.23 16.7652 18.75 13.6602 18.75Z" fill="#FFE06E"/>
</g>
<defs>
<clipPath id="clip0_2102_4636">
<rect width="60" height="60" fill="white"/>
</clipPath>
</defs>
</svg>
