<svg width="20" height="20" viewBox="0 0 20 20" fill="none" xmlns="http://www.w3.org/2000/svg">
<path d="M19.9317 5.5982C17.7913 8.26455 19.7221 11.3949 15.7491 14.5951C15.0854 15.1637 14.2674 15.523 13.3986 15.6275C12.5298 15.732 11.6495 15.5769 10.8693 15.1819C10.7996 15.1417 10.7463 15.0784 10.7188 15.0029C10.6914 14.9274 10.6916 14.8447 10.7193 14.7694C11.4431 12.9105 12.4345 11.1667 13.6624 9.59274C13.7139 9.5326 13.7404 9.45508 13.7364 9.3761C13.7323 9.29712 13.6981 9.22267 13.6407 9.16807C13.5834 9.11346 13.5072 9.08283 13.4278 9.08248C13.3485 9.08212 13.2721 9.11207 13.2142 9.16617C11.4558 10.6229 10.1911 12.8661 9.7477 13.7261C9.7289 13.7631 9.70049 13.7943 9.66543 13.8166C9.63038 13.8389 9.58997 13.8513 9.54842 13.8527C9.50688 13.8541 9.46573 13.8443 9.42928 13.8244C9.39283 13.8045 9.3624 13.7752 9.34119 13.7396C9.32205 13.711 9.30533 13.6808 9.2912 13.6495C8.86728 12.9297 8.65052 12.1074 8.66472 11.2729V11.2695C8.67816 10.4998 8.86022 9.74236 9.19815 9.05021C9.53609 8.35806 10.0217 7.74793 10.6211 7.26257C14.0776 4.49241 18.4371 4.9458 19.8069 5.17919C19.8499 5.18976 19.8895 5.21137 19.9215 5.24187C19.9536 5.27237 19.9771 5.3107 19.9897 5.35305C20.0023 5.39541 20.0036 5.44032 19.9934 5.48332C19.9833 5.52633 19.962 5.56593 19.9317 5.5982Z" fill="#39CE54"/>
<path d="M8.62989 13.6654C8.59072 13.9248 8.51444 14.1772 8.40336 14.415C8.38672 14.4498 8.36175 14.48 8.33067 14.5028C8.29958 14.5257 8.26332 14.5406 8.2251 14.5462C8.18687 14.5518 8.14785 14.5479 8.11147 14.535C8.0751 14.522 8.04248 14.5003 8.01651 14.4718C7.09364 13.4391 5.99882 12.5731 4.78032 11.912C4.71787 11.8787 4.64533 11.8694 4.5765 11.886C4.50766 11.9026 4.44734 11.9438 4.40701 12.0018C4.36669 12.0599 4.34917 12.1307 4.3578 12.2007C4.36643 12.2708 4.4006 12.3353 4.45381 12.3819C5.48193 13.2685 6.42065 14.2531 7.25659 15.3218C7.27759 15.35 7.29219 15.3825 7.2994 15.4169C7.30661 15.4512 7.30625 15.4868 7.29835 15.521C7.29045 15.5553 7.2752 15.5874 7.25365 15.6152C7.23209 15.643 7.20475 15.6658 7.1735 15.682C6.79247 15.8695 6.37678 15.9766 5.95237 15.9966C5.52797 16.0167 5.10397 15.9492 4.70688 15.7986C1.48311 14.635 2.03063 12.2385 0.0942974 11.0145C0.0674041 11.0009 0.0445675 10.9804 0.0280689 10.9553C0.0115703 10.9301 0.00198729 10.901 0.000277253 10.871C-0.00143279 10.841 0.00479 10.811 0.018324 10.7842C0.0318579 10.7573 0.0522292 10.7344 0.0774028 10.7178C0.89731 10.2744 3.57046 9.04454 6.36669 10.051C7.0194 10.2875 7.58756 10.7108 7.99996 11.2678V11.2713C7.98604 12.1058 8.20291 12.928 8.62678 13.6478L8.62989 13.6654Z" fill="#39CE54"/>
</svg>
