<svg width="45" height="45" viewBox="0 0 45 45" fill="none" xmlns="http://www.w3.org/2000/svg">
<path fill-rule="evenodd" clip-rule="evenodd" d="M24.2742 0.753533C27.8385 3.36915 27.0303 3.08059 31.4753 3.32294C32.2963 3.36022 33.082 3.66093 33.7115 4.17879C34.341 4.69665 34.7796 5.40297 34.9596 6.18906C35.975 10.4385 35.5448 9.70824 38.7912 12.6953C39.3956 13.2412 39.8003 13.9666 39.943 14.76C40.0857 15.5534 39.9585 16.3708 39.581 17.0864C37.5727 20.9815 37.7219 20.1511 38.2503 24.4848C38.3554 25.2838 38.1897 26.0946 37.7788 26.7923C37.3679 27.49 36.7345 28.036 35.9761 28.3463C32.1413 29.9563 32.4926 29.597 30.1056 33.1752C29.6622 33.8535 29.0037 34.3702 28.2315 34.6458C27.4592 34.9213 26.616 34.9405 25.8316 34.7003C21.5698 33.4376 22.4299 33.4376 18.1681 34.7003C17.3837 34.9405 16.5405 34.9213 15.7682 34.6458C14.996 34.3702 14.3375 33.8536 13.8941 33.1752C11.4573 29.5225 12.1162 30.0645 8.02351 28.3463C7.26511 28.036 6.63173 27.49 6.22083 26.7923C5.80993 26.0946 5.64429 25.2838 5.74939 24.4848C6.27823 20.151 6.42742 20.9813 4.41896 17.0863C4.04143 16.3707 3.91422 15.5533 4.05692 14.7599C4.19961 13.9665 4.60429 13.2411 5.20868 12.6952C8.455 9.70824 8.02495 10.4386 9.04046 6.18896C9.22047 5.40288 9.65898 4.69656 10.2885 4.1787C10.9181 3.66084 11.7038 3.36013 12.5247 3.32284C16.97 3.0805 16.1617 3.36887 19.7258 0.753439C20.3791 0.264724 21.1781 0 21.9999 0C22.8217 0 23.6207 0.264724 24.274 0.753439L24.2742 0.753533ZM22.4783 25.156L28.584 21.7003C28.7309 21.6197 28.8529 21.5018 28.9371 21.3589C29.0213 21.2159 29.0645 21.0534 29.0621 20.8884V13.9769C29.0645 13.8118 29.0213 13.6493 28.9371 13.5064C28.8529 13.3635 28.7309 13.2455 28.584 13.165L26.5552 12.0166L19.4931 16.0137V18.6744C19.4933 18.7238 19.4802 18.7725 19.4551 18.8153C19.43 18.8582 19.3937 18.8938 19.35 18.9186C19.3064 18.9433 19.2568 18.9563 19.2063 18.9562C19.1559 18.9561 19.1064 18.943 19.0628 18.9181L17.7798 18.192C17.6769 18.1357 17.5915 18.0531 17.5326 17.9531C17.4737 17.853 17.4434 17.7392 17.4451 17.6237V14.8545L24.507 10.8575L22.4783 9.70927C22.3337 9.62476 22.1685 9.58014 22.0001 9.58014C21.8318 9.58014 21.6666 9.62476 21.522 9.70927L15.4162 13.165C15.2693 13.2455 15.1473 13.3635 15.0631 13.5064C14.9789 13.6493 14.9357 13.8118 14.9381 13.9769V20.8884C14.9358 21.0534 14.979 21.2159 15.0631 21.3589C15.1473 21.5018 15.2693 21.6197 15.4162 21.7003L21.522 25.156C21.6666 25.2405 21.8318 25.2851 22.0001 25.2851C22.1685 25.2851 22.3337 25.2405 22.4783 25.156ZM26.4937 36.3444L29.4623 43.1013L32.7831 37.8551L38.9531 39.0938L35.1057 30.3366C33.1051 31.175 33.1867 31.2974 31.3864 33.9961C30.8654 34.7863 30.1346 35.4224 29.2726 35.8361C28.4106 36.2498 27.4499 36.4255 26.4937 36.3443V36.3444ZM14.4158 45L18.611 36.136C17.5101 36.4683 16.3286 36.4391 15.2461 36.0529C14.1636 35.6667 13.2393 34.9445 12.6138 33.9962C11.7995 32.7755 11.1889 31.3602 9.79643 30.7248L5.04726 40.7244L11.2511 39.6618L14.4158 45ZM22.0001 6.69924C19.8346 6.69924 17.7178 7.32874 15.9173 8.50813C14.1168 9.68752 12.7134 11.3638 11.8848 13.3251C11.0561 15.2863 10.8392 17.4444 11.2617 19.5265C11.6841 21.6086 12.7269 23.5211 14.2581 25.0221C15.7893 26.5232 17.7402 27.5455 19.864 27.9597C21.9879 28.3738 24.1893 28.1613 26.19 27.3489C28.1906 26.5365 29.9006 25.1608 31.1037 23.3958C32.3067 21.6307 32.9489 19.5555 32.9489 17.4327C32.9489 14.586 31.7954 11.8559 29.7421 9.84302C27.6888 7.83012 24.9039 6.69927 22.0001 6.69924Z" fill="#196164"/>
</svg>
