<svg width="114" height="50" viewBox="0 0 114 50" fill="none" xmlns="http://www.w3.org/2000/svg">
<g clip-path="url(#clip0_2102_4848)">
<path d="M43.5386 33.0982C43.3853 33.1697 43.2271 33.2319 43.0796 33.3136C41.1641 34.3749 39.2692 35.4755 37.3289 36.4896C36.11 37.1268 34.8399 37.6766 33.5626 38.1925C31.362 39.0813 29.1573 39.9674 26.9184 40.7538C24.314 41.6682 21.6503 42.3919 18.9309 42.9113C16.5445 43.3671 14.1459 43.6866 11.7127 43.6522C9.74779 43.6244 7.8239 43.319 6.01722 42.5212C3.75464 41.5216 1.95509 39.9855 0.828478 37.7742C-0.00400287 36.1392 -0.14884 34.3846 0.128356 32.5868C0.454575 30.4712 1.25274 28.5286 2.32454 26.6853C3.91106 23.9572 6.00118 21.6272 8.23034 19.4154C11.6917 15.9808 15.5457 13.0387 19.8392 10.6994C22.403 9.30273 25.0658 8.09667 27.992 7.60815C29.2474 7.39854 30.5068 7.27145 31.7751 7.50357C33.1446 7.75422 33.8799 8.65535 34.2284 9.91215C34.585 11.1972 34.244 12.4187 33.7079 13.5714C32.7743 15.5793 31.325 17.1582 29.4181 18.3144C28.8668 18.6485 28.4688 18.6489 28.1185 18.2901C27.9732 18.1414 27.86 17.9133 27.8338 17.7081C27.7838 17.3202 28.0873 17.081 28.5125 17.0761C28.7291 17.0735 28.9876 17.0823 29.1547 16.9755C31.173 15.6847 32.6 13.9416 33.1745 11.5979C33.2894 11.1288 33.2845 10.6138 33.2427 10.1279C33.1647 9.22241 32.6031 8.55914 31.6989 8.39719C31.0402 8.27936 30.3455 8.25862 29.677 8.31511C27.1876 8.52472 24.8505 9.26875 22.6031 10.3407C19.9796 11.5917 17.5311 13.1173 15.1554 14.7739C13.5033 15.9257 11.944 17.1847 10.4426 18.5187C8.83821 19.9445 7.36265 21.4922 6.02123 23.1625C5.3171 24.0393 4.5996 24.9113 3.96722 25.8385C2.48364 28.0149 1.33385 30.3498 0.980446 32.9839C0.59763 35.8391 1.49696 38.2521 3.71899 40.147C5.39108 41.5728 7.38092 42.259 9.52987 42.5591C11.5438 42.8407 13.551 42.7136 15.5605 42.4748C20.8459 41.8473 25.8707 40.2948 30.7782 38.3165C30.9163 38.2609 31.0487 38.1899 31.1494 38.0323C30.7064 38.1775 30.2577 38.3068 29.8223 38.4714C27.7237 39.2644 25.5823 39.9264 23.3933 40.4175C21.6236 40.8147 19.8343 41.0967 18.0035 40.9806C16.7446 40.9007 15.6139 40.5058 14.6219 39.7295C13.3616 38.7433 12.9445 37.2186 13.4779 35.5355C13.9472 34.0549 14.7681 32.7686 15.7472 31.5784C18.6052 28.1028 22.1205 25.4139 26.0329 23.2075C29.5847 21.2044 33.4098 19.8991 37.3324 18.8285C39.546 18.2244 41.78 17.7566 44.076 17.6529C45.5472 17.5863 47.0361 17.5382 48.4537 18.0249C49.2394 18.2945 50.0117 18.6383 50.7341 19.0461C53.0136 20.3329 54.3983 24.0896 51.8924 26.8698C51.2916 27.5366 50.6013 28.1244 49.9498 28.7453C49.7884 28.8993 49.6164 29.0423 49.4814 29.1614C49.5407 29.4359 49.6748 29.6901 49.6124 29.8812C49.5585 30.0467 49.2742 30.1318 49.1048 30.2686C48.722 30.578 48.3472 30.8975 47.9925 31.2532C48.283 31.2452 48.4755 31.0325 48.7082 30.9089C49.5652 30.4544 50.4204 29.9964 51.2787 29.5431C51.3776 29.4906 51.4873 29.4509 51.5965 29.4253C52.1103 29.304 52.5087 29.6265 52.465 30.1521C52.4454 30.3895 52.3536 30.6212 52.2618 30.9862C52.5515 30.8158 52.7551 30.7011 52.9535 30.578C53.6251 30.1605 54.298 29.7448 54.9643 29.319C55.6742 28.8653 55.9937 28.9456 56.4166 29.6998C56.4478 29.755 56.4964 29.8009 56.5958 29.9235C57.2095 29.616 57.8396 29.3225 58.4475 28.9889C59.1864 28.5833 59.3098 28.5873 59.9435 29.2554C60.2796 29.0864 60.6316 28.8975 60.9935 28.7298C61.6696 28.4174 62.3487 28.112 63.0333 27.8172C63.1964 27.7471 63.3822 27.7202 63.5609 27.6937C64.1817 27.6028 64.4816 27.7621 64.7628 28.323C64.831 28.4593 64.8881 28.601 64.975 28.7951C65.4001 28.6323 65.8008 28.4893 66.1934 28.3269C68.0322 27.5661 69.8531 26.7595 71.7115 26.0485C73.0618 25.5322 74.454 25.1187 75.8405 24.7013C76.4764 24.5097 76.9528 24.1898 77.3521 23.6501C79.3879 20.8995 81.4352 18.156 83.5186 15.4403C86.6306 11.3839 89.8273 7.39369 93.3921 3.71064C94.4416 2.62638 95.5281 1.57698 96.5986 0.513021C96.6623 0.449474 96.734 0.39343 96.8067 0.339592C97.2889 -0.0205044 97.7479 -0.0999374 98.0559 0.12071C98.3438 0.327236 98.5372 0.988736 98.3647 1.42562C98.219 1.79542 97.9872 2.13345 97.7804 2.47811C97.5385 2.88057 97.2996 3.28612 97.0295 3.6696C95.7728 5.45111 94.5049 7.22467 93.2428 9.00265C91.6799 11.2043 90.1424 13.4249 88.5483 15.604C87.5937 16.9089 86.5682 18.1644 85.5428 19.4168C84.688 20.46 83.7865 21.4657 82.9076 22.4895C82.8657 22.538 82.8426 22.6029 82.7392 22.7891C83.0841 22.6867 83.3225 22.6033 83.5668 22.5455C84.0494 22.4308 84.5312 22.2834 85.0218 22.2362C85.5646 22.1841 85.8998 22.5702 85.7469 23.0866C85.6435 23.4374 85.4251 23.7816 85.1782 24.0592C84.4024 24.9312 83.589 25.7701 82.7245 26.6919C82.9246 26.6271 83.06 26.594 83.1862 26.5401C84.4331 26.0079 85.6627 25.4307 86.9314 24.9559C87.4898 24.7472 88.1245 24.6951 88.7297 24.662C89.4284 24.6236 89.7885 24.9678 89.797 25.6708C89.8041 26.2683 90.1094 26.5865 90.621 26.7652C91.4481 27.0547 92.3136 27.0834 93.1733 27.0256C96.0887 26.8287 99.0033 26.6178 101.916 26.3905C104.29 26.2056 106.666 26.1033 109.046 26.1743C110.495 26.2175 111.942 26.3177 113.39 26.4029C113.595 26.4148 113.798 26.4889 114.001 26.5344C114 26.586 113.999 26.6377 113.998 26.6893C113.861 26.7325 113.727 26.8031 113.588 26.8133C113.272 26.8367 112.954 26.827 112.637 26.8367C111.12 26.8835 109.604 26.921 108.088 26.9836C106.8 27.037 105.511 27.0904 104.227 27.1972C102.083 27.3755 99.9445 27.6085 97.8014 27.7956C96.2452 27.9315 94.6867 28.052 93.1265 28.1341C92.4972 28.1672 91.8541 28.1297 91.2302 28.037C89.9262 27.8437 88.9044 27.2806 88.6909 25.8124C88.013 25.6681 87.4105 25.9047 86.8316 26.1231C85.1364 26.7617 83.507 27.5414 81.9651 28.4942C81.7552 28.6239 81.5323 28.7444 81.2997 28.8225C80.9098 28.9536 80.58 28.8305 80.3429 28.5105C80.1036 28.187 80.0871 27.8684 80.3884 27.5269C80.7747 27.0887 81.2133 26.6955 81.6268 26.2807C82.4067 25.4982 83.1875 24.7167 83.9612 23.9281C84.098 23.7887 84.2018 23.6183 84.3921 23.3685C84.1555 23.3972 84.0289 23.3933 83.9157 23.4294C82.0471 24.0327 80.3255 24.9069 78.7733 26.1121C78.1333 26.609 77.4377 27.0348 76.7763 27.5048C76.0784 28.0004 75.3877 28.5061 74.6991 29.014C73.7717 29.6976 73.1986 30.6843 72.5163 31.5718C70.9414 33.6203 69.4074 35.6992 67.8428 37.7556C66.4389 39.6002 65.0302 41.4418 63.5979 43.2648C62.6402 44.4836 61.6076 45.6455 60.6655 46.8759C59.952 47.8079 59.2096 48.7059 58.3454 49.5029C58.197 49.6397 58.0339 49.7628 57.865 49.8745C57.6132 50.0408 57.3574 50.0448 57.111 49.8498C56.8583 49.6499 56.8538 49.3948 56.9376 49.1185C56.9443 49.0969 56.9523 49.0762 56.9617 49.0559C57.7104 47.4685 58.5571 45.9456 59.8816 44.6495C60.0327 44.9805 59.8932 45.2131 59.7809 45.4355C59.3678 46.2554 58.9431 47.0696 58.5843 47.9584C58.7599 47.7805 58.9515 47.6159 59.1088 47.4235C60.6062 45.593 62.1317 43.7837 63.5823 41.9175C65.4754 39.482 67.3084 37.0001 69.1659 34.5373C69.284 34.3811 69.3896 34.2156 69.4747 34.0307C68.7243 34.5448 67.9595 35.0161 67.3828 35.7508C66.8877 36.3819 66.2785 36.9247 65.6747 37.5535C65.5236 37.2292 65.6947 37.0694 65.828 36.9132C66.8672 35.6988 67.8726 34.4525 68.9649 33.2866C70.0109 32.1697 71.1272 31.1142 72.2534 30.0745C72.9901 29.3949 73.5895 28.6138 74.1893 27.8261C74.4349 27.5035 74.6822 27.1818 74.9148 26.8504C75.0369 26.6765 75.1296 26.4828 75.303 26.18C75.0111 26.237 74.8609 26.2511 74.7205 26.2957C73.0596 26.8204 71.3884 27.3164 69.7453 27.8914C68.895 28.1893 68.0995 28.6389 67.2714 29.0026C66.4644 29.3569 65.6497 29.6941 64.8333 30.0259C64.6688 30.0926 64.4812 30.1217 64.3025 30.1314C63.9183 30.153 63.5979 29.8754 63.5729 29.4924C63.5587 29.2735 63.5948 29.052 63.6153 28.7219C63.2111 28.8591 62.839 28.9359 62.5154 29.1036C61.5136 29.6239 60.53 30.179 59.5398 30.7214C59.4208 30.7867 59.308 30.8635 59.1868 30.9235C58.5642 31.2324 58.4466 31.2134 57.9341 30.7439C57.869 30.6843 57.7982 30.6318 57.7367 30.582C57.0731 30.8622 56.4135 31.0987 55.7941 31.4138C55.1933 31.7192 54.6478 31.8361 54.1376 31.258C53.3483 31.7103 52.605 32.1353 51.8634 32.5625C51.7266 32.6415 51.596 32.7315 51.461 32.8136C51.1481 33.0038 50.8424 33.0775 50.526 32.8052C50.1726 32.5011 50.063 32.1512 50.235 31.7271C50.3156 31.5281 50.4248 31.3405 50.5728 31.0444C49.8981 31.4504 49.3089 31.7743 48.7523 32.1459C47.6462 32.8842 46.5624 33.6547 45.4607 34.3996C45.1626 34.6013 44.8421 34.7747 44.5177 34.9318C44.0564 35.1551 43.6473 35.0633 43.2859 34.6939C42.9526 34.3533 42.9147 34.0051 43.2133 33.6207C43.3331 33.4663 43.4673 33.3224 43.5952 33.1737C43.576 33.1494 43.5573 33.1238 43.5386 33.0982ZM18.775 40.0835C19.6297 39.9921 20.4903 39.9347 21.3388 39.8037C23.855 39.4149 26.2802 38.6819 28.6796 37.854C32.6187 36.4957 36.4915 34.9719 40.3036 33.2977C41.629 32.7156 42.9944 32.2041 44.2597 31.5131C46.0449 30.5378 47.7211 29.3759 49.292 28.0811C50.2158 27.3195 51.0848 26.5035 51.748 25.4907C52.7672 23.9338 52.5698 21.8002 51.2783 20.4551C50.1481 19.2782 48.6801 18.8462 47.1363 18.6374C44.8689 18.3303 42.6219 18.5818 40.3753 18.9556C38.9755 19.1886 37.6524 19.8126 36.1969 19.7473C36.1109 19.7433 36.0226 19.7923 35.9353 19.8157C33.8336 20.3819 31.7805 21.0844 29.8004 21.9869C29.3748 22.1806 28.902 22.3019 28.6395 22.7538C28.5798 22.8562 28.422 22.9096 28.3012 22.9696C26.0921 24.0759 23.9994 25.3583 22.0367 26.861C19.8931 28.5017 17.9344 30.3172 16.2824 32.4473C15.4655 33.5002 14.7507 34.6092 14.334 35.8885C13.7645 37.6369 14.4285 39.0116 16.1634 39.6528C17.0066 39.9643 17.8796 40.0473 18.775 40.0835ZM77.927 25.0887C77.9876 25.0786 78.0433 25.0861 78.0723 25.0622C79.444 23.9281 80.8933 22.8717 82.1647 21.6365C84.3979 19.4675 86.3744 17.0625 88.2332 14.5718C89.9017 12.3357 91.5328 10.0719 93.1474 7.79659C94.4487 5.96301 95.7032 4.09677 96.9689 2.23848C97.1498 1.97282 97.2755 1.66965 97.4266 1.38414C97.3829 1.3506 97.3392 1.31706 97.296 1.28352C97.1329 1.41812 96.9582 1.54168 96.8089 1.68951C96.3615 2.13345 95.923 2.58622 95.4818 3.03678C94.0031 4.54822 92.4829 6.0217 91.0586 7.58168C89.5568 9.22682 88.1423 10.951 86.6993 12.6482C86.263 13.1614 85.8748 13.7148 85.4318 14.2218C85.1404 14.555 84.7388 14.7999 84.4759 15.1508C83.1429 16.9296 81.8358 18.7279 80.5278 20.5248C80.2916 20.8492 80.1027 21.2075 79.8714 21.5363C79.2127 22.4727 78.5433 23.4016 77.878 24.3332C77.6855 24.6028 77.6387 24.8588 77.927 25.0887Z" fill="#042A2D" stroke="#042A2D"/>
</g>
<defs>
<clipPath id="clip0_2102_4848">
<rect width="114" height="50" fill="white"/>
</clipPath>
</defs>
</svg>
