<svg width="50" height="50" viewBox="0 0 50 50" fill="none" xmlns="http://www.w3.org/2000/svg">
<path fill-rule="evenodd" clip-rule="evenodd" d="M39.6744 29.0426L32.2952 41.3221C32.1988 41.4852 32.1526 41.6463 32.1526 41.8338V48.9844C32.1526 49.5439 31.6826 50 31.1081 50H18.8908C18.3153 50 17.8462 49.543 17.8462 48.9844V41.8338C17.8462 41.6453 17.801 41.4852 17.7036 41.3221L10.3265 29.0426C9.45767 27.6001 9.96488 25.7319 11.4453 24.8901C12.9288 24.0483 14.8502 24.5386 15.716 25.981L20.7208 34.3132C20.9628 34.7145 21.4349 34.903 21.8969 34.781C24.0583 34.2106 25.9395 34.2106 28.101 34.781C28.565 34.903 29.035 34.7145 29.2771 34.3132L34.2819 25.981C35.1477 24.5386 37.069 24.0483 38.5525 24.8901C40.036 25.731 40.5402 27.6001 39.6744 29.0426ZM19.9072 26.8023C19.9072 29.5289 22.1962 31.7545 25.0004 31.7545C27.8047 31.7545 30.0906 29.5289 30.0906 26.8023C30.0906 24.0757 27.8047 21.853 25.0004 21.853C22.1962 21.853 19.9072 24.0757 19.9072 26.8023ZM17.7157 7.08412C17.7157 3.18073 20.9869 0 25.0004 0C29.0119 0 32.2832 3.18073 32.2832 7.08412C32.2832 10.9846 29.0119 14.1653 25.0004 14.1653C20.9869 14.1653 17.7157 10.9846 17.7157 7.08412ZM20.9699 6.84095L23.8223 9.61445C24.1467 9.92988 24.671 9.92988 24.9954 9.61445L29.03 5.69152C29.3544 5.37608 29.3544 4.86631 29.03 4.55087C28.7086 4.23543 28.1813 4.23543 27.8569 4.55087L24.4089 7.90347L22.143 5.70031C21.8186 5.3878 21.2943 5.3878 20.9699 5.70031C20.6444 6.01574 20.6444 6.52747 20.9699 6.84095ZM44.9725 12.4211C44.8952 12.1965 44.6883 12.05 44.4432 12.05L41.5596 12.0559C41.3146 12.0559 41.1067 11.9094 41.0333 11.6819L40.1455 9.01287C40.0711 8.7863 39.8632 8.63884 39.6192 8.63884C39.3751 8.63884 39.1692 8.78533 39.0929 9.01287L38.207 11.6819C38.1297 11.9084 37.9228 12.0559 37.6777 12.0559L34.7931 12.05C34.5481 12.05 34.3401 12.1965 34.2668 12.4211C34.1895 12.6477 34.2698 12.8831 34.4687 13.0247L36.8059 14.6692C37.0028 14.8079 37.0821 15.0452 37.0048 15.2728L36.1079 17.9388C36.0335 18.1654 36.1139 18.4007 36.3097 18.5424C36.5066 18.681 36.7657 18.681 36.9616 18.5424L39.2937 16.887C39.4906 16.7484 39.7467 16.7484 39.9456 16.887L42.2778 18.5424C42.4746 18.681 42.7307 18.681 42.9266 18.5424C43.1255 18.4007 43.2058 18.1664 43.1285 17.9388L42.2316 15.2728C42.1542 15.0462 42.2346 14.8079 42.4334 14.6692L44.7706 13.0247C44.9675 12.884 45.0468 12.6487 44.9725 12.4211ZM10.7081 16.887L13.0373 18.5424C13.2361 18.681 13.4933 18.681 13.6891 18.5424C13.888 18.4007 13.9653 18.1664 13.891 17.9388L12.9941 15.2728C12.9168 15.0462 12.9971 14.8079 13.196 14.6692L15.5332 13.0247C15.73 12.8831 15.8094 12.6487 15.735 12.4211C15.6577 12.1965 15.4508 12.05 15.2057 12.05L12.3212 12.0559C12.0761 12.0559 11.8682 11.9094 11.7918 11.6819L10.908 9.01385C10.8337 8.78728 10.6258 8.63982 10.3817 8.63982C10.1376 8.63982 9.92872 8.7863 9.8554 9.01385L8.96954 11.6828C8.8922 11.9094 8.6853 12.0569 8.44023 12.0569L5.55666 12.051C5.31159 12.051 5.10369 12.1975 5.02736 12.4221C4.95303 12.6487 5.03338 12.884 5.22924 13.0256L7.56642 14.6702C7.76529 14.8089 7.84564 15.0462 7.76831 15.2737L6.87139 17.9398C6.79707 18.1664 6.87441 18.4017 7.07327 18.5433C7.27013 18.682 7.52625 18.682 7.72512 18.5433L10.0543 16.888C10.2531 16.7484 10.5093 16.7484 10.7081 16.887Z" fill="#6060F6"/>
</svg>
