<svg width="50" height="50" viewBox="0 0 50 50" fill="none" xmlns="http://www.w3.org/2000/svg">
<path d="M20.3442 13.797L17.8126 21.3052L24.4426 16.6636C24.7758 16.4329 25.2246 16.4329 25.5574 16.6636L32.1874 21.3052L29.6562 13.797C29.5284 13.4218 29.6654 13.0104 29.996 12.7776L36.626 8.13603H28.4284C28.021 8.13354 27.6601 7.88119 27.5312 7.50818L25.0004 0L22.4692 7.50818C22.3399 7.88119 21.9794 8.13354 21.5716 8.13603H13.374L20.004 12.7776C20.335 13.0104 20.4717 13.4218 20.3442 13.797Z" fill="#6060F6"/>
<path d="M8 47.2698H42V50.0001H8V47.2698Z" fill="#6060F6"/>
<path d="M33.9817 24.5993C33.7815 24.6011 33.5861 24.5402 33.4247 24.4267L27.8429 20.5133L14.6113 29.5413V45.4496H35.3893V15.3531L32.7732 17.1459L34.8792 23.4077C34.9727 23.6846 34.9228 23.9878 34.7455 24.2238C34.5682 24.4598 34.2842 24.5993 33.9817 24.5993Z" fill="#6060F6"/>
</svg>
