<svg width="50" height="50" viewBox="0 0 50 50" fill="none" xmlns="http://www.w3.org/2000/svg">
<path fill-rule="evenodd" clip-rule="evenodd" d="M18.9505 19.5698L18.9474 19.5839C15.8293 19.747 14.2476 13.0024 18.0406 14.4117C18.6589 11.6649 19.3453 9.7307 20.1 8.60837C24.5367 14.0887 28.7301 16.9082 32.6806 17.0672C32.8226 16.243 32.9183 15.3581 32.9599 14.4117C36.7528 13.0024 35.1711 19.747 32.053 19.5839L32.0505 19.5702C29.3662 27.4115 21.6367 27.4099 18.9505 19.5698ZM25.5002 50C18.5261 50 12.5418 48.2999 11.2606 45.9532L11.9942 37.2265C12.0318 36.7684 11.691 36.3661 11.2326 36.3285C10.7742 36.2908 10.3721 36.6314 10.3342 37.0899L9.57429 46.1306L9.65302 46.1323C7.69677 46.1045 5.82226 45.1885 4.6001 43.5871C5.44802 39.0493 6.16799 33.8713 9.32389 30.8745C11.0991 29.1889 13.9713 28.3732 16.6713 27.7408V33.698C15.6901 33.7623 14.8034 34.1896 14.1449 34.8468L14.1432 34.8485L14.1414 34.8503C13.4268 35.5661 12.9842 36.5519 12.9842 37.6351V40.3411C12.9842 40.8015 13.3571 41.1744 13.8173 41.1744C14.2775 41.1744 14.6505 40.8014 14.6505 40.3411V37.6351C14.6505 37.0058 14.9053 36.4361 15.3166 36.0251L15.3198 36.0221C15.7308 35.6111 16.3004 35.3559 16.9298 35.3559H18.0794C18.7086 35.3559 19.2784 35.6111 19.6892 36.0221V36.0251C20.1024 36.4382 20.3586 37.0083 20.3586 37.6351V40.2737C20.3586 40.7337 20.7317 41.1071 21.1918 41.1071C21.6519 41.1071 22.0251 40.7337 22.0251 40.2737V37.6351C22.0251 36.5482 21.582 35.5614 20.8677 34.8469L20.8659 34.8486C20.2072 34.1905 19.3197 33.7624 18.3377 33.6981V27.36C18.7848 27.2575 19.2186 27.1566 19.6324 27.0544L25.5002 43.5795V50ZM31.3679 27.0542C31.7818 27.1571 32.2156 27.2581 32.6625 27.3598V34.1873C32.464 34.2827 32.2842 34.4107 32.13 34.5648L32.1266 34.5683C31.7765 34.9189 31.5595 35.402 31.5595 35.9342C31.5595 36.4665 31.7763 36.9496 32.1266 37.3002L32.13 37.303C32.4802 37.653 32.9636 37.8702 33.4957 37.8702C34.0282 37.8702 34.5114 37.6536 34.8618 37.303L34.865 37.3002C35.2153 36.9496 35.4324 36.4665 35.4324 35.9342C35.4324 35.3993 35.2153 34.9154 34.865 34.5648H34.8616C34.7073 34.4107 34.5273 34.2827 34.3288 34.1873V27.7408C37.0289 28.3732 39.8997 29.1895 41.6767 30.8745C44.8324 33.8713 45.5525 39.0493 46.4003 43.5871C45.195 45.1666 43.3555 46.079 41.4288 46.1307L40.6688 37.09C40.6311 36.6315 40.2289 36.2909 39.7706 36.3286C39.3121 36.3662 38.9711 36.7684 39.009 37.2266L39.7425 45.9538L39.744 45.9542L39.7398 45.9533C38.5623 48.1104 33.4092 49.7213 27.1665 49.9675V43.2921L25.6346 38.9777L31.3679 27.0542ZM33.5963 25.8574C37.3379 24.0881 39.4376 21.1819 38.9022 17.0888C38.098 10.13 33.0632 -0.00669922 25.5002 3.32217e-06C17.9373 -0.00669922 12.9024 10.13 12.0982 17.0888C11.56 21.2001 13.76 24.0701 17.5649 25.8196L18.3378 25.6386V25.6496C18.6368 25.5806 18.9356 25.5098 19.2336 25.436L19.7101 25.3186L19.8015 25.2024C19.8845 25.0978 19.9336 24.8376 19.9625 24.5719C21.413 26.1053 23.3235 27.1186 25.5029 27.1182C27.6576 27.1177 29.5816 26.117 31.0387 24.5744C31.0677 24.8414 31.1171 25.1016 31.1997 25.2038L31.292 25.3178L31.7708 25.4372C32.0671 25.511 32.3648 25.5814 32.6626 25.6501V25.6386L33.5963 25.8574Z" fill="#6060F6"/>
</svg>
