<svg width="50" height="50" viewBox="0 0 50 50" fill="none" xmlns="http://www.w3.org/2000/svg">
<g clip-path="url(#clip0_2102_2172)">
<path d="M49.0255 22.851L46.6973 21.0602C45.7035 20.2543 45.3452 18.9112 45.793 17.7382L46.8766 15.052C47.5928 13.3506 46.5093 11.3807 44.6289 11.2016L41.7636 10.7539C40.5101 10.5749 39.525 9.58989 39.346 8.33634L38.9879 5.471C38.7193 3.5906 36.8388 2.50718 35.1376 3.2235L32.4514 4.30697C31.2783 4.75468 29.9352 4.39649 29.1294 3.41156L27.3386 1.07448C26.1745 -0.358161 24.0256 -0.358161 22.8615 1.07448L21.0707 3.41156C20.2647 4.39649 18.9215 4.75468 17.7487 4.30697L15.0625 3.2235C13.361 2.50718 11.3912 3.5906 11.2121 5.471L10.6748 8.33634C10.4958 9.58989 9.51093 10.5749 8.25721 10.7539L5.39193 11.1121C3.51147 11.3807 2.42805 13.2611 3.14443 14.9624L4.22784 17.6486C4.67555 18.8216 4.31747 20.1647 3.32347 20.9706L0.995299 22.7615C-0.437235 23.9255 -0.437235 26.0745 0.995299 27.2385L3.32347 29.0294C4.31747 29.8352 4.67555 31.1783 4.22784 32.3513L3.14443 35.0376C2.42805 36.7389 3.51147 38.7088 5.39193 38.8879L8.25721 39.246C9.51093 39.4251 10.4958 40.4101 10.6748 41.6637L11.0331 44.529C11.3018 46.4094 13.182 47.4928 14.8834 46.7765L17.5697 45.693C18.7425 45.2453 20.0856 45.6035 20.8916 46.5885L22.6824 48.9255C23.8463 50.3582 25.9954 50.3582 27.1595 48.9255L28.9504 46.5885C29.7561 45.6035 31.0993 45.2453 32.2723 45.693L34.9586 46.7765C36.6598 47.4928 38.6296 46.4094 38.8087 44.529L39.167 41.6637C39.346 40.4101 40.3311 39.4251 41.5845 39.246L44.4498 38.8879C46.3303 38.6192 47.4137 36.7389 46.6973 35.0376L45.6139 32.3513C45.1662 31.1783 45.5243 29.8352 46.5093 29.0294L48.8465 27.2385C50.4583 26.164 50.4583 24.015 49.0255 22.851ZM25.0104 39.246C17.2114 39.246 10.854 32.8886 10.854 25.0895C10.854 17.2905 17.2114 10.933 25.0104 10.933C32.8094 10.933 39.167 17.2905 39.167 25.0895C39.167 32.8886 32.8094 39.246 25.0104 39.246Z" fill="#6060F6"/>
<path d="M29.5933 17.8595L22.7586 25.0803L20.4057 22.6345C19.1732 21.3534 17.1564 21.3534 15.9239 22.6345C14.6914 23.9157 14.6914 26.0121 15.9239 27.2932L20.5177 32.0683C21.0779 32.6506 21.9743 33 22.7586 33C23.5429 33 24.3272 32.6506 24.9995 32.0683L34.0751 22.6345C35.3076 21.3534 35.3076 19.257 34.0751 17.9759C32.8427 16.6948 30.8258 16.6948 29.5933 17.8595Z" fill="#6060F6"/>
</g>
<defs>
<clipPath id="clip0_2102_2172">
<rect width="50" height="50" fill="white"/>
</clipPath>
</defs>
</svg>
