<svg width="190" height="50" viewBox="0 0 190 50" fill="none" xmlns="http://www.w3.org/2000/svg">
<path fill-rule="evenodd" clip-rule="evenodd" d="M18.5469 10.7601C20.2153 10.7601 21.8466 10.9661 23.3945 11.3501V5.22526C23.3945 -0.590494 15.998 0.0182404 15.998 0.0182404V10.9193C16.8415 10.8162 17.6942 10.7601 18.5469 10.7601Z" fill="#FFE06E"/>
<path fill-rule="evenodd" clip-rule="evenodd" d="M28.6586 49.0354C30.5124 49.6629 32.4959 50 34.5535 50C44.7954 50 53.1002 41.6089 53.1002 31.2604C53.1002 20.9119 44.7954 12.5208 34.5535 12.5208C32.4959 12.5208 30.5124 12.8579 28.6586 13.4854C31.43 15.0962 33.7842 17.3438 35.5267 20.0316C41.227 20.5279 45.7038 25.3604 45.7038 31.2604C45.7038 37.1511 41.227 41.9928 35.5267 42.4892C35.2023 42.5173 34.8779 42.536 34.5535 42.536C34.1735 42.536 33.7935 42.5173 33.4227 42.4798C30.7348 42.2083 28.3342 40.972 26.5546 39.1178C26.1468 38.6963 25.7761 38.2374 25.4424 37.7598C24.1633 35.9242 23.4033 33.686 23.4033 31.2698C23.4033 28.8536 24.154 26.6153 25.4424 24.7797C23.7277 22.9161 21.2715 21.7548 18.5557 21.7548C17.6752 21.7548 16.8225 21.8765 16.0068 22.1107V31.2229V31.2698V31.3166C16.0161 34.7723 16.9522 38.0033 18.5743 40.7754C18.9172 41.3654 19.288 41.9273 19.6958 42.4705C20.7524 43.894 22.0037 45.1676 23.4125 46.2353C24.395 46.9845 25.4424 47.6307 26.5639 48.1738C27.2312 48.5016 27.9357 48.7826 28.6586 49.0354Z" fill="#FFE06E"/>
<path fill-rule="evenodd" clip-rule="evenodd" d="M7.39643 31.251C7.39643 26.5591 10.2327 22.5414 14.2645 20.8463C14.8207 20.6122 15.4046 20.4249 15.9978 20.2844C16.8134 20.0877 17.6662 19.9847 18.5467 19.9847C21.6888 19.9847 24.525 21.2958 26.5456 23.403C26.9534 23.8244 27.3242 24.2833 27.6578 24.7609C28.9369 26.5965 29.6969 28.8348 29.6969 31.251C29.6969 33.6672 28.9462 35.9055 27.6578 37.741C29.3725 39.5953 31.8195 40.7566 34.5259 40.766C36.1572 37.9752 37.0934 34.7255 37.0934 31.251C37.0934 27.7765 36.1572 24.5268 34.5259 21.736C34.183 21.146 33.8122 20.5841 33.4044 20.0409C31.6156 17.6247 29.2613 15.6487 26.5363 14.3375C25.5353 13.8506 24.4787 13.4572 23.385 13.1575C21.8371 12.7361 20.2151 12.5113 18.5374 12.5113C17.6754 12.5113 16.8227 12.5675 15.9885 12.6893C15.4046 12.7736 14.8207 12.8766 14.2553 13.0171C11.7249 13.6164 9.39847 14.7496 7.38716 16.2761V5.22526C7.39643 -0.590494 0 0.0182404 0 0.0182404V31.2042V31.251V31.2978C0.0185374 37.3945 2.91964 42.8169 7.39643 46.2259C10.5014 48.5859 14.3665 49.9906 18.5467 49.9906C20.6043 49.9906 22.5878 49.6535 24.4416 49.026C23.7186 48.6046 23.0235 48.1363 22.3469 47.6306C20.4468 46.179 18.834 44.4371 17.5642 42.4798C11.8732 41.9834 7.39643 37.1417 7.39643 31.251Z" fill="white"/>
<path d="M62.4705 36.1943C62.1559 36.1943 61.8985 36.092 61.6983 35.8876C61.4981 35.6831 61.3979 35.4202 61.3979 35.0989V6.61984C61.3979 6.29854 61.4981 6.03565 61.6983 5.83119C61.8985 5.62672 62.1559 5.52449 62.4705 5.52449H75.213C77.587 5.52449 79.532 5.875 81.048 6.57603C82.5639 7.27705 83.6794 8.27017 84.3945 9.55538C85.1381 10.8406 85.51 12.3449 85.51 14.0682C85.51 15.149 85.3098 16.0983 84.9093 16.9161C84.5375 17.734 84.0655 18.4058 83.4935 18.9316C82.95 19.4573 82.4209 19.8517 81.906 20.1145C83.0215 20.6403 83.994 21.5166 84.8235 22.7434C85.6816 23.941 86.1106 25.3722 86.1106 27.0371C86.1106 28.8773 85.7102 30.4838 84.9093 31.8567C84.1084 33.2295 82.9214 34.2957 81.3483 35.0551C79.7751 35.8145 77.8588 36.1943 75.5992 36.1943H62.4705ZM68.2197 31.068H74.784C76.1855 31.068 77.2438 30.6737 77.9589 29.8851C78.6739 29.0672 79.0315 28.1033 79.0315 26.9933C79.0315 25.8542 78.6596 24.9049 77.916 24.1454C77.2009 23.3568 76.1569 22.9624 74.784 22.9624H68.2197V31.068ZM68.2197 17.9238H74.3979C75.7422 17.9238 76.7433 17.5879 77.4011 16.9161C78.0876 16.2151 78.4308 15.3242 78.4308 14.2435C78.4308 13.1627 78.0876 12.3011 77.4011 11.6584C76.7433 10.9866 75.7422 10.6507 74.3979 10.6507H68.2197V17.9238Z" fill="white"/>
<path d="M91.7874 36.1943C91.5013 36.1943 91.2582 36.092 91.058 35.8876C90.8578 35.6831 90.7577 35.4202 90.7577 35.0989V14.5064C90.7577 14.1851 90.8578 13.9222 91.058 13.7177C91.2582 13.5132 91.5013 13.411 91.7874 13.411H96.0778C96.3924 13.411 96.6498 13.5132 96.85 13.7177C97.0502 13.9222 97.1504 14.1851 97.1504 14.5064V35.0989C97.1504 35.4202 97.0502 35.6831 96.85 35.8876C96.6498 36.092 96.3924 36.1943 96.0778 36.1943H91.7874ZM91.6586 9.90589C91.3726 9.90589 91.1295 9.80365 90.9293 9.59919C90.7291 9.39472 90.629 9.13184 90.629 8.81054V5.30542C90.629 4.98412 90.7291 4.72124 90.9293 4.51677C91.1295 4.2831 91.3726 4.16626 91.6586 4.16626H96.1636C96.4782 4.16626 96.7356 4.2831 96.9358 4.51677C97.1647 4.72124 97.2791 4.98412 97.2791 5.30542V8.81054C97.2791 9.13184 97.1647 9.39472 96.9358 9.59919C96.7356 9.80365 96.4782 9.90589 96.1636 9.90589H91.6586Z" fill="white"/>
<path d="M113 45.8333C110.883 45.8333 109.124 45.5412 107.722 44.9571C106.321 44.4021 105.205 43.7157 104.376 42.8978C103.575 42.1091 103.003 41.3205 102.66 40.5318C102.317 39.7432 102.131 39.1298 102.102 38.6917C102.073 38.3704 102.174 38.1075 102.402 37.903C102.631 37.6985 102.889 37.5963 103.175 37.5963H107.765C108.023 37.5963 108.237 37.6547 108.409 37.7716C108.609 37.9176 108.766 38.1513 108.881 38.4726C109.024 38.8231 109.224 39.1882 109.482 39.5679C109.739 39.9769 110.125 40.3128 110.64 40.5757C111.183 40.8385 111.898 40.97 112.785 40.97C113.786 40.97 114.616 40.8239 115.274 40.5318C115.931 40.2398 116.418 39.7432 116.732 39.0422C117.076 38.3411 117.247 37.3918 117.247 36.1943V33.2587C116.561 34.0182 115.688 34.6462 114.63 35.1427C113.6 35.6393 112.328 35.8876 110.812 35.8876C109.324 35.8876 108.009 35.6539 106.864 35.1865C105.749 34.69 104.819 34.0036 104.076 33.1273C103.332 32.2218 102.76 31.1411 102.36 29.8851C101.959 28.6291 101.73 27.2124 101.673 25.6351C101.644 24.8464 101.644 24.0724 101.673 23.313C101.73 21.7941 101.959 20.4066 102.36 19.1506C102.76 17.8946 103.332 16.8139 104.076 15.9084C104.819 14.9737 105.749 14.2581 106.864 13.7615C108.009 13.2357 109.324 12.9729 110.812 12.9729C112.385 12.9729 113.729 13.2796 114.845 13.893C115.96 14.5064 116.875 15.2658 117.59 16.1713V14.5064C117.59 14.2143 117.691 13.966 117.891 13.7615C118.091 13.5278 118.334 13.411 118.62 13.411H122.825C123.111 13.411 123.354 13.5278 123.554 13.7615C123.783 13.966 123.897 14.2143 123.897 14.5064L123.94 35.5809C123.94 37.7716 123.525 39.6264 122.696 41.1452C121.867 42.6641 120.637 43.8179 119.006 44.6065C117.404 45.4244 115.402 45.8333 113 45.8333ZM112.785 30.7613C113.815 30.7613 114.644 30.5277 115.274 30.0603C115.931 29.5638 116.418 28.9504 116.732 28.2201C117.047 27.4607 117.219 26.672 117.247 25.8542C117.276 25.5329 117.29 25.0801 117.29 24.4959C117.29 23.8825 117.276 23.4152 117.247 23.0939C117.219 22.276 117.047 21.502 116.732 20.7717C116.418 20.0123 115.931 19.3989 115.274 18.9316C114.644 18.4642 113.815 18.2305 112.785 18.2305C111.698 18.2305 110.84 18.4788 110.211 18.9754C109.582 19.4427 109.124 20.0707 108.838 20.8594C108.552 21.648 108.38 22.5097 108.323 23.4444C108.295 24.1454 108.295 24.8318 108.323 25.5037C108.38 26.4676 108.552 27.3438 108.838 28.1325C109.124 28.9211 109.582 29.5638 110.211 30.0603C110.84 30.5277 111.698 30.7613 112.785 30.7613Z" fill="white"/>
<path d="M130.891 36.1943C130.576 36.1943 130.319 36.092 130.118 35.8876C129.918 35.6831 129.818 35.4202 129.818 35.0989V6.61984C129.818 6.29854 129.918 6.03565 130.118 5.83119C130.319 5.62672 130.576 5.52449 130.891 5.52449H143.633C146.007 5.52449 147.952 5.875 149.468 6.57603C150.984 7.27705 152.099 8.27017 152.815 9.55538C153.558 10.8406 153.93 12.3449 153.93 14.0682C153.93 15.149 153.73 16.0983 153.329 16.9161C152.958 17.734 152.486 18.4058 151.914 18.9316C151.37 19.4573 150.841 19.8517 150.326 20.1145C151.442 20.6403 152.414 21.5166 153.244 22.7434C154.102 23.941 154.531 25.3722 154.531 27.0371C154.531 28.8773 154.13 30.4838 153.329 31.8567C152.529 33.2295 151.342 34.2957 149.768 35.0551C148.195 35.8145 146.279 36.1943 144.019 36.1943H130.891ZM136.64 31.068H143.204C144.606 31.068 145.664 30.6737 146.379 29.8851C147.094 29.0672 147.452 28.1033 147.452 26.9933C147.452 25.8542 147.08 24.9049 146.336 24.1454C145.621 23.3568 144.577 22.9624 143.204 22.9624H136.64V31.068ZM136.64 17.9238H142.818C144.162 17.9238 145.163 17.5879 145.821 16.9161C146.508 16.2151 146.851 15.3242 146.851 14.2435C146.851 13.1627 146.508 12.3011 145.821 11.6584C145.163 10.9866 144.162 10.6507 142.818 10.6507H136.64V17.9238Z" fill="white"/>
<path d="M160.207 36.1943C159.921 36.1943 159.678 36.092 159.478 35.8876C159.278 35.6831 159.178 35.4202 159.178 35.0989V14.5064C159.178 14.1851 159.278 13.9222 159.478 13.7177C159.678 13.5132 159.921 13.411 160.207 13.411H164.498C164.812 13.411 165.07 13.5132 165.27 13.7177C165.47 13.9222 165.57 14.1851 165.57 14.5064V35.0989C165.57 35.4202 165.47 35.6831 165.27 35.8876C165.07 36.092 164.812 36.1943 164.498 36.1943H160.207ZM160.079 9.90589C159.793 9.90589 159.55 9.80365 159.349 9.59919C159.149 9.39472 159.049 9.13184 159.049 8.81054V5.30542C159.049 4.98412 159.149 4.72124 159.349 4.51677C159.55 4.2831 159.793 4.16626 160.079 4.16626H164.584C164.898 4.16626 165.156 4.2831 165.356 4.51677C165.585 4.72124 165.699 4.98412 165.699 5.30542V8.81054C165.699 9.13184 165.585 9.39472 165.356 9.59919C165.156 9.80365 164.898 9.90589 164.584 9.90589H160.079Z" fill="white"/>
<path d="M170.951 36.1943C170.665 36.1943 170.422 36.092 170.222 35.8876C170.022 35.6831 169.922 35.4202 169.922 35.0989V32.1634C169.922 31.8713 169.979 31.6084 170.093 31.3747C170.236 31.1411 170.393 30.922 170.565 30.7175L181.077 18.4934H171.337C171.023 18.4934 170.765 18.3912 170.565 18.1867C170.365 17.9823 170.265 17.734 170.265 17.4419V14.5064C170.265 14.1851 170.365 13.9222 170.565 13.7177C170.765 13.5132 171.023 13.411 171.337 13.411H188.07C188.385 13.411 188.642 13.5132 188.842 13.7177C189.042 13.9222 189.142 14.1851 189.142 14.5064V17.661C189.142 17.9238 189.085 18.1575 188.971 18.362C188.856 18.5664 188.713 18.7709 188.542 18.9754L178.245 31.1118H188.971C189.257 31.1118 189.5 31.2141 189.7 31.4185C189.9 31.623 190.001 31.8713 190.001 32.1634V35.0989C190.001 35.4202 189.9 35.6831 189.7 35.8876C189.5 36.092 189.257 36.1943 188.971 36.1943H170.951Z" fill="white"/>
</svg>
