<svg width="230" height="60" viewBox="0 0 230 60" fill="none" xmlns="http://www.w3.org/2000/svg">
<path fill-rule="evenodd" clip-rule="evenodd" d="M22.3816 12.9121C24.3949 12.9121 26.3635 13.1593 28.2314 13.6201V6.27031C28.2314 -0.708592 19.3057 0.0218885 19.3057 0.0218885V13.1031C20.3235 12.9795 21.3526 12.9121 22.3816 12.9121Z" fill="#6060F6"/>
<path fill-rule="evenodd" clip-rule="evenodd" d="M34.5847 58.842C36.8217 59.595 39.2153 59.9996 41.6984 59.9996C54.058 59.9996 64.0799 49.9302 64.0799 37.512C64.0799 25.0938 54.058 15.0244 41.6984 15.0244C39.2153 15.0244 36.8217 15.429 34.5847 16.1819C37.929 18.1149 40.7701 20.8121 42.8729 24.0374C49.7517 24.633 55.1542 30.4319 55.1542 37.512C55.1542 44.5808 49.7517 50.3909 42.8729 50.9866C42.4814 51.0203 42.0899 51.0427 41.6984 51.0427C41.2398 51.0427 40.7812 51.0203 40.3338 50.9753C37.0901 50.6494 34.1932 49.166 32.0456 46.9408C31.5535 46.4351 31.1061 45.8844 30.7034 45.3113C29.1598 43.1086 28.2427 40.4227 28.2427 37.5232C28.2427 34.6238 29.1487 31.9379 30.7034 29.7352C28.6341 27.4988 25.6701 26.1052 22.3928 26.1052C21.3302 26.1052 20.3012 26.2513 19.3169 26.5323V37.467V37.5232V37.5794C19.3281 41.7263 20.4578 45.6035 22.4152 48.93C22.829 49.638 23.2764 50.3123 23.7686 50.9641C25.0437 52.6723 26.5537 54.2007 28.2538 55.4818C29.4395 56.3809 30.7034 57.1563 32.0568 57.8081C32.8621 58.2015 33.7122 58.5386 34.5847 58.842Z" fill="#6060F6"/>
<path fill-rule="evenodd" clip-rule="evenodd" d="M8.92577 37.5012C8.92577 31.8709 12.3484 27.0497 17.214 25.0156C17.8851 24.7346 18.5898 24.5099 19.3056 24.3413C20.2899 24.1053 21.3189 23.9817 22.3815 23.9817C26.1733 23.9817 29.596 25.555 32.0343 28.0836C32.5265 28.5893 32.9739 29.14 33.3765 29.7131C34.9201 31.9158 35.8373 34.6017 35.8373 37.5012C35.8373 40.4006 34.9313 43.0866 33.3765 45.2892C35.4458 47.5144 38.3987 48.9079 41.6648 48.9192C43.6333 45.5702 44.7631 41.6706 44.7631 37.5012C44.7631 33.3318 43.6333 29.4322 41.6648 26.0832C41.2509 25.3752 40.8035 24.7009 40.3114 24.0491C38.1526 21.1496 35.3116 18.7784 32.0231 17.2051C30.8151 16.6207 29.54 16.1487 28.2202 15.789C26.3523 15.2833 24.3949 15.0136 22.3703 15.0136C21.3301 15.0136 20.3011 15.081 19.2944 15.2271C18.5898 15.3283 17.8851 15.4519 17.2028 15.6205C14.1492 16.3397 11.3418 17.6995 8.91458 19.5314V6.27031C8.92577 -0.708592 0 0.0218885 0 0.0218885V37.445V37.5012V37.5574C0.0223703 44.8734 3.52333 51.3803 8.92577 55.471C12.6728 58.303 17.337 59.9888 22.3815 59.9888C24.8646 59.9888 27.2583 59.5842 29.4953 58.8312C28.6229 58.3255 27.784 57.7636 26.9674 57.1567C24.6745 55.4148 22.7283 53.3245 21.1959 50.9758C14.3282 50.3801 8.92577 44.57 8.92577 37.5012Z" fill="white"/>
<path d="M75.3867 43.4326C75.007 43.4326 74.6963 43.3099 74.4547 43.0646C74.2131 42.8192 74.0923 42.5038 74.0923 42.1182V7.94332C74.0923 7.55776 74.2131 7.2423 74.4547 6.99694C74.6963 6.75158 75.007 6.6289 75.3867 6.6289H90.7639C93.6287 6.6289 95.9759 7.04951 97.8053 7.89074C99.6347 8.73197 100.981 9.92371 101.844 11.466C102.741 13.0082 103.19 14.8133 103.19 16.8814C103.19 18.1783 102.948 19.3174 102.465 20.2989C102.016 21.2803 101.447 22.0865 100.756 22.7174C100.101 23.3483 99.4621 23.8215 98.8408 24.137C100.187 24.7679 101.36 25.8194 102.361 27.2916C103.397 28.7287 103.915 30.4462 103.915 32.4441C103.915 34.6523 103.431 36.5801 102.465 38.2275C101.499 39.8749 100.066 41.1543 98.1677 42.0656C96.2693 42.977 93.9567 43.4326 91.2298 43.4326H75.3867ZM82.3245 37.2811H90.2461C91.9374 37.2811 93.2146 36.808 94.0775 35.8616C94.9404 34.8801 95.3718 33.7235 95.3718 32.3915C95.3718 31.0245 94.9231 29.8854 94.0257 28.974C93.1628 28.0276 91.9029 27.5544 90.2461 27.5544H82.3245V37.2811ZM82.3245 21.5081H89.7801C91.4024 21.5081 92.6105 21.105 93.4044 20.2989C94.2328 19.4576 94.647 18.3886 94.647 17.0917C94.647 15.7948 94.2328 14.7608 93.4044 13.9896C92.6105 13.1835 91.4024 12.7804 89.7801 12.7804H82.3245V21.5081Z" fill="white"/>
<path d="M110.765 43.4326C110.42 43.4326 110.127 43.3099 109.885 43.0646C109.643 42.8192 109.523 42.5038 109.523 42.1182V17.4071C109.523 17.0216 109.643 16.7061 109.885 16.4608C110.127 16.2154 110.42 16.0927 110.765 16.0927H115.943C116.322 16.0927 116.633 16.2154 116.875 16.4608C117.116 16.7061 117.237 17.0216 117.237 17.4071V42.1182C117.237 42.5038 117.116 42.8192 116.875 43.0646C116.633 43.3099 116.322 43.4326 115.943 43.4326H110.765ZM110.61 11.8866C110.265 11.8866 109.971 11.7639 109.73 11.5185C109.488 11.2732 109.367 10.9577 109.367 10.5722V6.36602C109.367 5.98045 109.488 5.66499 109.73 5.41964C109.971 5.13923 110.265 4.99902 110.61 4.99902H116.046C116.426 4.99902 116.737 5.13923 116.978 5.41964C117.254 5.66499 117.392 5.98045 117.392 6.36602V10.5722C117.392 10.9577 117.254 11.2732 116.978 11.5185C116.737 11.7639 116.426 11.8866 116.046 11.8866H110.61Z" fill="white"/>
<path d="M136.364 54.9995C133.809 54.9995 131.687 54.649 129.995 53.948C128.304 53.282 126.958 52.4583 125.957 51.4769C124.99 50.5305 124.3 49.5841 123.886 48.6377C123.472 47.6913 123.247 46.9553 123.213 46.4295C123.178 46.0439 123.299 45.7285 123.575 45.4831C123.851 45.2378 124.162 45.1151 124.507 45.1151H130.047C130.358 45.1151 130.617 45.1852 130.824 45.3254C131.065 45.5006 131.255 45.7811 131.393 46.1666C131.566 46.5872 131.807 47.0254 132.118 47.481C132.429 47.9718 132.895 48.3748 133.516 48.6903C134.172 49.0058 135.035 49.1635 136.105 49.1635C137.313 49.1635 138.314 48.9882 139.108 48.6377C139.902 48.2872 140.488 47.6913 140.868 46.8501C141.282 46.0089 141.489 44.8697 141.489 43.4326V39.91C140.661 40.8213 139.608 41.5749 138.331 42.1708C137.088 42.7667 135.552 43.0646 133.723 43.0646C131.928 43.0646 130.34 42.7842 128.96 42.2234C127.614 41.6275 126.492 40.8038 125.594 39.7523C124.697 38.6657 124.007 37.3688 123.523 35.8616C123.04 34.3544 122.764 32.6544 122.695 30.7616C122.66 29.8152 122.66 28.8864 122.695 27.9751C122.764 26.1524 123.04 24.4875 123.523 22.9803C124.007 21.4731 124.697 20.1762 125.594 19.0896C126.492 17.968 127.614 17.1092 128.96 16.5133C130.34 15.8824 131.928 15.5669 133.723 15.5669C135.621 15.5669 137.244 15.935 138.59 16.6711C139.936 17.4071 141.041 18.3185 141.903 19.4051V17.4071C141.903 17.0566 142.024 16.7587 142.266 16.5133C142.508 16.2329 142.801 16.0927 143.146 16.0927H148.22C148.565 16.0927 148.859 16.2329 149.1 16.5133C149.376 16.7587 149.514 17.0566 149.514 17.4071L149.566 42.6966C149.566 45.3254 149.066 47.5511 148.065 49.3738C147.064 51.1965 145.58 52.581 143.612 53.5274C141.679 54.5088 139.263 54.9995 136.364 54.9995ZM136.105 36.9131C137.347 36.9131 138.348 36.6327 139.108 36.0719C139.902 35.476 140.488 34.7399 140.868 33.8637C141.248 32.9523 141.455 32.0059 141.489 31.0245C141.524 30.639 141.541 30.0957 141.541 29.3946C141.541 28.6586 141.524 28.0977 141.489 27.7122C141.455 26.7307 141.248 25.8019 140.868 24.9256C140.488 24.0143 139.902 23.2782 139.108 22.7174C138.348 22.1566 137.347 21.8762 136.105 21.8762C134.793 21.8762 133.758 22.1741 132.998 22.77C132.239 23.3308 131.687 24.0844 131.341 25.0308C130.996 25.9771 130.789 27.0112 130.72 28.1328C130.686 28.974 130.686 29.7977 130.72 30.6039C130.789 31.7606 130.996 32.8121 131.341 33.7585C131.687 34.7049 132.239 35.476 132.998 36.0719C133.758 36.6327 134.793 36.9131 136.105 36.9131Z" fill="white"/>
<path d="M157.954 43.4326C157.574 43.4326 157.263 43.3099 157.022 43.0646C156.78 42.8192 156.659 42.5038 156.659 42.1182V7.94332C156.659 7.55776 156.78 7.2423 157.022 6.99694C157.263 6.75158 157.574 6.6289 157.954 6.6289H173.331C176.196 6.6289 178.543 7.04951 180.372 7.89074C182.202 8.73197 183.548 9.92371 184.411 11.466C185.308 13.0082 185.757 14.8133 185.757 16.8814C185.757 18.1783 185.515 19.3174 185.032 20.2989C184.583 21.2803 184.014 22.0865 183.324 22.7174C182.668 23.3483 182.029 23.8215 181.408 24.137C182.754 24.7679 183.928 25.8194 184.929 27.2916C185.964 28.7287 186.482 30.4462 186.482 32.4441C186.482 34.6523 185.999 36.5801 185.032 38.2275C184.066 39.8749 182.633 41.1543 180.735 42.0656C178.836 42.977 176.524 43.4326 173.797 43.4326H157.954ZM164.892 37.2811H172.813C174.505 37.2811 175.782 36.808 176.645 35.8616C177.507 34.8801 177.939 33.7235 177.939 32.3915C177.939 31.0245 177.49 29.8854 176.593 28.974C175.73 28.0276 174.47 27.5544 172.813 27.5544H164.892V37.2811ZM164.892 21.5081H172.347C173.97 21.5081 175.178 21.105 175.971 20.2989C176.8 19.4576 177.214 18.3886 177.214 17.0917C177.214 15.7948 176.8 14.7608 175.971 13.9896C175.178 13.1835 173.97 12.7804 172.347 12.7804H164.892V21.5081Z" fill="white"/>
<path d="M193.332 43.4326C192.987 43.4326 192.694 43.3099 192.452 43.0646C192.211 42.8192 192.09 42.5038 192.09 42.1182V17.4071C192.09 17.0216 192.211 16.7061 192.452 16.4608C192.694 16.2154 192.987 16.0927 193.332 16.0927H198.51C198.89 16.0927 199.2 16.2154 199.442 16.4608C199.683 16.7061 199.804 17.0216 199.804 17.4071V42.1182C199.804 42.5038 199.683 42.8192 199.442 43.0646C199.2 43.3099 198.89 43.4326 198.51 43.4326H193.332ZM193.177 11.8866C192.832 11.8866 192.538 11.7639 192.297 11.5185C192.055 11.2732 191.934 10.9577 191.934 10.5722V6.36602C191.934 5.98045 192.055 5.66499 192.297 5.41964C192.538 5.13923 192.832 4.99902 193.177 4.99902H198.613C198.993 4.99902 199.304 5.13923 199.545 5.41964C199.821 5.66499 199.96 5.98045 199.96 6.36602V10.5722C199.96 10.9577 199.821 11.2732 199.545 11.5185C199.304 11.7639 198.993 11.8866 198.613 11.8866H193.177Z" fill="white"/>
<path d="M206.298 43.4326C205.952 43.4326 205.659 43.3099 205.417 43.0646C205.176 42.8192 205.055 42.5038 205.055 42.1182V38.5956C205.055 38.2451 205.124 37.9296 205.262 37.6492C205.435 37.3688 205.624 37.1059 205.832 36.8605L218.516 22.1916H206.764C206.384 22.1916 206.073 22.0689 205.832 21.8236C205.59 21.5782 205.469 21.2803 205.469 20.9298V17.4071C205.469 17.0216 205.59 16.7061 205.832 16.4608C206.073 16.2154 206.384 16.0927 206.764 16.0927H226.956C227.335 16.0927 227.646 16.2154 227.888 16.4608C228.129 16.7061 228.25 17.0216 228.25 17.4071V21.1927C228.25 21.5081 228.181 21.7885 228.043 22.0339C227.905 22.2792 227.732 22.5246 227.525 22.77L215.099 37.3337H228.043C228.388 37.3337 228.682 37.4564 228.923 37.7018C229.165 37.9471 229.286 38.2451 229.286 38.5956V42.1182C229.286 42.5038 229.165 42.8192 228.923 43.0646C228.682 43.3099 228.388 43.4326 228.043 43.4326H206.298Z" fill="white"/>
</svg>
