<svg width="214" height="56" viewBox="0 0 214 56" fill="none" xmlns="http://www.w3.org/2000/svg">
<path fill-rule="evenodd" clip-rule="evenodd" d="M20.8894 12.0519C22.7685 12.0519 24.6059 12.2826 26.3493 12.7127V5.85288C26.3493 -0.660765 18.0186 0.0210167 18.0186 0.0210167V12.2302C18.9685 12.1148 19.929 12.0519 20.8894 12.0519Z" fill="url(#paint0_linear_2102_4787)"/>
<path fill-rule="evenodd" clip-rule="evenodd" d="M32.279 54.9202C34.3669 55.623 36.6009 56.0006 38.9185 56.0006C50.4541 56.0006 59.8079 46.6025 59.8079 35.0122C59.8079 23.4219 50.4541 14.0238 38.9185 14.0238C36.6009 14.0238 34.3669 14.4014 32.279 15.1041C35.4004 16.9082 38.052 19.4256 40.0146 22.4359C46.4349 22.9918 51.4772 28.4041 51.4772 35.0122C51.4772 41.6097 46.4349 47.0325 40.0146 47.5884C39.6492 47.6199 39.2839 47.6409 38.9185 47.6409C38.4905 47.6409 38.0624 47.6199 37.6449 47.578C34.6174 47.2738 31.9136 45.8892 29.9092 43.8124C29.4499 43.3404 29.0323 42.8265 28.6565 42.2915C27.2158 40.2357 26.3598 37.7288 26.3598 35.0227C26.3598 32.3165 27.2054 29.8097 28.6565 27.7538C26.7251 25.6665 23.9587 24.3659 20.8999 24.3659C19.9082 24.3659 18.9477 24.5022 18.0291 24.7645V34.9702V35.0227V35.0751C18.0395 38.9455 19.0939 42.5642 20.9208 45.669C21.3071 46.3298 21.7246 46.9591 22.184 47.5675C23.3741 49.1618 24.7834 50.5883 26.3702 51.784C27.4768 52.6231 28.6565 53.3469 29.9196 53.9552C30.6713 54.3223 31.4647 54.637 32.279 54.9202Z" fill="url(#paint1_linear_2102_4787)"/>
<path fill-rule="evenodd" clip-rule="evenodd" d="M8.33071 35.0017C8.33071 29.7467 11.5252 25.247 16.0664 23.3485C16.6927 23.0862 17.3504 22.8765 18.0186 22.7191C18.9372 22.4989 19.8977 22.3835 20.8894 22.3835C24.4284 22.3835 27.6229 23.8519 29.8987 26.2119C30.358 26.6839 30.7756 27.1979 31.1514 27.7328C32.5921 29.7887 33.4481 32.2955 33.4481 35.0017C33.4481 37.7078 32.6025 40.2147 31.1514 42.2705C33.0827 44.3474 35.8388 45.648 38.8871 45.6585C40.7245 42.5328 41.7788 38.8931 41.7788 35.0017C41.7788 31.1103 40.7245 27.4706 38.8871 24.3449C38.5008 23.6841 38.0833 23.0548 37.6239 22.4464C35.6091 19.7403 32.9575 17.5271 29.8883 16.0586C28.7608 15.5132 27.5707 15.0727 26.3388 14.737C24.5954 14.265 22.7685 14.0133 20.879 14.0133C19.9081 14.0133 18.9477 14.0762 18.0081 14.2126C17.3504 14.307 16.6927 14.4224 16.0559 14.5797C13.206 15.251 10.5856 16.5201 8.32027 18.2298V5.85288C8.33071 -0.660765 0 0.0210167 0 0.0210167V34.9493V35.0017V35.0541C0.020879 41.8825 3.28844 47.9556 8.33071 51.7735C11.8279 54.4168 16.1812 55.9901 20.8894 55.9901C23.207 55.9901 25.441 55.6125 27.5289 54.9097C26.7147 54.4377 25.9317 53.9133 25.1696 53.3469C23.0295 51.7211 21.213 49.7701 19.7828 47.578C13.373 47.022 8.33071 41.5993 8.33071 35.0017Z" fill="white"/>
<path d="M70.3609 40.5381C70.0065 40.5381 69.7166 40.4236 69.4911 40.1946C69.2656 39.9656 69.1528 39.6712 69.1528 39.3113V7.41476C69.1528 7.0549 69.2656 6.76047 69.4911 6.53147C69.7166 6.30247 70.0065 6.18797 70.3609 6.18797H84.713C87.3869 6.18797 89.5775 6.58054 91.285 7.36568C92.9924 8.15083 94.2488 9.26312 95.0542 10.7026C95.8918 12.142 96.3106 13.8268 96.3106 15.7569C96.3106 16.9674 96.0851 18.0306 95.6341 18.9466C95.2153 19.8626 94.6837 20.615 94.0394 21.2039C93.4273 21.7927 92.8313 22.2344 92.2514 22.5288C93.5078 23.1177 94.6032 24.0991 95.5374 25.4731C96.5039 26.8144 96.9871 28.4174 96.9871 30.2821C96.9871 32.3431 96.5361 34.1424 95.6341 35.68C94.732 37.2176 93.3951 38.4117 91.6232 39.2622C89.8514 40.1128 87.6929 40.5381 85.1479 40.5381H70.3609ZM76.8363 34.7967H84.2297C85.8083 34.7967 87.0003 34.3551 87.8057 33.4718C88.6111 32.5558 89.0138 31.4762 89.0138 30.2331C89.0138 28.9572 88.5949 27.894 87.7573 27.0434C86.952 26.1601 85.7761 25.7185 84.2297 25.7185H76.8363V34.7967ZM76.8363 20.0752H83.7948C85.309 20.0752 86.4365 19.699 87.1775 18.9466C87.9506 18.1614 88.3372 17.1637 88.3372 15.9532C88.3372 14.7428 87.9506 13.7777 87.1775 13.058C86.4365 12.3056 85.309 11.9293 83.7948 11.9293H76.8363V20.0752Z" fill="white"/>
<path d="M103.381 40.5381C103.059 40.5381 102.785 40.4236 102.559 40.1946C102.334 39.9656 102.221 39.6712 102.221 39.3113V16.2477C102.221 15.8878 102.334 15.5934 102.559 15.3644C102.785 15.1354 103.059 15.0209 103.381 15.0209H108.213C108.568 15.0209 108.858 15.1354 109.083 15.3644C109.309 15.5934 109.421 15.8878 109.421 16.2477V39.3113C109.421 39.6712 109.309 39.9656 109.083 40.1946C108.858 40.4236 108.568 40.5381 108.213 40.5381H103.381ZM103.236 11.0951C102.914 11.0951 102.64 10.9806 102.414 10.7516C102.189 10.5226 102.076 10.2282 102.076 9.86834V5.94261C102.076 5.58275 102.189 5.28832 102.414 5.05932C102.64 4.79761 102.914 4.66675 103.236 4.66675H108.31C108.664 4.66675 108.954 4.79761 109.18 5.05932C109.437 5.28832 109.566 5.58275 109.566 5.94261V9.86834C109.566 10.2282 109.437 10.5226 109.18 10.7516C108.954 10.9806 108.664 11.0951 108.31 11.0951H103.236Z" fill="white"/>
<path d="M127.273 51.3339C124.889 51.3339 122.907 51.0067 121.329 50.3524C119.75 49.7309 118.494 48.9621 117.56 48.0461C116.658 47.1628 116.013 46.2795 115.627 45.3962C115.24 44.5129 115.031 43.8259 114.999 43.3352C114.966 42.9753 115.079 42.6809 115.337 42.4519C115.595 42.2229 115.884 42.1084 116.207 42.1084H121.377C121.667 42.1084 121.909 42.1738 122.102 42.3047C122.328 42.4683 122.505 42.73 122.634 43.0898C122.795 43.4824 123.02 43.8913 123.31 44.3166C123.6 44.7746 124.035 45.1508 124.615 45.4453C125.227 45.7397 126.032 45.8869 127.031 45.8869C128.159 45.8869 129.093 45.7233 129.834 45.3962C130.575 45.0691 131.122 44.5129 131.477 43.7278C131.863 42.9426 132.057 41.8794 132.057 40.5381V37.2503C131.284 38.1009 130.301 38.8042 129.109 39.3604C127.949 39.9165 126.516 40.1946 124.808 40.1946C123.133 40.1946 121.651 39.9329 120.362 39.4095C119.106 38.8533 118.059 38.0845 117.221 37.1031C116.384 36.0889 115.739 34.8785 115.288 33.4718C114.837 32.0651 114.58 30.4784 114.515 28.7118C114.483 27.8286 114.483 26.9616 114.515 26.111C114.58 24.4099 114.837 22.856 115.288 21.4492C115.739 20.0425 116.384 18.8321 117.221 17.8179C118.059 16.7711 119.106 15.9696 120.362 15.4134C121.651 14.8246 123.133 14.5301 124.808 14.5301C126.58 14.5301 128.094 14.8736 129.351 15.5606C130.607 16.2477 131.638 17.0982 132.443 18.1124V16.2477C132.443 15.9205 132.556 15.6424 132.782 15.4134C133.007 15.1517 133.281 15.0209 133.603 15.0209H138.339C138.661 15.0209 138.935 15.1517 139.16 15.4134C139.418 15.6424 139.547 15.9205 139.547 16.2477L139.595 39.8511C139.595 42.3047 139.128 44.3821 138.194 46.0832C137.26 47.7844 135.874 49.0766 134.038 49.9599C132.234 50.8759 129.979 51.3339 127.273 51.3339ZM127.031 34.4532C128.191 34.4532 129.125 34.1915 129.834 33.6681C130.575 33.1119 131.122 32.4249 131.477 31.6071C131.831 30.7565 132.024 29.8732 132.057 28.9572C132.089 28.5973 132.105 28.0903 132.105 27.436C132.105 26.749 132.089 26.2255 132.057 25.8657C132.024 24.9497 131.831 24.0828 131.477 23.2649C131.122 22.4143 130.575 21.7273 129.834 21.2039C129.125 20.6805 128.191 20.4187 127.031 20.4187C125.807 20.4187 124.84 20.6968 124.132 21.253C123.423 21.7764 122.907 22.4797 122.585 23.363C122.263 24.2463 122.07 25.2114 122.005 26.2583C121.973 27.0434 121.973 27.8122 122.005 28.5646C122.07 29.6442 122.263 30.6256 122.585 31.5089C122.907 32.3922 123.423 33.1119 124.132 33.6681C124.84 34.1915 125.807 34.4532 127.031 34.4532Z" fill="white"/>
<path d="M147.424 40.5381C147.069 40.5381 146.779 40.4236 146.554 40.1946C146.328 39.9656 146.215 39.6712 146.215 39.3113V7.41476C146.215 7.0549 146.328 6.76047 146.554 6.53147C146.779 6.30247 147.069 6.18797 147.424 6.18797H161.776C164.449 6.18797 166.64 6.58054 168.348 7.36568C170.055 8.15083 171.311 9.26312 172.117 10.7026C172.954 12.142 173.373 13.8268 173.373 15.7569C173.373 16.9674 173.148 18.0306 172.697 18.9466C172.278 19.8626 171.746 20.615 171.102 21.2039C170.49 21.7927 169.894 22.2344 169.314 22.5288C170.57 23.1177 171.666 24.0991 172.6 25.4731C173.566 26.8144 174.05 28.4174 174.05 30.2821C174.05 32.3431 173.599 34.1424 172.697 35.68C171.795 37.2176 170.458 38.4117 168.686 39.2622C166.914 40.1128 164.756 40.5381 162.211 40.5381H147.424ZM153.899 34.7967H161.292C162.871 34.7967 164.063 34.3551 164.868 33.4718C165.674 32.5558 166.076 31.4762 166.076 30.2331C166.076 28.9572 165.658 27.894 164.82 27.0434C164.015 26.1601 162.839 25.7185 161.292 25.7185H153.899V34.7967ZM153.899 20.0752H160.857C162.372 20.0752 163.499 19.699 164.24 18.9466C165.013 18.1614 165.4 17.1637 165.4 15.9532C165.4 14.7428 165.013 13.7777 164.24 13.058C163.499 12.3056 162.372 11.9293 160.857 11.9293H153.899V20.0752Z" fill="white"/>
<path d="M180.444 40.5381C180.121 40.5381 179.848 40.4236 179.622 40.1946C179.397 39.9656 179.284 39.6712 179.284 39.3113V16.2477C179.284 15.8878 179.397 15.5934 179.622 15.3644C179.848 15.1354 180.121 15.0209 180.444 15.0209H185.276C185.63 15.0209 185.92 15.1354 186.146 15.3644C186.371 15.5934 186.484 15.8878 186.484 16.2477V39.3113C186.484 39.6712 186.371 39.9656 186.146 40.1946C185.92 40.4236 185.63 40.5381 185.276 40.5381H180.444ZM180.299 11.0951C179.976 11.0951 179.703 10.9806 179.477 10.7516C179.252 10.5226 179.139 10.2282 179.139 9.86834V5.94261C179.139 5.58275 179.252 5.28832 179.477 5.05932C179.703 4.79761 179.976 4.66675 180.299 4.66675H185.373C185.727 4.66675 186.017 4.79761 186.242 5.05932C186.5 5.28832 186.629 5.58275 186.629 5.94261V9.86834C186.629 10.2282 186.5 10.5226 186.242 10.7516C186.017 10.9806 185.727 11.0951 185.373 11.0951H180.299Z" fill="white"/>
<path d="M192.544 40.5381C192.222 40.5381 191.948 40.4236 191.723 40.1946C191.497 39.9656 191.385 39.6712 191.385 39.3113V36.0235C191.385 35.6964 191.449 35.4019 191.578 35.1402C191.739 34.8785 191.916 34.6332 192.109 34.4042L203.949 20.7132H192.979C192.625 20.7132 192.335 20.5987 192.109 20.3697C191.884 20.1407 191.771 19.8626 191.771 19.5354V16.2477C191.771 15.8878 191.884 15.5934 192.109 15.3644C192.335 15.1354 192.625 15.0209 192.979 15.0209H211.825C212.18 15.0209 212.47 15.1354 212.695 15.3644C212.921 15.5934 213.034 15.8878 213.034 16.2477V19.7808C213.034 20.0752 212.969 20.337 212.84 20.566C212.711 20.795 212.55 21.024 212.357 21.253L200.759 34.8458H212.84C213.162 34.8458 213.436 34.9603 213.662 35.1893C213.887 35.4183 214 35.6964 214 36.0235V39.3113C214 39.6712 213.887 39.9656 213.662 40.1946C213.436 40.4236 213.162 40.5381 212.84 40.5381H192.544Z" fill="white"/>
<defs>
<linearGradient id="paint0_linear_2102_4787" x1="18.0186" y1="6.35662" x2="26.3493" y2="6.35662" gradientUnits="userSpaceOnUse">
<stop stop-color="#019297"/>
<stop offset="1" stop-color="#4EC057"/>
</linearGradient>
<linearGradient id="paint1_linear_2102_4787" x1="18.0291" y1="35.0122" x2="59.8079" y2="35.0122" gradientUnits="userSpaceOnUse">
<stop stop-color="#019297"/>
<stop offset="1" stop-color="#4EC057"/>
</linearGradient>
</defs>
</svg>
