<svg width="230" height="60" viewBox="0 0 230 60" fill="none" xmlns="http://www.w3.org/2000/svg">
<path fill-rule="evenodd" clip-rule="evenodd" d="M22.3815 12.9121C24.3949 12.9121 26.3634 13.1593 28.2314 13.6201V6.27031C28.2314 -0.708592 19.3056 0.0218885 19.3056 0.0218885V13.1031C20.3235 12.9795 21.3525 12.9121 22.3815 12.9121Z" fill="#C4F500"/>
<path fill-rule="evenodd" clip-rule="evenodd" d="M34.5846 58.842C36.8216 59.595 39.2153 59.9996 41.6984 59.9996C54.058 59.9996 64.0799 49.9302 64.0799 37.512C64.0799 25.0938 54.058 15.0244 41.6984 15.0244C39.2153 15.0244 36.8216 15.429 34.5846 16.1819C37.929 18.1149 40.77 20.8121 42.8728 24.0374C49.7517 24.633 55.1541 30.4319 55.1541 37.512C55.1541 44.5808 49.7517 50.3909 42.8728 50.9866C42.4813 51.0203 42.0898 51.0427 41.6984 51.0427C41.2398 51.0427 40.7812 51.0203 40.3338 50.9753C37.0901 50.6494 34.1931 49.166 32.0456 46.9408C31.5534 46.4351 31.106 45.8844 30.7033 45.3113C29.1598 43.1086 28.2426 40.4227 28.2426 37.5232C28.2426 34.6238 29.1486 31.9379 30.7033 29.7352C28.6341 27.4988 25.67 26.1052 22.3928 26.1052C21.3302 26.1052 20.3011 26.2513 19.3168 26.5323V37.467V37.5232V37.5794C19.328 41.7263 20.4577 45.6035 22.4151 48.93C22.829 49.638 23.2764 50.3123 23.7685 50.9641C25.0436 52.6723 26.5536 54.2007 28.2538 55.4818C29.4394 56.3809 30.7033 57.1563 32.0567 57.8081C32.8621 58.2015 33.7121 58.5386 34.5846 58.842Z" fill="#C4F500"/>
<path fill-rule="evenodd" clip-rule="evenodd" d="M8.92577 37.5012C8.92577 31.8709 12.3484 27.0497 17.214 25.0156C17.8851 24.7346 18.5898 24.5099 19.3056 24.3413C20.2899 24.1053 21.3189 23.9817 22.3815 23.9817C26.1733 23.9817 29.596 25.555 32.0343 28.0836C32.5265 28.5893 32.9739 29.14 33.3765 29.7131C34.9201 31.9158 35.8373 34.6017 35.8373 37.5012C35.8373 40.4006 34.9313 43.0866 33.3765 45.2892C35.4458 47.5144 38.3987 48.9079 41.6648 48.9192C43.6333 45.5702 44.7631 41.6706 44.7631 37.5012C44.7631 33.3318 43.6333 29.4322 41.6648 26.0832C41.2509 25.3752 40.8035 24.7009 40.3114 24.0491C38.1526 21.1496 35.3116 18.7784 32.0231 17.2051C30.8151 16.6207 29.54 16.1487 28.2202 15.789C26.3523 15.2833 24.3949 15.0136 22.3703 15.0136C21.3301 15.0136 20.3011 15.081 19.2944 15.2271C18.5898 15.3283 17.8851 15.4519 17.2028 15.6205C14.1492 16.3397 11.3418 17.6995 8.91458 19.5314V6.27031C8.92577 -0.708592 0 0.0218885 0 0.0218885V37.445V37.5012V37.5574C0.0223703 44.8734 3.52333 51.3803 8.92577 55.471C12.6728 58.303 17.337 59.9888 22.3815 59.9888C24.8646 59.9888 27.2583 59.5842 29.4953 58.8312C28.6229 58.3255 27.784 57.7636 26.9674 57.1567C24.6745 55.4148 22.7283 53.3245 21.1959 50.9758C14.3282 50.3801 8.92577 44.57 8.92577 37.5012Z" fill="white"/>
<path d="M75.3867 43.4331C75.007 43.4331 74.6964 43.3104 74.4547 43.0651C74.2131 42.8197 74.0923 42.5043 74.0923 42.1187V7.94381C74.0923 7.55825 74.2131 7.24278 74.4547 6.99743C74.6964 6.75207 75.007 6.62939 75.3867 6.62939H90.7639C93.6288 6.62939 95.9759 7.05 97.8053 7.89123C99.6347 8.73246 100.981 9.9242 101.844 11.4664C102.741 13.0087 103.19 14.8138 103.19 16.8819C103.19 18.1787 102.948 19.3179 102.465 20.2993C102.016 21.2808 101.447 22.087 100.756 22.7179C100.101 23.3488 99.4621 23.822 98.8408 24.1374C100.187 24.7684 101.361 25.8199 102.362 27.2921C103.397 28.7292 103.915 30.4467 103.915 32.4446C103.915 34.6528 103.432 36.5806 102.465 38.228C101.499 39.8754 100.066 41.1548 98.1677 42.0661C96.2693 42.9774 93.9567 43.4331 91.2299 43.4331H75.3867ZM82.3246 37.2816H90.2461C91.9375 37.2816 93.2146 36.8084 94.0775 35.8621C94.9404 34.8806 95.3719 33.7239 95.3719 32.392C95.3719 31.025 94.9232 29.8858 94.0257 28.9745C93.1628 28.0281 91.9029 27.5549 90.2461 27.5549H82.3246V37.2816ZM82.3246 21.5086H89.7802C91.4025 21.5086 92.6105 21.1055 93.4044 20.2993C94.2328 19.4581 94.647 18.3891 94.647 17.0922C94.647 15.7953 94.2328 14.7613 93.4044 13.9901C92.6105 13.184 91.4025 12.7809 89.7802 12.7809H82.3246V21.5086Z" fill="white"/>
<path d="M110.765 43.4331C110.42 43.4331 110.127 43.3104 109.885 43.0651C109.643 42.8197 109.523 42.5043 109.523 42.1187V17.4076C109.523 17.0221 109.643 16.7066 109.885 16.4612C110.127 16.2159 110.42 16.0932 110.765 16.0932H115.943C116.322 16.0932 116.633 16.2159 116.875 16.4612C117.116 16.7066 117.237 17.0221 117.237 17.4076V42.1187C117.237 42.5043 117.116 42.8197 116.875 43.0651C116.633 43.3104 116.322 43.4331 115.943 43.4331H110.765ZM110.61 11.8871C110.265 11.8871 109.971 11.7644 109.73 11.519C109.488 11.2737 109.367 10.9582 109.367 10.5726V6.36651C109.367 5.98094 109.488 5.66548 109.73 5.42012C109.971 5.13972 110.265 4.99951 110.61 4.99951H116.046C116.426 4.99951 116.737 5.13972 116.978 5.42012C117.254 5.66548 117.392 5.98094 117.392 6.36651V10.5726C117.392 10.9582 117.254 11.2737 116.978 11.519C116.737 11.7644 116.426 11.8871 116.046 11.8871H110.61Z" fill="white"/>
<path d="M136.364 55C133.809 55 131.687 54.6495 129.995 53.9485C128.304 53.2825 126.958 52.4588 125.957 51.4774C124.99 50.531 124.3 49.5846 123.886 48.6382C123.472 47.6918 123.247 46.9558 123.213 46.43C123.178 46.0444 123.299 45.729 123.575 45.4836C123.851 45.2382 124.162 45.1156 124.507 45.1156H130.047C130.358 45.1156 130.617 45.1857 130.824 45.3259C131.065 45.5011 131.255 45.7815 131.393 46.1671C131.566 46.5877 131.807 47.0259 132.118 47.4815C132.429 47.9722 132.895 48.3753 133.516 48.6908C134.172 49.0063 135.035 49.164 136.105 49.164C137.313 49.164 138.314 48.9887 139.108 48.6382C139.902 48.2877 140.488 47.6918 140.868 46.8506C141.282 46.0094 141.489 44.8702 141.489 43.4331V39.9105C140.661 40.8218 139.608 41.5754 138.331 42.1713C137.088 42.7671 135.552 43.0651 133.723 43.0651C131.928 43.0651 130.34 42.7847 128.96 42.2239C127.614 41.628 126.492 40.8043 125.594 39.7527C124.697 38.6662 124.007 37.3693 123.523 35.8621C123.04 34.3549 122.764 32.6549 122.695 30.7621C122.66 29.8157 122.66 28.8869 122.695 27.9756C122.764 26.1529 123.04 24.488 123.523 22.9808C124.007 21.4736 124.697 20.1767 125.594 19.0901C126.492 17.9684 127.614 17.1097 128.96 16.5138C130.34 15.8829 131.928 15.5674 133.723 15.5674C135.621 15.5674 137.244 15.9355 138.59 16.6715C139.936 17.4076 141.041 18.319 141.904 19.4055V17.4076C141.904 17.0571 142.024 16.7592 142.266 16.5138C142.508 16.2334 142.801 16.0932 143.146 16.0932H148.22C148.565 16.0932 148.859 16.2334 149.1 16.5138C149.376 16.7592 149.514 17.0571 149.514 17.4076L149.566 42.697C149.566 45.3259 149.066 47.5516 148.065 49.3743C147.064 51.1969 145.58 52.5815 143.612 53.5278C141.679 54.5093 139.263 55 136.364 55ZM136.105 36.9136C137.347 36.9136 138.348 36.6332 139.108 36.0724C139.902 35.4765 140.488 34.7404 140.868 33.8641C141.248 32.9528 141.455 32.0064 141.489 31.025C141.524 30.6394 141.541 30.0961 141.541 29.3951C141.541 28.659 141.524 28.0982 141.489 27.7127C141.455 26.7312 141.248 25.8024 140.868 24.9261C140.488 24.0148 139.902 23.2787 139.108 22.7179C138.348 22.1571 137.347 21.8766 136.105 21.8766C134.793 21.8766 133.758 22.1746 132.998 22.7705C132.239 23.3313 131.687 24.0849 131.341 25.0313C130.996 25.9776 130.789 27.0116 130.72 28.1333C130.686 28.9745 130.686 29.7982 130.72 30.6044C130.789 31.7611 130.996 32.8126 131.341 33.759C131.687 34.7054 132.239 35.4765 132.998 36.0724C133.758 36.6332 134.793 36.9136 136.105 36.9136Z" fill="white"/>
<path d="M157.954 43.4331C157.574 43.4331 157.263 43.3104 157.022 43.0651C156.78 42.8197 156.659 42.5043 156.659 42.1187V7.94381C156.659 7.55825 156.78 7.24278 157.022 6.99743C157.263 6.75207 157.574 6.62939 157.954 6.62939H173.331C176.196 6.62939 178.543 7.05 180.372 7.89123C182.202 8.73246 183.548 9.9242 184.411 11.4664C185.308 13.0087 185.757 14.8138 185.757 16.8819C185.757 18.1787 185.515 19.3179 185.032 20.2993C184.583 21.2808 184.014 22.087 183.324 22.7179C182.668 23.3488 182.029 23.822 181.408 24.1374C182.754 24.7684 183.928 25.8199 184.929 27.2921C185.964 28.7292 186.482 30.4467 186.482 32.4446C186.482 34.6528 185.999 36.5806 185.032 38.228C184.066 39.8754 182.633 41.1548 180.735 42.0661C178.836 42.9774 176.524 43.4331 173.797 43.4331H157.954ZM164.892 37.2816H172.813C174.505 37.2816 175.782 36.8084 176.645 35.8621C177.508 34.8806 177.939 33.7239 177.939 32.392C177.939 31.025 177.49 29.8858 176.593 28.9745C175.73 28.0281 174.47 27.5549 172.813 27.5549H164.892V37.2816ZM164.892 21.5086H172.347C173.97 21.5086 175.178 21.1055 175.972 20.2993C176.8 19.4581 177.214 18.3891 177.214 17.0922C177.214 15.7953 176.8 14.7613 175.972 13.9901C175.178 13.184 173.97 12.7809 172.347 12.7809H164.892V21.5086Z" fill="white"/>
<path d="M193.332 43.4331C192.987 43.4331 192.694 43.3104 192.452 43.0651C192.211 42.8197 192.09 42.5043 192.09 42.1187V17.4076C192.09 17.0221 192.211 16.7066 192.452 16.4612C192.694 16.2159 192.987 16.0932 193.332 16.0932H198.51C198.89 16.0932 199.2 16.2159 199.442 16.4612C199.683 16.7066 199.804 17.0221 199.804 17.4076V42.1187C199.804 42.5043 199.683 42.8197 199.442 43.0651C199.2 43.3104 198.89 43.4331 198.51 43.4331H193.332ZM193.177 11.8871C192.832 11.8871 192.538 11.7644 192.297 11.519C192.055 11.2737 191.934 10.9582 191.934 10.5726V6.36651C191.934 5.98094 192.055 5.66548 192.297 5.42012C192.538 5.13972 192.832 4.99951 193.177 4.99951H198.613C198.993 4.99951 199.304 5.13972 199.545 5.42012C199.821 5.66548 199.96 5.98094 199.96 6.36651V10.5726C199.96 10.9582 199.821 11.2737 199.545 11.519C199.304 11.7644 198.993 11.8871 198.613 11.8871H193.177Z" fill="white"/>
<path d="M206.298 43.4331C205.952 43.4331 205.659 43.3104 205.417 43.0651C205.176 42.8197 205.055 42.5043 205.055 42.1187V38.5961C205.055 38.2455 205.124 37.9301 205.262 37.6497C205.435 37.3693 205.624 37.1064 205.832 36.861L218.516 22.1921H206.764C206.384 22.1921 206.073 22.0694 205.832 21.8241C205.59 21.5787 205.469 21.2808 205.469 20.9303V17.4076C205.469 17.0221 205.59 16.7066 205.832 16.4612C206.073 16.2159 206.384 16.0932 206.764 16.0932H226.956C227.335 16.0932 227.646 16.2159 227.888 16.4612C228.129 16.7066 228.25 17.0221 228.25 17.4076V21.1931C228.25 21.5086 228.181 21.789 228.043 22.0344C227.905 22.2797 227.732 22.5251 227.525 22.7705L215.099 37.3342H228.043C228.388 37.3342 228.682 37.4569 228.923 37.7022C229.165 37.9476 229.286 38.2455 229.286 38.5961V42.1187C229.286 42.5043 229.165 42.8197 228.923 43.0651C228.682 43.3104 228.388 43.4331 228.043 43.4331H206.298Z" fill="white"/>
</svg>
