<svg width="200" height="40" viewBox="0 0 200 40" fill="none" xmlns="http://www.w3.org/2000/svg">
<g clip-path="url(#clip0_2102_5725)">
<path d="M23.2031 7.66662L11.5984 15.1019L23.2031 22.5372L11.5984 29.9725L0 22.4784L11.6047 15.0431L0 7.66662L11.6047 0.231323L23.2031 7.66662ZM11.543 32.3317L23.1477 24.8964L34.7523 32.3317L23.1484 39.7607L11.5437 32.3254L11.543 32.3317ZM23.2031 22.4784L34.8078 15.0431L23.2031 7.66662L34.7531 0.231323L46.3578 7.66662L34.7531 15.1019L46.3578 22.5372L34.7531 29.9725L23.2102 22.4745L23.2031 22.4784Z" fill="white"/>
<path d="M55.432 7.66665H64.807C70.7945 7.66665 75.7328 11.1372 75.7328 19.069V20.7419C75.7328 28.7365 71.1031 32.3302 64.9922 32.3302H55.432V7.66665ZM60.6789 12.1372V27.8235H64.6914C68.0867 27.8235 70.3711 25.5929 70.3711 20.6353V19.3333C70.3711 14.3765 67.9648 12.1451 64.507 12.1451H60.6789V12.1372ZM78.5187 12.3851H82.7164L83.3961 17.0329C84.1984 13.8721 86.2359 12.1992 89.939 12.1992H91.2359V17.5286H89.0758C84.8164 17.5286 83.7672 19.0157 83.7672 23.2306V32.4023H78.582V12.3867H78.5195L78.5187 12.3851ZM92.2843 22.7961V22.247C92.2843 15.5545 96.5437 11.898 102.347 11.898C108.273 11.898 112.409 15.5545 112.409 22.247V22.7961C112.409 29.3647 108.397 32.898 102.347 32.898C95.9273 32.8353 92.2843 29.3655 92.2843 22.7961ZM107.099 22.7333V22.2376C107.099 18.52 105.248 16.2886 102.284 16.2886C99.3828 16.2886 97.4695 18.3333 97.4695 22.2376V22.7333C97.4695 26.3278 99.3211 28.3804 102.284 28.3804C105.248 28.3176 107.099 26.3357 107.099 22.7333ZM115.124 12.3843H119.445L119.938 16.1647C120.987 13.6235 123.21 11.8886 126.481 11.8886C131.544 11.8886 134.877 15.5451 134.877 22.2996V22.8486C134.877 29.4172 131.173 32.8878 126.481 32.8878C123.333 32.8878 121.173 31.4627 120.123 29.1702V39.2721H115.061L115.123 12.3702L115.124 12.3843ZM129.63 22.7333V22.2996C129.63 18.3333 127.594 16.3506 124.877 16.3506C121.976 16.3506 120.062 18.5812 120.062 22.2996V22.6714C120.062 26.2039 121.914 28.4345 124.816 28.4345C127.779 28.3718 129.63 26.4525 129.63 22.7333ZM142.532 28.6823L142.1 32.3388H137.647V5.68469H142.709V15.9176C143.82 13.3137 146.043 11.8894 149.191 11.8894C153.944 11.9521 157.462 15.2361 157.462 21.8659V22.4933C157.462 29.1239 154.129 32.9043 149.067 32.9043C145.734 32.8416 143.573 31.2933 142.524 28.6902L142.532 28.6823ZM152.162 22.4863V21.9906C152.162 18.3341 150.187 16.2886 147.409 16.2886C144.569 16.2886 142.594 18.5812 142.594 22.0518V22.4855C142.594 26.2031 144.508 28.3725 147.347 28.3725C150.372 28.3725 152.162 26.4518 152.162 22.4863ZM159.693 22.7961V22.247C159.693 15.5545 163.952 11.898 169.755 11.898C175.681 11.898 179.818 15.5545 179.818 22.247V22.7961C179.818 29.3647 175.744 32.898 169.755 32.898C163.336 32.8353 159.693 29.3655 159.693 22.7961ZM174.57 22.7333V22.2376C174.57 18.52 172.718 16.2886 169.755 16.2886C166.853 16.2886 164.94 18.3333 164.94 22.2376V22.7333C164.94 26.3278 166.791 28.3804 169.755 28.3804C172.718 28.3176 174.57 26.3357 174.57 22.7333ZM186.606 21.9898L179.631 12.3843H185.619L189.631 18.3953L193.705 12.3843H199.631L192.533 21.9278L200 32.3318H194.136L189.568 25.7012L185.115 32.3318H179.004L186.598 21.9827L186.606 21.9898Z" fill="white"/>
</g>
<defs>
<clipPath id="clip0_2102_5725">
<rect width="200" height="40" fill="white"/>
</clipPath>
</defs>
</svg>
