<svg width="212" height="40" viewBox="0 0 212 40" fill="none" xmlns="http://www.w3.org/2000/svg">
<g clip-path="url(#clip0_2102_5706)">
<path d="M27.5024 3.32055C10.1899 22.1619 5.17651 35.5797 5.17651 35.5797C8.93654 39.992 15.3453 39.6204 15.3453 39.6204C22.1001 39.8337 26.2373 35.5981 26.2373 35.5981C34.6315 27.0481 33.5979 2.76605 33.5979 2.76605C31.901 -0.968992 27.5024 3.32055 27.5024 3.32055Z" fill="white"/>
<path d="M0.794852 18.0549C0.794852 18.0549 -1.85348 23.4105 2.51805 32.4226L14.1361 6.59937C14.0033 6.64765 3.65767 10.298 0.794852 18.0549Z" fill="white"/>
<path d="M160.736 34.7816C160.021 34.8438 159.316 34.8438 158.619 34.6539C157.456 34.349 156.755 33.6128 156.543 32.4109C156.43 31.741 156.465 31.083 156.585 30.4249C156.916 28.5601 157.263 26.6956 157.61 24.8307C158.228 21.4431 158.855 18.049 159.479 14.661C159.5 14.5087 159.542 14.3561 159.575 14.1981C162.659 14.1981 165.715 14.1981 168.765 14.1981C169.139 13.4247 170.642 9.63401 170.657 9.40893C170.082 9.40893 169.503 9.40893 168.927 9.40893C168.343 9.40893 167.764 9.40893 167.189 9.40893C166.607 9.40893 166.029 9.40893 165.444 9.40893C164.873 9.40893 164.29 9.40893 163.705 9.40893C163.135 9.40893 162.551 9.40893 161.973 9.40893C161.398 9.40893 160.825 9.42079 160.208 9.40238C160.816 6.27055 161.412 3.17554 162.009 0.0854492C161.993 0.0854492 161.972 0.0854492 161.957 0.0854492C161.91 0.121871 161.867 0.164433 161.816 0.182849C161.15 0.523737 160.485 0.853167 159.815 1.18833C158.384 1.9012 156.957 2.62022 155.522 3.32736C155.36 3.41248 155.287 3.51602 155.275 3.68667C155.254 3.8696 155.224 4.04638 155.195 4.2289C154.961 5.72177 154.73 7.21423 154.493 8.70751C154.274 10.0968 154.053 11.4862 153.84 12.8694C153.608 14.3557 153.374 15.8432 153.147 17.3234C152.926 18.7066 152.716 20.0894 152.502 21.4669C152.261 22.9778 152.026 24.4833 151.794 25.988C151.571 27.3712 151.36 28.7544 151.143 30.1323C151.062 30.6246 150.956 31.1128 150.929 31.6072C150.871 32.5513 150.955 33.4782 151.176 34.3908C151.691 36.5175 152.959 37.9805 154.998 38.7421C155.996 39.1206 157.035 39.279 158.092 39.315C159.064 39.3518 160.027 39.2901 160.985 39.1452C161.485 39.0781 161.991 38.9754 162.504 38.8829C162.863 37.3352 163.218 35.8006 163.585 34.2348C163.47 34.2594 163.407 34.2713 163.344 34.2897C162.489 34.5209 161.618 34.7091 160.736 34.7816Z" fill="white"/>
<path d="M211.467 10.6399C211.257 10.6215 211.127 10.7009 211.009 10.8834C210.163 12.1934 209.301 13.4976 208.449 14.7956C208.405 14.857 208.358 14.911 208.292 15.0027C208.259 14.8926 208.23 14.8198 208.207 14.7465C207.988 14.0157 207.772 13.2905 207.549 12.5649C207.38 12.0047 207.207 11.4498 207.036 10.8834C207.011 10.7921 206.983 10.7005 206.862 10.7005C206.62 10.7066 206.381 10.7066 206.12 10.7066C205.699 12.5408 205.283 14.3745 204.864 16.2271C205.154 16.2271 205.407 16.2271 205.686 16.2271C205.982 15.0506 206.276 13.8749 206.57 12.6992C206.591 12.6926 206.613 12.6926 206.632 12.6926C206.983 13.9056 207.327 15.1177 207.685 16.3429C207.873 16.3429 208.055 16.3368 208.237 16.3495C208.404 16.356 208.511 16.3008 208.611 16.1481C209.313 15.0817 210.03 14.0218 210.747 12.9553C210.79 12.8882 210.843 12.8215 210.889 12.754C210.91 12.7605 210.932 12.7605 210.943 12.7724C210.85 13.9178 210.76 15.0698 210.671 16.2337C210.974 16.2337 211.24 16.2337 211.52 16.2337C211.523 16.1788 211.532 16.1486 211.541 16.1183C211.65 14.5517 211.752 12.9922 211.857 11.4322C211.866 11.3593 211.894 11.2861 211.912 11.2071C211.912 11.018 211.912 10.8233 211.912 10.6281C211.769 10.6399 211.618 10.6583 211.467 10.6399Z" fill="white"/>
<path d="M140.868 8.35475C139.5 8.24508 138.137 8.27004 136.782 8.44028C134.908 8.68377 133.113 9.20145 131.389 9.97571C129.192 10.9689 127.232 12.3218 125.405 13.8937C123.872 15.222 122.534 16.7214 121.488 18.4701C119.573 21.6756 118.605 25.1238 118.859 28.8895C118.956 30.3275 119.255 31.7222 119.801 33.0567C121.079 36.1529 123.239 38.3153 126.413 39.3883C126.845 39.5348 127.293 39.6686 127.74 39.7238C128.853 39.8519 129.964 39.8339 131.075 39.6932C132.775 39.4738 134.378 38.9504 135.861 38.0787C138.105 36.7569 139.774 34.8859 140.901 32.5284C140.941 32.4424 140.982 32.37 141.018 32.2898C141.036 32.2959 141.054 32.3016 141.073 32.3082C140.591 34.5324 140.108 36.7569 139.621 38.9934C141.489 38.9934 143.333 38.9934 145.193 38.9934C146.862 29.6703 148.527 20.3587 150.194 11.0242C149.869 10.8719 149.57 10.7312 149.266 10.6039C146.577 9.42694 143.803 8.59866 140.868 8.35475ZM143.576 15.6791C143.296 18.61 142.579 21.4497 141.78 24.2771C140.976 27.1163 139.499 29.5418 137.486 31.6436C136.318 32.8684 134.973 33.8551 133.379 34.4587C132.474 34.8053 131.54 34.9886 130.568 34.9821C130.033 34.9755 129.496 35.0005 128.979 34.8356C126.742 34.1473 125.298 32.6544 124.615 30.4184C124.339 29.4923 124.262 28.5285 124.325 27.5669C124.452 25.6353 125.037 23.838 125.828 22.0889C126.126 21.4305 126.461 20.7724 126.817 20.1328C127.253 19.3647 127.826 18.6943 128.443 18.0731C130.724 15.77 133.444 14.2771 136.605 13.631C138.877 13.1804 141.125 13.3023 143.321 14.0877C143.427 14.1306 143.529 14.1675 143.674 14.2215C143.643 14.7166 143.622 15.1975 143.576 15.6791Z" fill="white"/>
<path d="M194.486 11.4261C192.187 9.4458 189.489 8.46488 186.49 8.28195C184.351 8.15427 182.245 8.43418 180.217 9.1532C175.014 10.9935 171.178 14.4183 168.753 19.4146C167.636 21.6994 167.084 24.1302 167.063 26.5864C167.069 27.756 167.159 28.8228 167.409 29.8709C168.364 33.8919 170.648 36.8535 174.347 38.6452C176.653 39.7603 179.104 40.1069 181.645 39.9125C183.299 39.7906 184.905 39.4129 186.454 38.8162C189.207 37.7678 191.591 36.1468 193.634 34.0086C195.67 31.8871 197.183 29.4383 198.084 26.624C198.952 23.9243 199.183 21.1702 198.569 18.3793C197.96 15.6121 196.617 13.2782 194.486 11.4261ZM190.971 28.4386C189.504 30.8514 187.517 32.6978 184.969 33.892C183.528 34.5623 182.01 34.9109 180.424 34.8671C177.142 34.7759 174.47 32.8014 173.477 29.5169C173.101 28.274 173.012 27.0009 173.143 25.7086C173.477 22.5571 174.83 19.9073 176.988 17.6464C178.377 16.1838 180.007 15.0748 181.899 14.3733C183.244 13.8737 184.637 13.6302 186.071 13.7824C189.12 14.1114 191.226 15.7201 192.353 18.6084C192.762 19.6626 192.909 20.7655 192.917 21.9293C192.878 24.2587 192.197 26.4399 190.971 28.4386Z" fill="white"/>
<path d="M63.1217 15.8436C63.0674 15.222 63.01 14.6065 62.8319 14.0095C62.1629 11.7546 60.7801 10.1459 58.6142 9.2444C57.5955 8.81758 56.532 8.61051 55.4385 8.54299C54.0613 8.45787 52.6967 8.59209 51.3438 8.87855C49.0387 9.36554 46.8845 10.2429 44.8569 11.4375C42.6032 12.7597 40.6113 14.4171 38.9816 16.4829C37.7885 17.9937 36.8658 19.6511 36.3178 21.5098C36.0827 22.3017 35.9532 23.1062 35.8419 23.9227C35.7278 24.7693 35.5886 25.6107 35.5376 26.4701C35.4413 28.0972 35.5465 29.7002 35.9807 31.2728C36.8002 34.2651 38.5599 36.495 41.326 37.8713C42.8598 38.6328 44.4959 39.0048 46.1855 39.1509C47.6951 39.2798 49.1924 39.2 50.6841 38.9925C52.4162 38.7429 54.1067 38.323 55.77 37.7685C56.252 37.6032 56.7279 37.4334 57.2163 37.2627C57.4337 35.3795 57.6502 33.5207 57.8732 31.6199C57.774 31.6747 57.7165 31.705 57.6595 31.7418C55.4268 33.278 52.9743 34.2357 50.2807 34.5143C49.0876 34.6363 47.9006 34.5876 46.7311 34.2901C45.4263 33.9476 44.2847 33.3333 43.366 32.3274C42.453 31.3281 41.9229 30.1217 41.6275 28.8052C41.6214 28.7753 41.6392 28.7438 41.6457 28.702C41.757 28.6951 41.8565 28.6836 41.965 28.6836C43.0831 28.6288 44.2066 28.5862 45.3276 28.5187C47.2738 28.4156 49.2021 28.2143 51.1212 27.8856C52.6218 27.6233 54.101 27.282 55.5413 26.7824C56.9573 26.2892 58.2949 25.6615 59.5057 24.7599C61.3317 23.3952 62.5098 21.6031 62.9646 19.3364C63.1937 18.1775 63.2232 17.0079 63.1217 15.8436ZM57.2665 18.9329C56.9925 20.0178 56.3778 20.8706 55.5401 21.5778C54.7388 22.2665 53.8197 22.7412 52.8432 23.1128C51.6109 23.5961 50.3333 23.8821 49.0314 24.0638C47.5251 24.277 46.0184 24.356 44.5061 24.3077C43.6744 24.277 42.8488 24.2099 42.0232 24.1555C41.9634 24.1555 41.9031 24.1301 41.8063 24.1121C41.8428 23.9722 41.8695 23.8506 41.9031 23.741C42.5117 21.6997 43.5477 19.8954 44.9702 18.3301C46.5911 16.5324 48.5134 15.161 50.7853 14.3328C51.7918 13.9673 52.8282 13.7361 53.9035 13.7721C54.4369 13.784 54.9521 13.8757 55.4438 14.0831C56.3475 14.4486 56.9318 15.1132 57.1912 16.0573C57.4503 17.0079 57.511 17.9696 57.2665 18.9329Z" fill="white"/>
<path d="M88.9667 9.34796C87.8247 8.86671 86.628 8.61094 85.3929 8.54382C83.9283 8.4587 82.4762 8.58065 81.0424 8.90926C78.4661 9.49487 76.3236 10.7987 74.6668 12.8886C74.0225 13.705 73.4802 14.5886 73.0156 15.515C72.9857 15.576 72.9493 15.6362 72.9165 15.6976C72.9011 15.6857 72.8894 15.6796 72.8772 15.6726C73.2022 13.6314 73.5276 11.5963 73.8594 9.53088C71.8829 9.53088 69.9424 9.53088 67.9837 9.53088C66.3147 19.3598 64.6486 29.1755 62.976 39.0118C64.9076 39.0118 66.7963 39.0118 68.6854 39.0118C68.7068 38.932 68.7303 38.8645 68.74 38.7986C69.0893 36.7316 69.4236 34.6543 69.7854 32.5942C70.1468 30.5649 70.5923 28.5543 71.186 26.581C71.876 24.2783 72.7558 22.0472 74.0148 19.9875C75.4519 17.6353 77.3831 15.8134 79.8364 14.5767C81.2884 13.8454 82.8251 13.4431 84.4645 13.5651C85.0493 13.6076 85.6033 13.7533 86.1306 14.0165C86.7417 14.3271 87.1699 14.8144 87.4224 15.4545C87.5641 15.8261 87.6401 16.2099 87.6875 16.6003C87.802 17.5812 87.7178 18.5626 87.5612 19.5247C87.2298 21.5234 86.874 23.522 86.528 25.5158C86.1573 27.6593 85.781 29.7996 85.4107 31.9374C85.0003 34.2954 84.5912 36.6473 84.1812 39.0052C84.1747 39.0724 84.1747 39.1386 84.1691 39.2184C86.11 39.2184 88.0319 39.2184 89.9663 39.2184C89.9845 39.1386 90.0028 39.0724 90.0145 39.0052C90.2614 37.6585 90.5115 36.3133 90.7616 34.9653C91.1683 32.7473 91.5754 30.5342 91.9874 28.3239C92.3731 26.2156 92.7587 24.1126 93.1509 22.0046C93.3945 20.7131 93.6414 19.4154 93.6721 18.0866C93.7049 16.7526 93.6086 15.4361 93.2318 14.1511C92.558 11.8766 91.1412 10.2683 88.9667 9.34796Z" fill="white"/>
<path d="M123.019 9.26896C122.89 9.26896 122.797 9.26896 122.707 9.26896C120.874 9.26896 119.043 9.26896 117.212 9.26282C117 9.26282 116.892 9.32952 116.79 9.51245C114.614 13.4672 112.43 17.4155 110.246 21.3699C108.775 24.0262 107.305 26.6895 105.834 29.3531C105.792 29.4329 105.744 29.5123 105.696 29.5852C105.681 29.5774 105.663 29.5729 105.648 29.5668C104.183 22.8578 102.716 16.1547 101.248 9.44616C99.329 9.44616 97.4342 9.44616 95.5143 9.44616C97.934 19.5124 100.35 29.5668 102.773 39.651C102.891 39.651 102.975 39.651 103.063 39.651C103.617 39.651 104.168 39.6387 104.72 39.651C104.922 39.6567 105.028 39.5892 105.131 39.4181C106.299 37.426 107.481 35.4466 108.664 33.4589C113.389 25.5072 118.113 17.555 122.84 9.59675C122.893 9.50017 122.947 9.40277 123.019 9.26896Z" fill="white"/>
<path d="M205.222 10.7009C203.812 10.7009 202.426 10.7009 201.019 10.7009C200.97 10.9935 200.917 11.2857 200.856 11.5971C201.157 11.5971 201.409 11.5971 201.674 11.6029C201.936 11.6094 202.198 11.5726 202.474 11.6336C202.191 13.1628 201.908 14.6799 201.624 16.2092C201.97 16.2092 202.283 16.2092 202.599 16.2092C202.891 14.6676 203.175 13.1444 203.468 11.6025C204.014 11.5906 204.529 11.609 205.046 11.5906C205.11 11.2796 205.168 10.9931 205.222 10.7009Z" fill="white"/>
</g>
<defs>
<clipPath id="clip0_2102_5706">
<rect width="212" height="40" fill="white"/>
</clipPath>
</defs>
</svg>
