<svg width="160" height="40" viewBox="0 0 160 40" fill="none" xmlns="http://www.w3.org/2000/svg">
<g clip-path="url(#clip0_2102_5728)">
<path d="M51.664 15.702C51.664 12.8461 48.8729 9.81287 44.0431 9.81287C38.6193 9.81287 32.6611 13.7718 31.7506 21.67C30.8202 29.6469 35.8085 33.1922 40.8363 33.1922C45.8642 33.1922 48.4968 31.2423 51.1889 28.6424C48.8729 25.7471 45.884 27.0864 45.3099 27.3818C44.6765 27.697 43.8649 28.1303 42.2022 28.1303C40.2623 28.1303 38.2828 27.2637 38.2828 23.6593C50.7138 22.4381 51.664 18.558 51.664 15.702ZM45.5079 16.1747C45.4287 17.0611 45.0724 18.5777 38.7777 19.4246C40.1039 14.7369 42.6376 14.3824 43.8055 14.3824C44.8942 14.3824 45.587 15.2293 45.5079 16.1747ZM24.4464 16.9429C24.4464 16.9429 21.7741 25.294 21.5564 25.9834C21.4772 25.2743 19.5175 10.2856 19.5175 10.2856C14.9647 10.2856 12.53 13.5157 11.2434 16.9232C11.2434 16.9232 7.99703 25.294 7.71991 26.0031C7.70011 25.3531 7.22504 17.0217 7.22504 17.0217C6.94792 12.8461 3.10776 10.3053 0 10.3053L3.76098 33.0149C8.53149 32.9952 11.1048 29.7848 12.4508 26.3773C12.4508 26.3773 15.321 18.9913 15.4398 18.6564C15.4596 18.9716 17.4985 33.0149 17.4985 33.0149C22.2888 33.0149 24.8621 30.0014 26.2477 26.7122L32.9581 10.3053C28.2271 10.3053 25.733 13.5157 24.4464 16.9429ZM69.2416 9.77348C66.2922 9.77348 64.0356 11.3689 62.1353 13.7127V13.693L63.8377 0.0435791C59.9184 0.0435791 56.7314 3.43132 56.1178 8.47353L53.1486 32.8377C55.4052 32.8377 57.8003 32.1877 59.087 30.5332C60.2351 32.0104 61.9572 33.1922 64.5107 33.1922C71.1221 33.1922 75.6551 25.5501 75.6551 18.3807C75.6155 11.8416 72.4286 9.77348 69.2416 9.77348ZM68.628 21.4927C67.9352 25.491 65.6984 28.2091 63.5408 28.2091C61.3634 28.2091 60.433 27.244 60.433 27.244C60.8487 23.738 61.106 21.5912 61.8978 19.7397C62.6896 17.8883 64.5701 14.9339 66.5298 14.9339C68.4498 14.9339 69.3208 17.4747 68.628 21.4927ZM92.1638 10.3053H87.5517L87.5714 10.0689C87.8882 7.0751 88.6008 5.49941 90.9563 5.24336C92.5597 5.08579 93.2723 4.25856 93.4505 3.35253C93.589 2.64347 94.0245 0.181452 94.0245 0.181452C84.7606 0.122364 81.8508 4.10099 81.0986 10.1674L81.0788 10.3053H80.9798C79.4754 10.3053 77.8127 11.9991 77.5356 14.146L77.4366 14.9339H80.5246L77.9315 36.2451L77.1397 40.0662C77.2386 40.0662 77.3574 40.0859 77.4564 40.0859C81.7914 39.9283 84.5627 36.5208 85.1763 31.5771L87.1954 14.9339H88.6404C90.0656 14.9339 91.7283 13.5157 92.0252 11.1522L92.1638 10.3053ZM116.155 9.91135C110.83 9.91135 105.802 13.8112 104.258 19.9367C102.714 26.0622 105.05 33.3104 112.889 33.3104C120.708 33.3104 125.221 25.7668 125.221 19.4837C125.221 13.24 120.965 9.91135 116.155 9.91135ZM118.313 21.2957C118.035 24.0729 116.808 28.2879 113.443 28.2879C110.058 28.2879 110.533 23.3638 110.87 21.02C111.226 18.5186 112.631 14.9536 115.66 14.9536C118.372 14.9536 118.629 18.164 118.313 21.2957ZM151.528 16.9429C151.528 16.9429 148.856 25.294 148.638 25.9834C148.559 25.2743 146.599 10.2856 146.599 10.2856C142.046 10.2856 139.612 13.5157 138.325 16.9232C138.325 16.9232 135.079 25.294 134.801 26.0031C134.782 25.3531 134.307 17.0217 134.307 17.0217C134.029 12.8461 130.189 10.3053 127.082 10.3053L130.823 33.0149C135.593 32.9952 138.167 29.7848 139.513 26.3773C139.513 26.3773 142.383 18.9913 142.482 18.6564C142.502 18.9716 144.54 33.0149 144.54 33.0149C149.331 33.0149 151.904 30.0014 153.29 26.7122L160 10.3053C155.289 10.3053 152.795 13.5157 151.528 16.9429ZM96.5186 0.181452L92.6389 31.3211L91.8471 35.1618C91.9461 35.1618 92.0648 35.1815 92.1638 35.1815C96.3405 35.1224 99.3097 31.4786 99.8639 26.8894L102.101 9.02502C102.774 3.56919 99.5076 0.181452 96.5186 0.181452Z" fill="white"/>
</g>
<defs>
<clipPath id="clip0_2102_5728">
<rect width="160" height="40" fill="white"/>
</clipPath>
</defs>
</svg>
