<svg width="180" height="40" viewBox="0 0 180 40" fill="none" xmlns="http://www.w3.org/2000/svg">
<g clip-path="url(#clip0_2102_5731)">
<path fill-rule="evenodd" clip-rule="evenodd" d="M93.2928 0.22229H87.6952V38.1112C90.2196 39.0001 93.4025 39.7778 97.1342 39.7778C106.463 39.7778 111.842 34.2223 111.842 26.1112C111.842 18.0001 106.354 13.2223 99.1098 13.2223C96.9147 13.2223 94.6098 13.889 93.4025 14.4445L93.2928 0.22229ZM53.122 2.44451C51.2562 2.44451 49.6098 4.00007 49.6098 5.88896C49.6098 7.88896 51.2562 9.55562 53.122 9.55562C54.9879 9.55562 56.6342 8.00007 56.6342 5.88896C56.6342 4.00007 54.9879 2.44451 53.122 2.44451ZM18.2196 34.1112C17.0123 34.5556 15.6952 34.889 14.2684 34.889C9.32935 34.889 5.92691 31.6667 5.92691 26.6667C5.92691 21.3334 9.4391 18.4445 14.0489 18.4445C15.3659 18.4445 16.683 18.6667 18.0001 19.2223C18.5489 17.7778 19.4269 16.3334 20.4147 15.1112C18.3293 14.0001 16.244 13.4445 13.6098 13.4445C6.25617 13.4445 0.329346 18.5556 0.329346 26.7778C0.329346 34.889 5.92691 40.0001 13.6098 40.0001C16.244 40.0001 18.5489 39.4445 20.8537 38.2223C19.7562 36.889 18.8781 35.5556 18.2196 34.1112ZM33.6952 13.2223C41.2684 13.2223 46.7562 18.6667 46.7562 26.5556C46.7562 34.4445 41.2684 39.7778 33.6952 39.7778C26.2318 39.7778 20.744 34.3334 20.744 26.5556C20.6342 18.6667 26.122 13.2223 33.6952 13.2223ZM26.3415 26.5556C26.3415 21.4445 29.4147 18.1112 33.5854 18.1112C37.8659 18.1112 40.9391 21.3334 40.9391 26.5556C40.9391 31.6667 37.9757 34.889 33.5854 34.889C29.4147 34.889 26.3415 31.6667 26.3415 26.5556ZM50.2684 39.2223H55.8659V13.7778H50.2684V39.2223ZM60.805 15.4445C64.3172 14.1112 68.7074 13.2223 72.3293 13.2223C78.805 13.2223 82.8659 15.6667 82.8659 22.889V39.2223H77.2684V23.3334C77.2684 19.6667 74.9635 18.3334 71.8903 18.3334C69.9147 18.3334 67.9391 18.6667 66.4025 19.1112V39.2223H60.805V15.4445ZM93.2928 34.4445C94.3903 34.7778 95.8171 35.0001 97.244 35.0001C102.403 35.0001 106.134 32.1112 106.134 26.2223C106.134 21.3334 102.622 18.3334 98.3415 18.3334C96.1464 18.3334 94.3903 18.889 93.2928 19.5556V34.4445ZM123.256 18.1112C126 18.1112 128.085 19.3334 128.085 22.1112V24.2223H125.342C118.098 24.2223 113.707 26.7778 113.707 31.889C113.707 37.6667 118.537 39.6667 125.012 39.6667C127.866 39.6667 131.268 39.2223 133.683 38.6667V21.889C133.683 15.5556 129.732 13.2223 124.244 13.2223C121.061 13.2223 118.317 14.0001 116.012 15.3334V20.2223C117.988 19.0001 120.293 18.1112 123.256 18.1112ZM128.085 28.1112H125.671C121.72 28.1112 119.195 29.2223 119.195 31.889C119.195 34.5556 121.61 35.5556 125.012 35.5556C125.89 35.5556 127.098 35.4445 128.085 35.2223V28.1112ZM145.317 35.2223C142.793 35.2223 139.939 34.1112 137.634 32.3334V37.7778C139.5 39.0001 142.463 39.889 145.427 39.889C150.915 39.889 154.976 37.4445 154.976 32.1112C154.976 27.5556 152.451 25.3334 146.744 24.1112C143.89 23.3334 142.793 22.4445 142.793 20.7778C142.793 19.1112 144.11 17.889 146.524 17.889C149.159 17.889 151.354 18.889 153.549 20.4445V15.2223C151.463 13.889 149.159 13.2223 146.305 13.2223C141.146 13.2223 137.305 15.7778 137.305 20.889C137.305 25.3334 139.5 27.4445 144.768 28.6667C148.061 29.5556 149.488 30.2223 149.488 32.3334C149.488 34.3334 147.842 35.2223 145.317 35.2223ZM162.659 27.7778V27.889C162.988 32.4445 166.829 34.889 170.781 34.889C174.293 34.889 176.707 34.1112 179.232 32.4445V37.4445C176.927 39.0001 173.634 39.7778 170.342 39.7778C162.439 39.7778 157.171 34.7778 157.171 26.6667C157.171 18.5556 162.439 13.2223 169.354 13.2223C176.707 13.2223 180.22 18.0001 180.22 24.889V27.7778H162.659ZM169.244 18.0001C172.866 18.0001 174.842 20.2223 174.951 24.1112H162.878C163.646 20.3334 165.951 18.0001 169.244 18.0001Z" fill="white"/>
</g>
<defs>
<clipPath id="clip0_2102_5731">
<rect width="180" height="40" fill="white"/>
</clipPath>
</defs>
</svg>
