<svg width="160" height="40" viewBox="0 0 160 40" fill="none" xmlns="http://www.w3.org/2000/svg">
<g clip-path="url(#clip0_2102_5719)">
<path d="M50.442 31.6514L52.3947 27.0874C54.5327 28.6707 57.3213 29.5087 60.1107 29.5087C62.156 29.5087 63.4573 28.7174 63.4573 27.5067C63.4107 24.1534 51.1393 26.7614 51.046 18.3307C50.9993 14.046 54.8113 10.7394 60.204 10.7394C63.4107 10.7394 66.6187 11.5314 68.896 13.348L67.0713 18.0094C64.976 16.662 62.388 15.7227 59.9247 15.7227C58.2513 15.7227 57.1353 16.514 57.1353 17.5394C57.182 20.846 69.5473 19.0294 69.6867 27.0874C69.6867 31.4654 65.9673 34.5394 60.668 34.5394C56.764 34.5394 53.1853 33.608 50.442 31.6514ZM128.194 25.4347C127.701 26.3105 126.984 27.0394 126.117 27.5466C125.249 28.0539 124.262 28.3213 123.257 28.3214C120.125 28.3214 117.587 25.7774 117.587 22.6394C117.587 19.5014 120.125 16.9574 123.257 16.9574C124.262 16.9575 125.249 17.2248 126.117 17.7321C126.984 18.2394 127.701 18.9683 128.194 19.844L133.623 16.8307C131.589 13.1967 127.711 10.7394 123.257 10.7394C116.698 10.7394 111.381 16.0667 111.381 22.6394C111.381 29.2114 116.698 34.5394 123.257 34.5394C127.711 34.5394 131.589 32.082 133.623 28.448L128.194 25.4347ZM73.2093 34.0734H79.996V0.833374H73.21L73.2093 34.0734ZM137.05 0.833374V34.0734H143.837V24.1147L151.879 34.0734H160.553L150.327 22.2427L159.809 11.2034H151.507L143.837 20.3814V0.833374H137.05ZM100.905 11.2047V13.9067C99.7893 12.0434 97.0467 10.7394 94.1647 10.7394C88.2147 10.7394 83.52 16.0027 83.52 22.616C83.52 29.2294 88.2147 34.5394 94.1647 34.5394C97.0467 34.5394 99.7893 33.2354 100.905 31.372V34.0734H107.691V11.2047H100.905ZM100.905 25.4807C99.9287 27.1107 97.8833 28.3207 95.606 28.3207C92.4733 28.3207 89.9347 25.7774 89.9347 22.6394C89.9347 19.5014 92.4733 16.9574 95.606 16.9574C97.8833 16.9574 99.9287 18.2147 100.905 19.8907V25.4807Z" fill="white"/>
<path d="M14.6013 0.0986328C12.402 0.0986328 10.6193 1.8853 10.6193 4.08863C10.6188 4.61208 10.7214 5.13051 10.9212 5.61431C11.121 6.09812 11.4142 6.53783 11.784 6.90833C12.1537 7.27884 12.5929 7.57289 13.0763 7.77369C13.5597 7.97449 14.0779 8.07811 14.6013 8.07863H18.584V4.08863C18.5849 3.03142 18.1658 2.01714 17.4189 1.26889C16.6721 0.520642 15.6585 0.0996932 14.6013 0.0986328ZM14.6013 10.7386H3.982C1.78267 10.7386 0 12.5253 0 14.7293C0 16.9326 1.78267 18.7193 3.982 18.7193H14.602C16.8007 18.7193 18.584 16.9326 18.584 14.7293C18.584 12.5253 16.8007 10.7386 14.6013 10.7386Z" fill="white"/>
<path d="M39.8226 14.7293C39.8226 12.5253 38.0393 10.7386 35.84 10.7386C33.6406 10.7386 31.858 12.5253 31.858 14.7293V18.7193H35.84C36.8972 18.7182 37.9107 18.2973 38.6576 17.549C39.4044 16.8008 39.8235 15.7865 39.8226 14.7293ZM29.2033 14.7293V4.08863C29.2042 3.03142 28.7851 2.01714 28.0382 1.26889C27.2914 0.520642 26.2779 0.0996932 25.2206 0.0986328C23.0213 0.0986328 21.2386 1.8853 21.2386 4.08863V14.7286C21.2386 16.9333 23.0213 18.72 25.2206 18.72C26.2779 18.7189 27.2914 18.298 28.0382 17.5497C28.7851 16.8015 29.2042 15.7865 29.2033 14.7293Z" fill="white"/>
<path d="M25.2207 40.0001C26.2779 39.999 27.2914 39.5781 28.0382 38.8298C28.7851 38.0816 29.2042 37.0673 29.2033 36.0101C29.2042 34.9528 28.7851 33.9386 28.0382 33.1903C27.2914 32.4421 26.2779 32.0211 25.2207 32.0201H21.2386V36.0101C21.2386 38.2134 23.0213 40.0001 25.2207 40.0001ZM25.2207 29.3601H35.8407C38.0393 29.3601 39.8226 27.5734 39.8226 25.3694C39.8235 24.3122 39.4045 23.2979 38.6576 22.5497C37.9107 21.8014 36.8972 21.3805 35.84 21.3794H25.2207C23.0213 21.3794 21.2386 23.1661 21.2386 25.3694C21.2381 25.8928 21.3407 26.4113 21.5405 26.8951C21.7404 27.3789 22.0335 27.8186 22.4033 28.1891C22.7731 28.5596 23.2122 28.8536 23.6956 29.0544C24.179 29.2552 24.6972 29.3595 25.2207 29.3601Z" fill="white"/>
<path d="M2.00922e-06 25.3694C-0.000523542 25.8928 0.102057 26.4113 0.301887 26.8951C0.501717 27.3789 0.794882 27.8186 1.16465 28.1891C1.53441 28.5596 1.97353 28.8536 2.45693 29.0544C2.94033 29.2552 3.45855 29.3589 3.982 29.3594C5.03922 29.3583 6.05272 28.9374 6.79959 28.1891C7.54647 27.4409 7.96555 26.4266 7.96467 25.3694V21.3794H3.982C1.78267 21.3794 2.00922e-06 23.1661 2.00922e-06 25.3694ZM10.6193 25.3694V36.0094C10.6193 38.2134 12.402 40.0001 14.6013 40.0001C15.6586 39.999 16.6721 39.5781 17.4189 38.8298C18.1658 38.0816 18.5849 37.0673 18.584 36.0101V25.3694C18.5845 24.8459 18.4819 24.3274 18.2821 23.8436C18.0822 23.3597 17.789 22.92 17.4191 22.5495C17.0493 22.1789 16.6101 21.8849 16.1266 21.6842C15.6431 21.4834 15.1248 21.3798 14.6013 21.3794C12.402 21.3794 10.6193 23.1661 10.6193 25.3694Z" fill="white"/>
</g>
<defs>
<clipPath id="clip0_2102_5719">
<rect width="160" height="40" fill="white"/>
</clipPath>
</defs>
</svg>
