<svg width="119" height="40" viewBox="0 0 119 40" fill="none" xmlns="http://www.w3.org/2000/svg">
<g clip-path="url(#clip0_4161_3)">
<path d="M21.092 15.4667H2.97502C1.41124 15.4667 0.152588 16.7238 0.152588 18.2857V36.4191C0.152588 37.981 1.41124 39.2381 2.97502 39.2381H21.092C22.6558 39.2381 23.9144 37.981 23.9144 36.4191V18.2857C23.9144 16.7238 22.6558 15.4667 21.092 15.4667ZM10.3744 32.5714C10.3744 33.1048 9.95483 33.5238 9.42086 33.5238H5.45419C4.92022 33.5238 4.50066 33.1048 4.50066 32.5714V20.8C4.50066 20.2667 4.92022 19.8476 5.45419 19.8476H9.42086C9.95483 19.8476 10.3744 20.2667 10.3744 20.8V32.5714ZM19.5282 27.1619C19.5282 27.6952 19.1087 28.1143 18.6128 28.1143H14.608C14.0741 28.1143 13.6545 27.6952 13.6545 27.1619V20.8C13.6545 20.2667 14.0741 19.8476 14.608 19.8476H18.5747C19.1087 19.8476 19.5282 20.2667 19.5282 20.8V27.1619Z" fill="white"/>
<path d="M49.4308 17.2191V21.8286H43.9766V39.2381H38.7131V21.7905H33.259V17.2191H49.4308Z" fill="white"/>
<path d="M56.1436 39.2381H51.2997V22.0953H56.1436V25.3714C57.059 23.0476 58.5465 21.6762 61.1782 21.8667V26.9334C57.7455 26.6667 56.1436 27.5048 56.1436 30.2476V39.2381Z" fill="white"/>
<path d="M87.7244 39.3905C84.5205 39.3905 82.5372 37.8667 82.5372 34.2476V15.4667H87.4192V33.5619C87.4192 34.5905 88.1058 34.9714 88.9449 34.9714C89.1737 34.9714 89.4407 34.9714 89.6695 34.9333V39.1619C89.0211 39.3143 88.3727 39.3905 87.7244 39.3905Z" fill="white"/>
<path d="M97.9462 39.3905C94.7423 39.3905 92.759 37.8667 92.759 34.2476V15.4667H97.641V33.5619C97.641 34.5905 98.3276 34.9714 99.1667 34.9714C99.3955 34.9714 99.6625 34.9714 99.8913 34.9333V39.1619C99.2429 39.3143 98.5946 39.3905 97.9462 39.3905Z" fill="white"/>
<path d="M102.218 30.6667C102.218 25.3714 105.269 21.7524 110.533 21.7524C115.796 21.7524 118.771 25.3714 118.771 30.6667C118.771 35.9619 115.758 39.6571 110.533 39.6571C105.307 39.6571 102.218 35.9238 102.218 30.6667ZM106.986 30.6667C106.986 33.2571 108.054 35.2762 110.533 35.2762C113.012 35.2762 114.004 33.219 114.004 30.6667C114.004 28.1143 112.936 26.0952 110.533 26.0952C108.13 26.0952 106.986 28.0762 106.986 30.6667Z" fill="white"/>
<path d="M67.7385 32.2286C69.1115 32.381 70.4846 32.4572 71.8195 32.4572C75.5574 32.4572 78.6849 31.4667 78.6849 27.8476C78.6849 24.3429 75.4429 21.7143 71.5526 21.7143C66.3272 21.7143 62.9708 25.5238 62.9708 30.781C62.9708 36.2667 65.8695 39.5429 72.3917 39.5429C74.3369 39.581 76.2439 39.2381 78.0747 38.5524V34.4381C76.3965 34.9714 74.4894 35.5048 72.5824 35.5048C69.9888 35.5429 68.1961 34.6667 67.7385 32.2286ZM71.4763 25.4857C72.8494 25.4857 73.9554 26.4 73.9554 27.6952C73.9554 29.3333 72.201 29.8667 70.2176 29.8667C69.3785 29.8667 68.5013 29.7905 67.6622 29.6762C67.7385 28.8762 67.9673 28.1143 68.3487 27.3905C68.959 26.2095 70.1795 25.4857 71.4763 25.4857Z" fill="white"/>
<path d="M73.5741 6.36189C73.5741 4.83808 72.5824 4.15237 70.7516 3.69522C69.6074 3.39046 69.3404 3.16189 69.3404 2.78094C69.3404 2.3238 69.76 2.09522 70.5228 2.09522C71.4382 2.13332 72.3535 2.36189 73.1926 2.78094V0.876177C72.3917 0.495225 71.4763 0.304749 70.5991 0.304749C68.5776 0.304749 67.4715 1.25713 67.4715 2.81903C67.4715 4.30475 68.4632 5.06665 70.1414 5.44761C71.3237 5.71427 71.667 5.90475 71.667 6.39999C71.667 6.78094 71.4 7.0857 70.5228 7.0857C69.4548 7.04761 68.3869 6.74284 67.4333 6.20951V8.22856C68.3869 8.6857 69.4167 8.95237 70.4846 8.95237C72.5442 8.95237 73.5741 7.9238 73.5741 6.36189Z" fill="white"/>
<path d="M96.6112 0.457102V8.83805H98.4038V2.43805L99.1667 4.11424L101.684 8.79996H103.934V0.419006H102.142V5.82853L101.455 4.26663L99.4336 0.419006H96.6112V0.457102Z" fill="white"/>
<path d="M85.2833 0.457153H83.3381V8.83811H85.2833V0.457153Z" fill="white"/>
<path d="M52.3295 0.457153V8.83811H56.3343L56.9445 7.00953H54.2747V0.457153H52.3295Z" fill="white"/>
<path d="M44.3962 0.457153V2.28572H46.5702V8.83811H48.5154V2.28572H50.842V0.457153H44.3962Z" fill="white"/>
<path d="M41.5737 0.457153H39.0183L36.0814 8.83811H38.3317L38.7513 7.42858C39.2471 7.58096 39.7811 7.65715 40.3151 7.65715C40.849 7.65715 41.383 7.58096 41.8789 7.42858L42.2984 8.83811H44.5487L41.5737 0.457153ZM40.2769 5.90477C39.8955 5.90477 39.5523 5.86668 39.209 5.75239L40.2769 2.09525L41.3449 5.75239C41.0016 5.86668 40.6583 5.90477 40.2769 5.90477Z" fill="white"/>
<path d="M63.1997 0.457153H60.6443L57.7074 8.83811H59.9577L60.3773 7.42858C60.8731 7.58096 61.4071 7.65715 61.9411 7.65715C62.475 7.65715 63.009 7.58096 63.5048 7.42858L63.9244 8.83811H66.1747L63.1997 0.457153ZM61.9411 5.90477C61.5596 5.90477 61.2164 5.86668 60.8731 5.75239L61.9411 2.09525L63.009 5.75239C62.6657 5.86668 62.2843 5.90477 61.9411 5.90477Z" fill="white"/>
<path d="M92.3013 0.457153H89.7458L86.809 8.83811H89.0593L89.4788 7.42858C89.9747 7.58096 90.5086 7.65715 91.0426 7.65715C91.5766 7.65715 92.1106 7.58096 92.6064 7.42858L93.0259 8.83811H95.2763L92.3013 0.457153ZM91.0045 5.90477C90.6231 5.90477 90.2798 5.86668 89.9365 5.75239L91.0045 2.09525L92.0724 5.75239C91.7291 5.86668 91.3859 5.90477 91.0045 5.90477Z" fill="white"/>
<path d="M81.3167 6.36189C81.3167 4.83808 80.325 4.15237 78.4942 3.69522C77.35 3.39046 77.083 3.16189 77.083 2.78094C77.083 2.3238 77.5026 2.09522 78.2272 2.09522C79.1426 2.13332 80.058 2.36189 80.8971 2.78094V0.876177C80.058 0.495225 79.1808 0.304749 78.2654 0.304749C76.2439 0.304749 75.1378 1.25713 75.1378 2.81903C75.1378 4.30475 76.1295 5.06665 77.8077 5.44761C78.9901 5.71427 79.3333 5.90475 79.3333 6.39999C79.3333 6.78094 79.0663 7.0857 78.1891 7.0857C77.1211 7.04761 76.0532 6.74284 75.0997 6.20951V8.22856C76.0532 8.6857 77.083 8.95237 78.151 8.95237C80.325 8.95237 81.3167 7.9238 81.3167 6.36189Z" fill="white"/>
</g>
<defs>
<clipPath id="clip0_4161_3">
<rect width="119" height="40" fill="white"/>
</clipPath>
</defs>
</svg>
