<svg width="30" height="30" viewBox="0 0 30 30" fill="none" xmlns="http://www.w3.org/2000/svg">
<g clip-path="url(#clip0_2102_6425)">
<path d="M28.3927 1.44647e-06H25.1838C24.9727 -0.000283374 24.7636 0.0414971 24.5684 0.122949C24.3733 0.204401 24.1961 0.323924 24.0468 0.474671C23.8975 0.625418 23.7791 0.804426 23.6984 1.00144C23.6178 1.19846 23.5764 1.4096 23.5767 1.62279V2.5586H21.9589C21.8169 2.5586 21.6806 2.61559 21.5801 2.71704C21.4797 2.81848 21.4232 2.95607 21.4232 3.09953C21.4232 3.243 21.4797 3.38058 21.5801 3.48203C21.6806 3.58347 21.8169 3.64046 21.9589 3.64046H23.5767V4.86297C23.577 5.29325 23.7464 5.70582 24.0478 6.01008C24.3491 6.31433 24.7577 6.48542 25.1838 6.48576H26.2499V8.64935C26.2499 8.79281 26.3063 8.9304 26.4068 9.03185C26.5073 9.13329 26.6435 9.19028 26.7856 9.19028C26.9277 9.19028 27.0639 9.13329 27.1644 9.03185C27.2649 8.9304 27.3213 8.79281 27.3213 8.64935V6.48576H28.3927C28.8186 6.4845 29.2267 6.31312 29.5278 6.00906C29.8289 5.705 29.9986 5.29297 29.9999 4.86297V1.62279C29.9995 1.19251 29.8301 0.779941 29.5288 0.475683C29.2275 0.171424 28.8189 0.000342401 28.3927 1.44647e-06Z" fill="#C4F500"/>
<path d="M28.393 23.5144H27.3216V22.1728C27.3216 22.0293 27.2652 21.8917 27.1647 21.7903C27.0642 21.6888 26.928 21.6318 26.7859 21.6318C26.6438 21.6318 26.5075 21.6888 26.4071 21.7903C26.3066 21.8917 26.2502 22.0293 26.2502 22.1728V23.5144H25.1841C24.758 23.5147 24.3494 23.6858 24.048 23.9901C23.7467 24.2943 23.5773 24.7069 23.577 25.1372V26.3597H21.434C21.2936 26.3622 21.1597 26.4203 21.0613 26.5215C20.9629 26.6227 20.9078 26.7588 20.9078 26.9006C20.9078 27.0424 20.9629 27.1786 21.0613 27.2798C21.1598 27.3809 21.2936 27.439 21.434 27.4416H23.577V28.3774C23.5767 28.5906 23.618 28.8017 23.6987 28.9987C23.7794 29.1957 23.8977 29.3747 24.047 29.5255C24.1963 29.6762 24.3736 29.7958 24.5687 29.8772C24.7638 29.9587 24.973 30.0004 25.1841 30.0002H28.393C28.8192 29.9998 29.2278 29.8287 29.5291 29.5245C29.8304 29.2202 29.9998 28.8076 30.0002 28.3774V25.1372C29.9989 24.7072 29.8292 24.2951 29.5281 23.9911C29.2269 23.687 28.8189 23.5157 28.393 23.5144Z" fill="#C4F500"/>
<path d="M1.60714 6.48576H2.67857V8.64935C2.68066 8.79142 2.73802 8.92696 2.83826 9.02669C2.9385 9.12641 3.07357 9.18231 3.21429 9.18231C3.35501 9.18231 3.49008 9.12641 3.59031 9.02669C3.69055 8.92696 3.74791 8.79142 3.75 8.64935V6.48576H4.81607C5.24221 6.48542 5.6508 6.31433 5.95212 6.01008C6.25344 5.70582 6.42288 5.29325 6.42321 4.86297V3.64046H8.5662C8.70828 3.64046 8.84454 3.58347 8.94501 3.48203C9.04547 3.38058 9.10191 3.243 9.10191 3.09953C9.10191 2.95607 9.04547 2.81848 8.94501 2.71704C8.84454 2.61559 8.70828 2.5586 8.5662 2.5586H6.42321V1.62279C6.4235 1.4096 6.38212 1.19846 6.30145 1.00144C6.22079 0.804426 6.10242 0.625418 5.95312 0.474671C5.80383 0.323924 5.62655 0.204401 5.43143 0.122949C5.23632 0.0414971 5.0272 -0.000283374 4.81607 1.44647e-06H1.60714C1.18101 0.000342401 0.772419 0.171424 0.471094 0.475683C0.16977 0.779941 0.000337667 1.19251 0 1.62279V4.86297C0.00124794 5.29297 0.170972 5.705 0.4721 6.00906C0.773227 6.31312 1.18129 6.4845 1.60714 6.48576Z" fill="#C4F500"/>
<path d="M3.21418 16.2227C3.14376 16.2224 3.07398 16.2362 3.00887 16.2633C2.94375 16.2904 2.88459 16.3302 2.83479 16.3805C2.785 16.4308 2.74555 16.4905 2.71872 16.5563C2.69189 16.622 2.67821 16.6925 2.67847 16.7636V19.4682C2.67847 19.6117 2.73491 19.7493 2.83538 19.8507C2.93584 19.9522 3.0721 20.0092 3.21418 20.0092C3.35627 20.0092 3.49253 19.9522 3.59299 19.8507C3.69346 19.7493 3.7499 19.6117 3.7499 19.4682V16.7636C3.74945 16.6203 3.69286 16.4829 3.59249 16.3816C3.49213 16.2803 3.35613 16.2231 3.21418 16.2227Z" fill="#C4F500"/>
<path d="M3.7499 11.3543C3.74781 11.2122 3.69045 11.0766 3.59021 10.9769C3.48997 10.8772 3.3549 10.8213 3.21418 10.8213C3.07346 10.8213 2.93839 10.8772 2.83815 10.9769C2.73791 11.0766 2.68055 11.2122 2.67847 11.3543V14.0589C2.68055 14.201 2.73791 14.3365 2.83815 14.4362C2.93839 14.536 3.07346 14.5919 3.21418 14.5919C3.3549 14.5919 3.48997 14.536 3.59021 14.4362C3.69045 14.3365 3.74781 14.201 3.7499 14.0589V11.3543Z" fill="#C4F500"/>
<path d="M18.7552 26.3594H16.0767C15.9363 26.3619 15.8024 26.42 15.704 26.5212C15.6056 26.6224 15.5505 26.7585 15.5505 26.9003C15.5505 27.0421 15.6056 27.1783 15.704 27.2794C15.8025 27.3806 15.9363 27.4387 16.0767 27.4412H18.7552C18.896 27.4391 19.0302 27.3812 19.1289 27.28C19.2277 27.1788 19.2831 27.0424 19.2831 26.9003C19.2831 26.7582 19.2277 26.6218 19.1289 26.5206C19.0302 26.4194 18.896 26.3615 18.7552 26.3594Z" fill="#C4F500"/>
<path d="M8.04095 26.3595H6.42321V25.137C6.42288 24.7067 6.25345 24.2942 5.95213 23.9899C5.6508 23.6857 5.24221 23.5146 4.81607 23.5142H3.75V22.1726C3.74791 22.0305 3.69055 21.895 3.59031 21.7953C3.49008 21.6955 3.35501 21.6396 3.21429 21.6396C3.07357 21.6396 2.9385 21.6955 2.83826 21.7953C2.73802 21.895 2.68066 22.0305 2.67857 22.1726V23.5142H1.60714C1.18128 23.5155 0.773222 23.6869 0.472094 23.9909C0.170965 24.295 0.00124231 24.707 0 25.137V28.3772C0.000332 28.8075 0.169762 29.2201 0.471088 29.5243C0.772414 29.8286 1.181 29.9997 1.60714 30H4.81607C5.0272 30.0003 5.23632 29.9585 5.43144 29.8771C5.62655 29.7956 5.80384 29.6761 5.95313 29.5253C6.10243 29.3746 6.2208 29.1956 6.30146 28.9986C6.38213 28.8015 6.4235 28.5904 6.42321 28.3772V27.4414H8.04095C8.18166 27.4393 8.31589 27.3814 8.41465 27.2802C8.51342 27.1789 8.56878 27.0426 8.56878 26.9005C8.56878 26.7584 8.51341 26.622 8.41465 26.5208C8.31589 26.4196 8.18165 26.3616 8.04095 26.3595Z" fill="#C4F500"/>
<path d="M13.3983 26.3594H10.7197C10.5793 26.3619 10.4454 26.42 10.347 26.5212C10.2486 26.6224 10.1935 26.7585 10.1935 26.9003C10.1935 27.0421 10.2486 27.1783 10.3471 27.2794C10.4455 27.3806 10.5793 27.4387 10.7197 27.4412H13.3983C13.539 27.4391 13.6732 27.3812 13.772 27.28C13.8707 27.1788 13.9261 27.0424 13.9261 26.9003C13.9261 26.7582 13.8707 26.6218 13.772 26.5206C13.6732 26.4194 13.539 26.3615 13.3983 26.3594Z" fill="#C4F500"/>
<path d="M26.25 19.4681C26.2521 19.6102 26.3095 19.7457 26.4097 19.8454C26.5099 19.9451 26.645 20.001 26.7857 20.001C26.9264 20.001 27.0615 19.9451 27.1618 19.8454C27.262 19.7457 27.3193 19.6101 27.3214 19.4681V16.7634C27.3193 16.6214 27.262 16.4858 27.1617 16.3861C27.0615 16.2864 26.9264 16.2305 26.7857 16.2305C26.645 16.2305 26.5099 16.2864 26.4097 16.3861C26.3094 16.4858 26.2521 16.6214 26.25 16.7634V19.4681Z" fill="#C4F500"/>
<path d="M26.7857 14.5995C26.8561 14.5997 26.9259 14.5859 26.991 14.5588C27.0561 14.5317 27.1153 14.4919 27.1651 14.4416C27.2148 14.3913 27.2543 14.3316 27.2811 14.2659C27.308 14.2001 27.3217 14.1297 27.3214 14.0586V11.3539C27.3214 11.2105 27.265 11.0729 27.1645 10.9714C27.0641 10.87 26.9278 10.813 26.7857 10.813C26.6436 10.813 26.5074 10.87 26.4069 10.9714C26.3064 11.0729 26.25 11.2105 26.25 11.3539V14.0586C26.2504 14.2019 26.307 14.3393 26.4074 14.4406C26.5077 14.542 26.6438 14.5991 26.7857 14.5995Z" fill="#C4F500"/>
<path d="M11.2446 3.64045H13.9232C14.0639 3.63835 14.1981 3.58043 14.2969 3.47921C14.3957 3.378 14.451 3.24161 14.451 3.09952C14.451 2.95743 14.3957 2.82105 14.2969 2.71983C14.1981 2.61862 14.0639 2.5607 13.9232 2.55859H11.2446C11.1039 2.5606 10.9695 2.61848 10.8707 2.7197C10.7718 2.82093 10.7164 2.95737 10.7164 3.09952C10.7164 3.24168 10.7718 3.37812 10.8707 3.47934C10.9695 3.58057 11.1039 3.63844 11.2446 3.64045Z" fill="#C4F500"/>
<path d="M16.6019 3.64045H19.2805C19.4212 3.63835 19.5554 3.58043 19.6542 3.47921C19.753 3.378 19.8083 3.24161 19.8083 3.09952C19.8083 2.95743 19.753 2.82105 19.6542 2.71983C19.5554 2.61862 19.4212 2.5607 19.2805 2.55859H16.6019C16.4612 2.5606 16.3268 2.61848 16.228 2.7197C16.1291 2.82093 16.0737 2.95737 16.0737 3.09952C16.0737 3.24168 16.1291 3.37812 16.228 3.47934C16.3268 3.58057 16.4612 3.63844 16.6019 3.64045Z" fill="#C4F500"/>
<path d="M8.35197 10.3101C8.18045 10.4203 8.03916 10.5723 7.9411 10.7522C7.84304 10.932 7.79137 11.1338 7.79084 11.3391C7.79031 11.5444 7.84094 11.7465 7.93807 11.9268C8.0352 12.1072 8.17571 12.2599 8.34665 12.3711L14.3627 16.1522C14.5529 16.2727 14.7729 16.3367 14.9975 16.3367C15.2221 16.3367 15.4421 16.2727 15.6323 16.1522L21.6538 12.3656C21.8243 12.2551 21.9647 12.1031 22.0619 11.9235C22.1591 11.7439 22.2101 11.5425 22.2101 11.3379C22.2101 11.1332 22.1591 10.9318 22.0619 10.7522C21.9647 10.5727 21.8243 10.4206 21.6537 10.3101L15.6805 6.52901C15.4904 6.40887 15.2708 6.34472 15.0465 6.34376C14.8222 6.34281 14.602 6.40509 14.4109 6.5236L8.35197 10.3101Z" fill="#C4F500"/>
<path d="M21.6537 13.9724L21.3912 13.8047L16.2001 17.0719C15.8387 17.2972 15.4223 17.4166 14.9975 17.4166C14.5727 17.4166 14.1562 17.2972 13.7948 17.0719C13.0574 16.608 9.26606 14.22 8.60907 13.8101C8.37211 13.9079 8.1682 14.0728 8.02185 14.2849C7.87549 14.497 7.79294 14.7472 7.78411 15.0056C7.78218 15.2106 7.833 15.4126 7.9316 15.5918C8.03019 15.771 8.17318 15.9213 8.34657 16.0279L14.3626 19.8144C14.5533 19.9339 14.7731 19.9972 14.9975 19.9972C15.2218 19.9972 15.4417 19.9339 15.6323 19.8144L21.6537 16.0279C21.8243 15.9174 21.9647 15.7654 22.0619 15.5858C22.1591 15.4062 22.2101 15.2048 22.2101 15.0001C22.2101 14.7955 22.1591 14.5941 22.0619 14.4145C21.9647 14.2349 21.8243 14.0829 21.6537 13.9724Z" fill="#C4F500"/>
<path d="M21.6537 19.6846C21.8462 19.5576 21.9998 19.3787 22.097 19.1683C22.1943 18.9578 22.2313 18.7241 22.204 18.4935C22.1768 18.2629 22.0862 18.0445 21.9426 17.8632C21.7989 17.6818 21.608 17.5445 21.3912 17.4668C20.7629 17.8547 16.9168 20.279 16.2001 20.7286C15.8411 20.9574 15.4254 21.0793 15.0009 21.0802C14.5763 21.0812 14.1601 20.9612 13.8001 20.734C13.0652 20.2716 9.26046 17.8785 8.60904 17.4668C8.37227 17.5649 8.16853 17.7298 8.02222 17.9419C7.87591 18.1539 7.79323 18.404 7.78408 18.6623C7.78274 18.8679 7.83376 19.0704 7.93225 19.2504C8.03075 19.4304 8.17341 19.5817 8.34654 19.69L14.3626 23.4765C14.554 23.5944 14.774 23.6563 14.9982 23.6554C15.2224 23.6544 15.4419 23.5906 15.6322 23.4711L21.6537 19.6846Z" fill="#C4F500"/>
</g>
<defs>
<clipPath id="clip0_2102_6425">
<rect width="30" height="30" fill="white"/>
</clipPath>
</defs>
</svg>
