<svg width="30" height="30" viewBox="0 0 30 30" fill="none" xmlns="http://www.w3.org/2000/svg">
<path d="M18.5801 11.6777C16.6055 10.3008 13.7461 11.8828 13.7812 14.2676C13.7812 15.9785 15.1699 17.3672 16.8809 17.3672C18.709 17.3848 20.1914 15.6914 19.9453 13.8574L22.4355 12.293C23.8301 16.0137 20.877 20.2324 16.8809 20.1562C13.752 20.168 11.3086 17.748 11.0098 14.7891C12.0352 14.2734 12.293 12.7793 11.4551 11.9766C12.9902 8.16797 18.1816 7.13086 21.0586 10.1191L18.5801 11.6777ZM10.418 11.4258C10.5352 11.4434 10.6465 11.4785 10.7578 11.5195C12.6094 7.18945 18.6094 6.19336 21.7676 9.67383L24.0586 8.23242C21.457 4.96289 16.2598 3.86719 12.5156 5.96484V6.59766C12.5156 7.88672 11.4375 8.91797 10.1543 8.87109C10.2188 9.72656 10.3066 10.582 10.418 11.4258ZM23.1387 11.8477C25.6523 18.6504 17.2734 24.0527 12.1172 18.9844C12.1875 19.1953 12.2578 19.4121 12.3281 19.623C13.3242 19.9746 13.8223 20.9766 13.7227 21.9961C14.25 22.2422 14.6543 22.7637 14.7891 23.4023C20.5488 24.791 26.332 20.1973 26.2559 14.2617C26.2559 12.8848 25.9629 11.584 25.4297 10.4063L23.1387 11.8477ZM16.1953 13.1777L17.7891 12.1758C16.3301 11.502 14.5781 12.668 14.5957 14.2676C14.7129 17.2559 18.9316 17.291 19.1484 14.3613L17.5664 15.3574C16.0898 16.2129 14.7832 14.1211 16.1953 13.1777ZM29.5195 7.34766L28.1016 7.22461L28.5996 5.96484C28.6699 5.7832 28.623 5.57227 28.4766 5.44336C28.3301 5.31445 28.1191 5.28516 27.9434 5.37891L25.5117 6.64453C25.3477 6.73242 25.248 6.90234 25.2598 7.08984L25.3359 8.40234C25.3008 8.42578 25.2598 8.44922 25.2188 8.47852C25.2188 8.47852 25.2188 8.47852 25.2129 8.47852L16.6289 13.875C16.4121 14.0156 16.3418 14.3027 16.4766 14.5254C16.6172 14.748 16.9102 14.8125 17.127 14.6719C17.1914 14.625 23.1973 10.8691 25.166 9.62109C25.3711 9.50391 25.6113 9.33984 25.7871 9.22852C25.9453 9.29297 27.0469 9.92578 27.1875 9.89062C27.2812 9.89062 27.375 9.86133 27.457 9.80859L29.7422 8.21484C30.1055 7.97461 29.9414 7.37109 29.5195 7.34766ZM13.043 22.6641H12.9082H1.17773H1.04297C0.498047 22.6641 0.0585938 23.209 0.0585938 23.8828V26.1328H14.0273V23.8828C14.0273 23.209 13.5879 22.6641 13.043 22.6641ZM2.94141 13.2715C2.98242 13.7988 3.45703 14.1855 3.97852 14.1855H10.1602C10.7227 14.1855 11.1738 13.7227 11.1504 13.1602C11.1328 12.6387 10.6348 12.2168 10.1133 12.2168H3.92578C3.35156 12.2109 2.90625 12.6973 2.94141 13.2715ZM4.74609 8.87109C4.6875 9.67383 4.60547 10.5176 4.48828 11.3965H9.5918C9.47461 10.5176 9.39258 9.66797 9.33398 8.87109H4.74609ZM11.4258 19.4941C10.9805 18.1406 10.5586 16.6406 10.207 14.9883C10.1016 15 4.07812 14.9883 3.97266 14.9941C3.9375 14.9941 3.90234 14.9941 3.86719 14.9883C3.51562 16.6406 3.09375 18.1406 2.6543 19.4941H11.4258ZM3.84375 8.05664H10.2363C11.0391 8.05664 11.6953 7.40625 11.6953 6.59766V3.86719H10.3359C10.0371 3.86719 9.79688 4.10742 9.79688 4.40625V5.71289H8.20898V4.40625C8.20898 4.11328 7.96875 3.86719 7.66992 3.86719H6.41016C6.11133 3.86719 5.87109 4.10742 5.87109 4.40625V5.71289H4.28906V4.40625C4.28906 4.11328 4.04883 3.86719 3.75 3.86719H2.38477V6.59766C2.38477 7.40039 3.04102 8.05664 3.84375 8.05664ZM12.9082 21.8496V21.6152C12.9141 20.9004 12.3164 20.3086 11.6016 20.3086H2.48438C1.65234 20.3027 1.08398 21.0527 1.17773 21.8438H12.9082V21.8496Z" fill="#C4F500"/>
</svg>
