<svg width="367" height="78" viewBox="0 0 367 78" fill="none" xmlns="http://www.w3.org/2000/svg">
<path d="M24.1666 54.4184C24.1666 54.4777 23.9656 54.4777 23.9656 54.5369C24.0661 54.4777 24.1666 54.4777 24.1666 54.4184Z" fill="white"/>
<path d="M24.4683 76.2753C24.5688 76.1568 24.3677 76.0976 24.3677 75.9791C24.0661 76.2161 23.7645 76.2161 23.4629 76.2753C23.7645 76.2753 24.0661 76.3938 24.4683 76.2753Z" fill="white"/>
<path d="M24.1666 40.6765C24.3677 40.4988 24.5688 40.2618 24.7699 40.0841C24.5688 40.0841 24.3677 40.3803 24.1666 40.6765Z" fill="white"/>
<path d="M-3.28044 44.4081C-3.1799 44.2897 -3.07936 44.3489 -2.97882 44.2304C-3.07936 44.2304 -3.1799 44.2897 -3.28044 44.2897C-3.28044 44.2897 -3.38098 44.3489 -3.28044 44.4081Z" fill="white"/>
<path d="M1.44489 62.2372C1.44489 62.1779 1.54542 62.1779 1.54542 62.1779C1.54542 62.1779 1.54542 62.0595 1.44489 62.0002C1.44489 62.1187 1.44489 62.1779 1.44489 62.2372Z" fill="white"/>
<path d="M-5.19067 70.9444C-5.19067 70.9444 -5.29121 70.9444 -5.39175 71.0036C-5.29121 71.0036 -5.19067 70.9444 -5.19067 70.9444Z" fill="white"/>
<path d="M28.3893 17.4573V17.5165C28.4898 17.5165 28.5903 17.5757 28.5903 17.5757C28.5903 17.4573 28.4898 17.5165 28.3893 17.4573Z" fill="white"/>
<path d="M95.6497 52.2861C95.8508 52.3453 96.0518 52.3453 96.1524 52.4045C96.0518 52.1676 95.8508 52.1084 95.6497 52.2861Z" fill="white"/>
<path d="M112.741 19.4712C112.54 19.5304 112.339 19.5304 112.138 19.5896C112.339 19.6489 112.44 19.5896 112.641 19.7081C112.641 19.5896 112.741 19.5304 112.741 19.4712Z" fill="white"/>
<path d="M75.9441 9.75701C75.9441 9.75701 76.0446 9.69778 75.9441 9.63855H75.8435C76.0446 9.69778 75.9441 9.75701 75.9441 9.75701Z" fill="white"/>
<path d="M67.5993 23.499C67.5993 23.6175 67.5993 23.6767 67.5993 23.7952C67.6999 23.7359 67.8004 23.6175 67.901 23.5582C67.8004 23.499 67.6999 23.5582 67.5993 23.499Z" fill="white"/>
<path d="M68.2026 29.1261C68.2026 29.1853 68.1021 29.2446 68.1021 29.3038C68.2026 29.2446 68.2026 29.1853 68.2026 29.1261Z" fill="white"/>
<path d="M99.1685 20.2412C98.3642 20.0635 97.6604 20.0043 96.9567 19.5896C96.9567 19.8858 97.4594 19.945 97.3588 20.3004C97.9621 20.3004 98.5653 20.3004 99.1685 20.2412Z" fill="white"/>
<path d="M8.4826 26.9345C8.4826 26.8753 8.4826 26.816 8.4826 26.816H8.38206C8.4826 26.8753 8.4826 26.8753 8.4826 26.9345Z" fill="white"/>
<path d="M-14.5408 78.6446H-15.0435C-14.8424 78.7038 -14.7419 78.7038 -14.5408 78.7631C-14.5408 78.7631 -14.5408 78.7038 -14.5408 78.6446Z" fill="white"/>
<path d="M18.1343 57.4393C18.1343 57.4393 18.1343 57.3801 18.2349 57.3801C18.1343 57.3208 18.1343 57.2616 18.0338 57.2024C18.0338 57.2616 18.1343 57.3801 18.1343 57.4393Z" fill="white"/>
<path d="M-14.0381 79C-14.2392 78.8815 -14.3397 78.8223 -14.5408 78.7631C-14.3397 78.8223 -14.2392 78.9408 -14.0381 79Z" fill="white"/>
<path d="M10.9961 39.4918C10.9961 39.4326 10.9961 39.3733 10.9961 39.3733C10.8955 39.4326 10.9961 39.4326 10.9961 39.4918Z" fill="white"/>
<path d="M9.7896 19.1158C9.99068 19.2935 9.89014 19.4712 9.99068 19.6489C10.0912 19.5304 10.2923 19.4119 10.3928 19.2935C10.1918 19.175 10.0912 19.3527 9.7896 19.1158Z" fill="white"/>
<path d="M14.2133 21.4851C13.8111 21.3074 13.7106 21.0112 13.5095 20.8335C13.409 21.1889 13.7106 21.6035 13.5095 21.8997C13.7106 21.7812 13.9117 21.6035 14.2133 21.4851Z" fill="white"/>
<path d="M14.0122 32.3839C14.4144 32.5024 14.4144 32.8578 14.6155 33.0354C14.6155 32.5024 14.5149 32.0285 14.716 31.5546C14.4144 31.7916 14.2133 32.0877 14.0122 32.3839Z" fill="white"/>
<path d="M1.34435 72.1882C1.44489 72.1882 1.44489 72.2475 1.44489 72.2475C1.44489 72.1882 1.34435 72.1882 1.34435 72.129V72.1882Z" fill="white"/>
<path d="M335.435 55.2477C334.932 55.6031 334.53 55.6623 334.228 55.7808C334.53 55.7216 334.932 55.4846 335.435 55.2477Z" fill="white"/>
<path d="M356.447 38.1887H356.246C356.347 38.1887 356.347 38.1887 356.447 38.1887Z" fill="white"/>
<path d="M120.181 25.8091C120.081 25.7498 120.081 25.7498 119.98 25.6906C119.98 25.7498 119.88 25.8091 119.88 25.8683C119.98 25.7498 119.98 25.8683 120.181 25.8091Z" fill="white"/>
<path d="M326.587 46.5997C326.688 46.5405 326.788 46.422 326.889 46.3628C326.788 46.422 326.688 46.4813 326.587 46.5997Z" fill="white"/>
<path d="M-40.4798 47.3698C-40.2787 47.429 -40.1782 47.5475 -39.9771 47.6659C-40.0776 47.4882 -40.2787 47.429 -40.4798 47.3698Z" fill="white"/>
<path d="M380.174 75.5053C380.174 75.446 380.174 75.446 380.174 75.446C379.973 75.5053 379.772 75.446 379.571 75.5645C379.772 75.5645 379.973 75.5053 380.174 75.5053Z" fill="white"/>
<path d="M177.589 43.875C177.388 43.6973 177.187 43.6973 176.986 43.6381C176.784 43.8158 177.086 43.9343 176.282 44.112C176.282 44.1712 176.382 44.1712 176.382 44.2304C176.784 43.9343 177.086 43.6381 177.589 43.875Z" fill="white"/>
<path d="M287.88 39.551C287.679 39.551 287.578 39.4918 287.377 39.4918C287.176 39.788 286.975 40.0249 286.774 40.3803C287.176 40.1434 287.377 39.6695 287.88 39.551Z" fill="white"/>
<path d="M164.619 28.4153C164.519 28.4153 164.318 28.4745 164.217 28.4745C164.217 28.4745 164.318 28.5338 164.318 28.593C164.418 28.5338 164.519 28.4745 164.619 28.4153Z" fill="white"/>
<path d="M133.955 29.0669C133.754 29.0669 133.754 28.8892 133.452 28.8892C133.452 28.9484 133.452 29.0076 133.452 29.0669C133.754 28.9484 133.754 29.0669 133.955 29.0669Z" fill="white"/>
<path d="M279.334 67.9827C279.133 67.9827 279.032 68.1604 278.831 68.1604C278.932 68.2789 279.133 68.3381 279.233 68.4566C279.233 68.3381 279.434 68.1604 279.334 67.9827Z" fill="white"/>
<path d="M219.212 50.2129C219.011 50.2129 218.91 50.4499 218.709 50.3906V50.4499C218.81 50.3906 219.011 50.3314 219.111 50.2722L219.212 50.2129Z" fill="white"/>
<path d="M259.025 53.1746C259.327 53.3523 259.327 52.9969 259.528 53.0561C259.327 53.0561 259.025 52.9969 258.925 52.9969C259.025 52.9969 258.824 53.1153 259.025 53.1746Z" fill="white"/>
<path d="M286.673 51.0422C286.472 50.8645 286.472 50.6276 286.271 50.4499C286.271 50.5683 286.271 50.6868 286.271 50.8053C286.472 50.8645 286.472 50.9829 286.673 51.0422Z" fill="white"/>
<path d="M230.472 45.5335C230.573 45.7112 230.673 45.8297 230.673 46.1259C230.975 45.7705 231.176 45.4151 230.372 45.0005C229.969 44.8228 229.969 44.8228 230.372 45.0597C230.573 45.2374 230.372 45.4151 230.472 45.5335Z" fill="white"/>
<path d="M230.472 46.2443H230.573V46.1851C230.472 46.1851 230.472 46.1259 230.372 46.0666C230.472 46.1851 230.573 46.1851 230.472 46.2443Z" fill="white"/>
<path d="M-17.3559 78.6446H-15.0435C-15.8478 78.4669 -16.6521 78.4077 -17.3559 78.6446Z" fill="white"/>
<path d="M20.3462 78.6446H404.706C405.208 77.8154 405.309 77.1046 402.997 77.1046C400.483 77.1046 398.07 76.8676 395.557 76.6899C393.144 76.7492 392.239 73.4914 389.323 74.7353L389.223 74.8537C382.889 73.3729 376.354 73.6098 369.819 74.3206C368.914 74.2614 368.009 74.2022 367.104 74.1429C367.104 72.129 367.205 70.1151 367.205 68.1012C367.205 67.5089 367.305 66.9165 367.406 66.3242C367.506 65.1396 367.607 63.9549 367.607 62.7703C368.612 61.2894 368.411 59.8086 368.009 58.3278C368.311 57.4393 368.713 56.5508 369.015 55.6623C369.316 55.4846 369.417 55.3069 369.316 55.0108C370.02 52.5822 372.232 50.3906 370.724 47.7252C370.724 47.429 370.724 47.1328 370.724 46.8367C372.734 43.4604 370.12 41.1503 368.11 38.7218C366.702 35.5232 363.284 37.241 360.67 36.7671C359.061 36.3525 357.352 35.9971 355.743 35.5825C354.939 33.3316 353.733 31.5546 350.314 31.9693C349.711 31.6139 349.108 31.2585 348.505 30.9623C347.7 30.1923 346.695 30.2515 345.589 30.3107C338.551 30.7846 331.916 33.3316 324.777 33.3908C323.269 33.3908 322.566 34.694 322.968 36.1156C323.37 37.5371 323.772 38.9587 324.074 40.3803C323.873 40.6765 323.873 40.9134 323.873 41.2096C324.375 42.7496 323.37 44.2897 323.672 45.8297C323.571 46.0074 323.571 46.2443 323.672 46.4813C322.767 47.1921 322.566 48.9098 320.555 48.1398C320.253 47.7844 319.952 47.4882 319.65 47.1328C319.751 46.8959 319.65 46.659 319.449 46.4813C319.952 43.875 318.846 42.5127 315.427 42.9273C315.025 42.8681 314.724 42.7496 314.321 42.6904C311.205 42.6311 308.088 42.5719 304.871 42.5127C303.865 41.8611 302.86 41.1503 301.754 40.4988C301.855 40.3211 301.855 40.1434 301.754 39.9657C303.262 37.6556 300.95 37.8333 299.542 37.7741C296.325 37.6556 293.108 37.7148 289.991 37.7148C286.975 37.004 284.059 37.5964 281.144 38.3072C279.837 38.3072 278.53 38.3072 277.122 38.3072C272.598 38.011 268.275 38.2479 264.957 41.4465C264.555 41.7427 264.253 42.098 263.851 42.3942C263.047 42.6311 262.343 42.9273 261.539 43.1642C260.232 42.9865 258.724 42.8681 258.02 41.7427C256.713 39.7287 255.104 40.3803 253.395 41.3873C250.178 40.7949 246.86 40.7357 243.743 42.0388L243.241 41.9796H242.738C236.102 37.8925 228.16 38.8995 220.519 38.8403C218.005 38.8403 217.704 40.558 217 41.9796C214.889 42.335 212.677 42.6904 210.565 42.9865C209.56 37.1225 213.682 31.8508 213.682 26.1052C214.486 24.9798 215.19 23.7952 214.084 22.5513C214.185 21.9589 214.185 21.4258 214.285 20.8335C215.894 19.7673 215.09 18.1088 215.693 16.7465C218.508 15.088 218.307 12.0079 220.418 9.99394C221.625 8.86852 220.318 7.62464 218.508 7.3877C216.598 3.24142 211.068 4.89993 207.75 2.94525C207.147 2.53063 206.644 2.116 206.142 1.70137C201.115 0.220552 195.987 1.10904 190.86 1.52367C190.257 1.16827 189.653 1.28674 189.05 1.46444C188.547 1.52367 188.045 0.990577 187.542 1.40521C185.632 1.28674 183.42 1.9383 181.811 0.457482C181.409 0.0428538 180.605 -0.371775 180.404 0.575948C180.303 1.04981 180.806 1.5829 181.007 2.116C177.991 0.694413 174.874 0.39825 171.556 1.81983C169.043 0.635181 167.635 2.76756 167.736 3.59681C168.138 7.44694 164.519 9.46085 162.407 12.1263C160.799 14.1995 159.693 16.1541 159.592 18.5827C157.38 20.5966 158.788 23.499 156.978 25.6314C156.476 27.3491 153.158 29.363 157.682 30.4884C155.872 34.457 151.047 37.7741 153.761 42.6311C154.063 43.4012 154.364 44.1712 154.565 44.9412C152.957 45.4151 151.951 44.3489 150.544 44.1712C150.242 42.098 149.941 40.0249 149.639 38.011C150.544 32.2062 149.237 26.5791 147.528 21.0705C147.025 19.7673 146.522 18.5234 146.02 17.2796C145.818 17.0426 145.718 16.7465 145.517 16.5095C141.998 11.4748 139.987 11.4748 136.267 16.5095C135.262 17.8719 134.055 16.8649 133.05 17.0426C131.944 16.0949 130.336 16.3318 128.928 16.0357C122.695 14.3179 116.562 12.0671 109.625 13.9033C108.016 14.9103 106.106 15.3841 104.095 15.621C102.386 14.9695 100.576 14.3179 98.8669 13.6664C98.1631 12.5409 97.6604 11.2971 96.0518 10.8232C92.6335 8.39466 88.4109 8.92775 84.2888 8.92775C82.9818 8.86852 81.5742 8.75006 80.2672 8.69082C77.7538 7.3877 74.8382 7.86157 72.1236 7.3877C70.3139 7.03231 67.5994 7.50617 67.6999 9.57931C67.8004 11.2971 67.8004 14.081 71.7215 13.4294C72.5258 13.311 73.4306 13.4887 74.3355 13.4887C74.1344 16.0357 70.4144 16.2726 69.6101 18.4642C68.9064 18.405 68.2026 18.3457 67.5993 18.2865L67.1972 18.1681L66.7951 18.2273C64.2816 17.3388 62.0697 15.9172 59.1541 16.3911C58.752 16.5688 58.3498 16.8057 57.9477 16.9834C55.7358 16.9834 52.7196 15.858 52.8202 19.4712C52.8202 19.8266 51.9153 20.3004 51.4126 20.6558C50.7089 21.4258 49.804 22.1959 50.2062 23.3213C50.0051 24.0321 50.2062 24.9206 48.8992 25.039C48.2959 24.3282 47.6927 23.5582 47.19 22.8474C46.6873 21.8997 47.4916 20.1227 44.9782 20.4781C41.2582 20.4189 37.9404 19.4119 34.4216 18.4642C33.014 16.2726 30.4 16.8649 28.0876 16.5095C24.2672 16.2134 20.9494 12.8371 16.6262 15.3249C14.3138 15.7395 15.0176 10.1124 11.0966 13.4887C5.86858 13.311 2.45027 15.2657 0.942192 19.4712C0.942192 21.722 0.540031 23.6767 -1.57128 25.5721C-4.58744 28.2968 -1.3702 30.6661 -0.465355 33.0947C-0.766968 33.8647 -1.16913 34.6347 -1.47074 35.4048C-1.77236 35.3455 -1.97343 35.4048 -2.17451 35.6417C-2.87828 35.5825 -3.68259 35.5232 -4.38636 35.464C-5.29121 34.2201 -7.90522 35.4048 -8.40791 33.5685C-8.50845 32.147 -7.30198 30.7846 -8.30737 29.363C-8.30737 27.4083 -6.89983 25.2167 -9.61438 23.499C-9.11168 25.4537 -9.31276 27.1714 -11.1225 28.4745C-12.9322 31.7916 -12.9322 35.3455 -13.0327 38.8403V38.781C-15.3451 40.1434 -16.451 41.8019 -15.4456 44.1712C-15.4456 45.4151 -16.2499 46.8367 -14.7419 47.8436C-14.6413 50.3314 -12.4295 52.4045 -13.0327 55.0108C-13.1332 55.3069 -13.0327 55.5439 -12.9322 55.84C-12.2284 60.1048 -11.5246 64.3695 -10.8208 68.6343C-10.9214 69.9966 -11.0219 71.359 -11.1225 72.7806C-11.4241 72.8398 -11.7257 72.8398 -12.0273 72.9583C-13.9375 72.6029 -12.0273 70.2336 -14.4402 69.7597C-14.3397 71.2998 -14.2392 72.5436 -14.1386 73.7875C-15.4456 75.2091 -16.451 76.6307 -14.7419 78.23C-14.8424 78.4077 -14.8424 78.6446 -14.9429 78.8223L20.3462 78.6446ZM380.074 75.446V75.5053C379.873 75.5053 379.672 75.5645 379.471 75.5053C379.772 75.446 379.973 75.5053 380.074 75.446ZM356.246 38.1887C356.347 38.1887 356.347 38.1887 356.447 38.1887H356.246ZM335.334 55.1885C334.932 55.4846 334.53 55.7216 334.228 55.7216C334.53 55.6623 334.831 55.5439 335.334 55.1885ZM326.989 46.3628C326.889 46.422 326.788 46.5405 326.688 46.5997C326.688 46.4813 326.788 46.422 326.989 46.3628ZM295.521 41.2688C295.521 41.5057 295.621 41.6242 295.722 41.8019C295.621 41.6834 295.521 41.5057 295.521 41.2688ZM287.377 39.4918C287.578 39.4918 287.679 39.551 287.88 39.551C287.377 39.6695 287.176 40.1434 286.774 40.3211C286.975 40.0249 287.176 39.788 287.377 39.4918ZM286.673 51.0422C286.472 50.9829 286.472 50.8053 286.271 50.8053C286.271 50.6868 286.271 50.5683 286.271 50.4499C286.472 50.6276 286.472 50.8645 286.673 51.0422ZM279.334 67.9827C279.434 68.1012 279.233 68.3381 279.233 68.4566C279.133 68.3381 278.932 68.2197 278.831 68.1604C279.032 68.1604 279.133 67.9827 279.334 67.9827ZM259.528 52.9969C259.327 52.9969 259.327 53.293 259.025 53.1153C258.925 53.0561 259.025 52.9376 258.925 52.8784C259.025 52.9969 259.327 52.9969 259.528 52.9969ZM230.573 46.2443H230.472C230.472 46.1851 230.472 46.1259 230.472 46.0666C230.573 46.1259 230.573 46.1851 230.573 46.2443ZM230.372 45.0597C231.075 45.4743 230.975 45.8297 230.673 46.1851C230.573 45.8889 230.472 45.7705 230.472 45.5928C230.372 45.4151 230.573 45.2374 230.372 45.0597C230.07 44.882 230.07 44.8228 230.372 45.0597ZM218.709 50.3906C218.91 50.4499 219.011 50.2129 219.212 50.2129L219.111 50.2722C219.011 50.3314 218.81 50.3906 218.709 50.4499V50.3906ZM176.986 43.5789C177.187 43.6381 177.488 43.6973 177.589 43.8158C177.086 43.5789 176.684 43.875 176.382 44.1712C176.382 44.112 176.382 44.112 176.282 44.0527C177.086 43.9343 176.784 43.7566 176.986 43.5789ZM174.271 27.2306C174.271 27.2899 174.271 27.2899 174.271 27.3491C174.17 27.2899 174.17 27.2899 174.271 27.2306ZM164.619 28.4153C164.519 28.4745 164.418 28.5338 164.318 28.5338C164.318 28.4745 164.217 28.4153 164.217 28.4153C164.318 28.4745 164.619 28.4153 164.619 28.4153ZM143.104 33.9832C142.903 34.0424 142.802 34.0424 142.601 34.1609C142.702 34.0424 142.903 34.0424 143.104 33.9832ZM133.452 28.8299C133.653 28.8299 133.754 29.0076 133.955 29.0076C133.754 29.0669 133.754 28.8892 133.452 28.9484C133.452 28.9484 133.452 28.8892 133.452 28.8299ZM119.98 25.6906C120.081 25.7498 120.081 25.7498 120.181 25.8091C119.98 25.8683 119.98 25.7498 119.88 25.8091C119.779 25.8091 119.88 25.7498 119.98 25.6906ZM112.741 19.4712C112.741 19.5896 112.641 19.5896 112.641 19.7081C112.54 19.6489 112.339 19.6489 112.138 19.5896C112.339 19.5304 112.54 19.4712 112.741 19.4712ZM99.1685 20.2412C98.5653 20.2412 97.9621 20.3004 97.3588 20.3597C97.4594 20.0043 96.9567 19.945 96.9567 19.6489C97.6604 20.0043 98.4648 20.0635 99.1685 20.2412ZM96.1524 52.4045C95.9513 52.3453 95.7502 52.2861 95.6497 52.2861C95.8508 52.1084 96.0518 52.1676 96.1524 52.4045ZM68.1021 29.3038C68.2026 29.2446 68.2026 29.1853 68.2026 29.1261C68.2026 29.1853 68.1021 29.2446 68.1021 29.3038ZM67.5993 23.499C67.6999 23.5582 67.8004 23.499 67.901 23.5582C67.8004 23.6175 67.6999 23.7359 67.5993 23.7952C67.5993 23.7359 67.5993 23.6175 67.5993 23.499ZM28.3893 17.4573C28.4898 17.5165 28.5903 17.5165 28.5903 17.5757C28.4898 17.5757 28.4898 17.5165 28.3893 17.5165V17.4573ZM24.7699 40.0841C24.5688 40.2618 24.2672 40.4988 24.1666 40.6765C24.3677 40.3803 24.5688 40.0841 24.7699 40.0841ZM24.1666 54.4184C24.0661 54.4777 24.0661 54.4777 23.9656 54.5369C23.9656 54.4777 24.1666 54.4184 24.1666 54.4184ZM24.3677 75.9791C24.3677 76.0976 24.5688 76.0976 24.4683 76.2161C24.0661 76.3938 23.7645 76.2753 23.4629 76.2161C23.7645 76.1568 24.0661 76.2161 24.3677 75.9791ZM-5.39175 71.0036C-5.29121 71.0036 -5.19067 70.9444 -5.19067 70.9444C-5.29121 70.9444 -5.29121 70.9444 -5.39175 71.0036ZM-3.28044 44.4081C-3.28044 44.3489 -3.28044 44.2897 -3.28044 44.2897C-3.1799 44.2897 -3.07936 44.2304 -2.97882 44.2304C-3.07936 44.3489 -3.1799 44.2897 -3.28044 44.4081ZM1.34435 72.1882V72.129C1.44489 72.1882 1.44489 72.1882 1.44489 72.2475C1.44489 72.2475 1.44489 72.1882 1.34435 72.1882ZM1.44489 62.2372C1.44489 62.1779 1.44489 62.1187 1.44489 62.0595C1.54542 62.0595 1.54542 62.2372 1.54542 62.2372H1.44489ZM8.4826 26.9345C8.4826 26.8753 8.4826 26.8753 8.4826 26.816H8.58313C8.48259 26.8753 8.4826 26.9345 8.4826 26.9345ZM9.99068 19.6489C9.89014 19.4712 9.99068 19.2935 9.7896 19.1158C10.0912 19.3527 10.1918 19.175 10.3928 19.2935C10.2923 19.4119 10.1917 19.5304 9.99068 19.6489ZM13.409 20.8335C13.7106 21.0705 13.7106 21.3666 14.1128 21.4851C13.8111 21.6035 13.6101 21.7812 13.409 21.8997C13.6101 21.6035 13.3085 21.1889 13.409 20.8335ZM14.6155 33.0354C14.3138 32.8578 14.3138 32.5024 14.0122 32.3839C14.2133 32.0877 14.4144 31.7916 14.716 31.5546C14.5149 32.0285 14.6155 32.5024 14.6155 33.0354ZM18.1343 57.4393C18.1343 57.3801 18.0338 57.2616 17.9332 57.2024C18.0338 57.2616 18.0338 57.3208 18.1343 57.3801C18.2348 57.4393 18.1343 57.4393 18.1343 57.4393Z" fill="white"/>
<path d="M-40.8819 75.6237C-39.3738 73.3729 -38.9717 71.2405 -41.2841 69.2859C-40.9825 67.2127 -39.1728 65.1988 -40.9825 63.1256C-39.3738 60.5786 -39.8765 57.2616 -37.2625 55.1292C-35.2518 53.4707 -35.4528 51.753 -35.855 49.8575C-36.2571 47.8436 -37.3631 46.2443 -39.5749 45.2374C-36.5588 39.6695 -37.9663 34.694 -41.8873 30.0738C-42.4905 26.1645 -43.8981 25.6314 -49.4277 27.1122C-50.0309 27.1714 -50.7347 27.2899 -51.338 27.3491C-53.2482 28.1191 -55.0579 28.8299 -56.9681 29.6C-60.487 29.6 -60.8891 32.3839 -62.6988 33.9239C-66.4188 37.3594 -67.7258 41.328 -66.6198 45.7705C-65.4134 48.5544 -66.9215 52.0491 -63.8048 54.4184C-63.5031 55.3069 -62.5983 56.0177 -63.101 57.0839C-66.7204 58.5647 -64.6091 60.164 -63.3021 61.7041C-63.9053 64.3103 -59.2805 63.718 -59.4816 66.0873C-62.5983 68.812 -61.9951 71.5367 -59.8837 74.2614C-59.8837 75.446 -60.3864 76.8084 -58.2751 77.5784C-58.074 76.453 -57.873 75.3868 -57.6719 74.3206C-57.1692 73.7283 -56.566 73.3137 -55.5606 73.4914C-53.8514 74.9722 -53.6503 76.7492 -53.7509 78.5854H-39.4744C-39.6755 77.8153 -39.9771 77.0453 -40.6808 76.3345C-40.5803 76.0976 -40.6808 75.8014 -40.8819 75.6237ZM-39.9771 47.6067C-40.1782 47.5475 -40.2787 47.429 -40.4798 47.3105C-40.2787 47.429 -40.0776 47.4882 -39.9771 47.6067Z" fill="white"/>
<path d="M-36.6593 68.4566C-36.1566 66.3242 -33.241 64.3695 -36.2571 62.0595C-36.3577 64.1918 -36.5588 66.3242 -36.6593 68.4566Z" fill="white"/>
<path d="M-23.6898 41.3873C-25.4995 44.2304 -25.4995 44.2304 -24.5947 46.1851C-23.2876 44.882 -23.6898 43.5196 -23.6898 41.3873Z" fill="white"/>
<path d="M-1.3702 18.5827C-0.465355 18.7011 0.439491 18.5827 0.338951 17.635C0.338951 17.1611 -0.364822 16.7465 -0.666435 16.3911C-1.67182 16.5095 -2.27505 16.6872 -2.3756 17.398C-2.47613 18.0496 -2.17451 18.4642 -1.3702 18.5827Z" fill="white"/>
</svg>
