<svg width="238" height="234" viewBox="0 0 238 234" fill="none" xmlns="http://www.w3.org/2000/svg">
<path d="M210.681 224.635C213.196 224.635 215.235 226.674 215.235 229.19C215.235 231.705 213.196 233.744 210.681 233.744C208.166 233.744 206.127 231.705 206.127 229.19C206.127 226.674 208.166 224.635 210.681 224.635Z" fill="#39CE54"/>
<path d="M190.271 224.635C192.786 224.635 194.825 226.674 194.825 229.19C194.825 231.705 192.786 233.744 190.271 233.744C187.756 233.744 185.717 231.705 185.717 229.19C185.717 226.674 187.756 224.635 190.271 224.635Z" fill="#39CE54"/>
<path d="M169.82 224.635C172.335 224.635 174.374 226.674 174.374 229.19C174.374 231.705 172.335 233.744 169.82 233.744C167.305 233.744 165.266 231.705 165.266 229.19C165.266 226.674 167.305 224.635 169.82 224.635Z" fill="#39CE54"/>
<path d="M149.409 224.635C151.924 224.635 153.963 226.674 153.963 229.19C153.963 231.705 151.924 233.744 149.409 233.744C146.894 233.744 144.854 231.705 144.854 229.19C144.854 226.674 146.894 224.635 149.409 224.635Z" fill="#39CE54"/>
<path d="M129 224.635C131.515 224.635 133.554 226.674 133.554 229.19C133.554 231.705 131.515 233.744 129 233.744C126.484 233.744 124.445 231.705 124.445 229.19C124.445 226.674 126.484 224.635 129 224.635Z" fill="#39CE54"/>
<path d="M108.547 224.635C111.063 224.635 113.102 226.674 113.102 229.19C113.102 231.705 111.063 233.744 108.547 233.744C106.032 233.744 103.993 231.705 103.993 229.19C103.993 226.674 106.032 224.635 108.547 224.635Z" fill="#39CE54"/>
<path d="M88.1383 224.635C90.6535 224.635 92.6925 226.674 92.6925 229.19C92.6925 231.705 90.6535 233.744 88.1383 233.744C85.623 233.744 83.584 231.705 83.584 229.19C83.584 226.674 85.623 224.635 88.1383 224.635Z" fill="#39CE54"/>
<path d="M67.7271 224.635C70.2424 224.635 72.2814 226.674 72.2814 229.19C72.2814 231.705 70.2424 233.744 67.7271 233.744C65.2119 233.744 63.1729 231.705 63.1729 229.19C63.1729 226.674 65.2119 224.635 67.7271 224.635Z" fill="#39CE54"/>
<path d="M47.3179 224.635C49.8332 224.635 51.8722 226.674 51.8722 229.19C51.8722 231.705 49.8332 233.744 47.3179 233.744C44.8027 233.744 42.7637 231.705 42.7637 229.19C42.7637 226.674 44.8027 224.635 47.3179 224.635Z" fill="#39CE54"/>
<path d="M26.8658 224.635C29.3811 224.635 31.4201 226.674 31.4201 229.19C31.4201 231.705 29.3811 233.744 26.8658 233.744C24.3505 233.744 22.3115 231.705 22.3115 229.19C22.3115 226.674 24.3505 224.635 26.8658 224.635Z" fill="#39CE54"/>
<path d="M6.45564 224.635C8.97089 224.635 11.0099 226.674 11.0099 229.19C11.0099 231.705 8.97089 233.744 6.45564 233.744C3.94038 233.744 1.90137 231.705 1.90137 229.19C1.90137 226.674 3.94038 224.635 6.45564 224.635Z" fill="#39CE54"/>
<path d="M231.09 224.635C233.606 224.635 235.645 226.674 235.645 229.19C235.645 231.705 233.606 233.744 231.09 233.744C228.575 233.744 226.536 231.705 226.536 229.19C226.536 226.674 228.575 224.635 231.09 224.635Z" fill="#39CE54"/>
<path d="M235.53 207.701C236.108 210.149 234.592 212.602 232.144 213.18C229.697 213.758 227.244 212.242 226.666 209.795C226.088 207.347 227.604 204.894 230.051 204.316C232.499 203.738 234.952 205.254 235.53 207.701Z" fill="#39CE54"/>
<path d="M234.326 185.104C236.105 186.882 236.105 189.766 234.326 191.544C232.547 193.323 229.664 193.323 227.885 191.544C226.107 189.766 226.107 186.882 227.885 185.104C229.664 183.325 232.547 183.325 234.326 185.104Z" fill="#39CE54"/>
<path d="M231.09 163.364C233.606 163.364 235.645 165.403 235.645 167.918C235.645 170.433 233.606 172.472 231.09 172.472C228.575 172.472 226.536 170.433 226.536 167.918C226.536 165.403 228.575 163.364 231.09 163.364Z" fill="#39CE54"/>
<path d="M231.09 142.953C233.606 142.953 235.645 144.992 235.645 147.508C235.645 150.023 233.606 152.062 231.09 152.062C228.575 152.062 226.536 150.023 226.536 147.508C226.536 144.992 228.575 142.953 231.09 142.953Z" fill="#39CE54"/>
<path d="M235.517 126.009C236.095 128.457 234.58 130.91 232.132 131.488C229.684 132.066 227.231 130.55 226.653 128.103C226.075 125.655 227.591 123.202 230.039 122.624C232.487 122.046 234.939 123.562 235.517 126.009Z" fill="#39CE54"/>
<path d="M234.318 103.42C236.097 105.199 236.097 108.082 234.318 109.861C232.54 111.639 229.656 111.639 227.878 109.861C226.099 108.082 226.099 105.199 227.878 103.42C229.656 101.642 232.54 101.642 234.318 103.42Z" fill="#39CE54"/>
<path d="M231.09 81.6817C233.606 81.6817 235.645 83.7208 235.645 86.236C235.645 88.7513 233.606 90.7903 231.09 90.7903C228.575 90.7903 226.536 88.7513 226.536 86.236C226.536 83.7208 228.575 81.6817 231.09 81.6817Z" fill="#39CE54"/>
<path d="M231.09 61.2718C233.606 61.2718 235.645 63.3108 235.645 65.8261C235.645 68.3413 233.606 70.3804 231.09 70.3804C228.575 70.3804 226.536 68.3413 226.536 65.8261C226.536 63.3108 228.575 61.2718 231.09 61.2718Z" fill="#39CE54"/>
<path d="M235.547 44.3078C236.125 46.7557 234.609 49.2086 232.161 49.7866C229.713 50.3646 227.26 48.8488 226.682 46.401C226.104 43.9531 227.62 41.5002 230.068 40.9222C232.516 40.3442 234.969 41.86 235.547 44.3078Z" fill="#39CE54"/>
<path d="M234.312 21.7365C236.091 23.515 236.091 26.3986 234.312 28.1771C232.534 29.9556 229.65 29.9556 227.872 28.1771C226.093 26.3986 226.093 23.515 227.872 21.7365C229.65 19.9579 232.534 19.9579 234.312 21.7365Z" fill="#39CE54"/>
<path d="M212.425 204.575C214.749 205.537 215.852 208.201 214.89 210.525C213.927 212.849 211.263 213.953 208.939 212.99C206.615 212.027 205.512 209.363 206.474 207.039C207.437 204.716 210.101 203.612 212.425 204.575Z" fill="#39CE54"/>
<path d="M215.198 187.617C215.601 190.1 213.915 192.439 211.432 192.842C208.949 193.245 206.61 191.559 206.207 189.076C205.804 186.593 207.49 184.254 209.973 183.851C212.456 183.448 214.795 185.134 215.198 187.617Z" fill="#39CE54"/>
<path d="M210.681 163.364C213.196 163.364 215.235 165.403 215.235 167.918C215.235 170.433 213.196 172.472 210.681 172.472C208.166 172.472 206.127 170.433 206.127 167.918C206.127 165.403 208.166 163.364 210.681 163.364Z" fill="#39CE54"/>
<path d="M210.681 142.953C213.196 142.953 215.235 144.992 215.235 147.508C215.235 150.023 213.196 152.062 210.681 152.062C208.166 152.062 206.127 150.023 206.127 147.508C206.127 144.992 208.166 142.953 210.681 142.953Z" fill="#39CE54"/>
<path d="M212.422 122.891C214.746 123.853 215.849 126.517 214.887 128.841C213.924 131.165 211.26 132.268 208.936 131.306C206.612 130.343 205.509 127.679 206.471 125.355C207.434 123.031 210.098 121.928 212.422 122.891Z" fill="#39CE54"/>
<path d="M215.19 105.927C215.593 108.41 213.907 110.749 211.424 111.152C208.942 111.555 206.602 109.869 206.199 107.386C205.796 104.903 207.482 102.564 209.965 102.161C212.448 101.758 214.787 103.444 215.19 105.927Z" fill="#39CE54"/>
<path d="M210.681 81.6817C213.196 81.6817 215.235 83.7208 215.235 86.236C215.235 88.7513 213.196 90.7903 210.681 90.7903C208.166 90.7903 206.127 88.7513 206.127 86.236C206.127 83.7208 208.166 81.6817 210.681 81.6817Z" fill="#39CE54"/>
<path d="M210.681 61.2718C213.196 61.2718 215.235 63.3108 215.235 65.8261C215.235 68.3413 213.196 70.3804 210.681 70.3804C208.166 70.3804 206.127 68.3413 206.127 65.8261C206.127 63.3108 208.166 61.2718 210.681 61.2718Z" fill="#39CE54"/>
<path d="M212.437 41.1676C214.761 42.1302 215.864 44.7944 214.901 47.1182C213.939 49.4421 211.275 50.5456 208.951 49.583C206.627 48.6204 205.523 45.9562 206.486 43.6324C207.449 41.3085 210.113 40.205 212.437 41.1676Z" fill="#39CE54"/>
<path d="M215.184 24.2363C215.586 26.7191 213.9 29.0585 211.418 29.4614C208.935 29.8643 206.595 28.1783 206.192 25.6955C205.79 23.2127 207.476 20.8733 209.958 20.4704C212.441 20.0674 214.781 21.7535 215.184 24.2363Z" fill="#39CE54"/>
<path d="M192.013 204.579C194.337 205.542 195.44 208.206 194.478 210.53C193.515 212.854 190.851 213.957 188.527 212.995C186.203 212.032 185.1 209.368 186.062 207.044C187.025 204.72 189.689 203.617 192.013 204.579Z" fill="#39CE54"/>
<path d="M194.776 187.629C195.179 190.112 193.493 192.452 191.01 192.854C188.528 193.257 186.188 191.571 185.785 189.089C185.382 186.606 187.068 184.266 189.551 183.863C192.034 183.46 194.373 185.147 194.776 187.629Z" fill="#39CE54"/>
<path d="M190.271 163.364C192.786 163.364 194.825 165.403 194.825 167.918C194.825 170.433 192.786 172.472 190.271 172.472C187.756 172.472 185.717 170.433 185.717 167.918C185.717 165.403 187.756 163.364 190.271 163.364Z" fill="#39CE54"/>
<path d="M190.271 142.953C192.786 142.953 194.825 144.992 194.825 147.508C194.825 150.023 192.786 152.062 190.271 152.062C187.756 152.062 185.717 150.023 185.717 147.508C185.717 144.992 187.756 142.953 190.271 142.953Z" fill="#39CE54"/>
<path d="M192.011 122.895C194.335 123.858 195.438 126.522 194.476 128.846C193.513 131.169 190.849 132.273 188.525 131.31C186.201 130.348 185.098 127.684 186.06 125.36C187.023 123.036 189.687 121.932 192.011 122.895Z" fill="#39CE54"/>
<path d="M194.769 105.939C195.172 108.421 193.486 110.761 191.004 111.164C188.521 111.567 186.181 109.881 185.778 107.398C185.375 104.915 187.062 102.576 189.544 102.173C192.027 101.77 194.367 103.456 194.769 105.939Z" fill="#39CE54"/>
<path d="M190.271 81.6817C192.786 81.6817 194.825 83.7208 194.825 86.236C194.825 88.7513 192.786 90.7903 190.271 90.7903C187.756 90.7903 185.717 88.7513 185.717 86.236C185.717 83.7208 187.756 81.6817 190.271 81.6817Z" fill="#39CE54"/>
<path d="M190.271 61.2718C192.786 61.2718 194.825 63.3108 194.825 65.8261C194.825 68.3413 192.786 70.3804 190.271 70.3804C187.756 70.3804 185.717 68.3413 185.717 65.8261C185.717 63.3108 187.756 61.2718 190.271 61.2718Z" fill="#39CE54"/>
<path d="M192.025 41.172C194.348 42.1346 195.452 44.7988 194.489 47.1226C193.527 49.4465 190.863 50.55 188.539 49.5874C186.215 48.6248 185.111 45.9606 186.074 43.6368C187.037 41.3129 189.701 40.2094 192.025 41.172Z" fill="#39CE54"/>
<path d="M194.763 24.2487C195.166 26.7316 193.48 29.0709 190.997 29.4739C188.514 29.8768 186.175 28.1907 185.772 25.7079C185.369 23.2251 187.055 20.8858 189.538 20.4828C192.02 20.0799 194.36 21.7659 194.763 24.2487Z" fill="#39CE54"/>
<path d="M173.034 205.544C174.813 207.323 174.813 210.206 173.034 211.985C171.255 213.764 168.372 213.764 166.593 211.985C164.815 210.206 164.815 207.323 166.593 205.544C168.372 203.766 171.255 203.766 173.034 205.544Z" fill="#39CE54"/>
<path d="M174.287 187.27C174.865 189.718 173.349 192.171 170.901 192.749C168.453 193.327 166.001 191.811 165.423 189.363C164.845 186.915 166.36 184.462 168.808 183.884C171.256 183.306 173.709 184.822 174.287 187.27Z" fill="#39CE54"/>
<path d="M169.82 163.364C172.335 163.364 174.374 165.403 174.374 167.918C174.374 170.433 172.335 172.472 169.82 172.472C167.305 172.472 165.266 170.433 165.266 167.918C165.266 165.403 167.305 163.364 169.82 163.364Z" fill="#39CE54"/>
<path d="M169.82 142.953C172.335 142.953 174.374 144.992 174.374 147.508C174.374 150.023 172.335 152.062 169.82 152.062C167.305 152.062 165.266 150.023 165.266 147.508C165.266 144.992 167.305 142.953 169.82 142.953Z" fill="#39CE54"/>
<path d="M173.028 123.861C174.807 125.639 174.807 128.523 173.028 130.301C171.25 132.08 168.366 132.08 166.588 130.301C164.809 128.523 164.809 125.639 166.588 123.861C168.366 122.082 171.25 122.082 173.028 123.861Z" fill="#39CE54"/>
<path d="M174.274 105.578C174.852 108.026 173.336 110.479 170.889 111.057C168.441 111.635 165.988 110.119 165.41 107.671C164.832 105.223 166.348 102.77 168.795 102.192C171.243 101.614 173.696 103.13 174.274 105.578Z" fill="#39CE54"/>
<path d="M169.82 81.6817C172.335 81.6817 174.374 83.7208 174.374 86.236C174.374 88.7513 172.335 90.7903 169.82 90.7903C167.305 90.7903 165.266 88.7513 165.266 86.236C165.266 83.7208 167.305 81.6817 169.82 81.6817Z" fill="#39CE54"/>
<path d="M169.82 61.2718C172.335 61.2718 174.374 63.3108 174.374 65.8261C174.374 68.3413 172.335 70.3804 169.82 70.3804C167.305 70.3804 165.266 68.3413 165.266 65.8261C165.266 63.3108 167.305 61.2718 169.82 61.2718Z" fill="#39CE54"/>
<path d="M173.051 42.1474C174.829 43.9259 174.829 46.8095 173.051 48.588C171.272 50.3665 168.389 50.3665 166.61 48.588C164.831 46.8095 164.831 43.9259 166.61 42.1473C168.389 40.3688 171.272 40.3688 173.051 42.1474Z" fill="#39CE54"/>
<path d="M174.263 23.8857C174.841 26.3336 173.325 28.7865 170.877 29.3645C168.429 29.9425 165.976 28.4267 165.398 25.9789C164.82 23.531 166.336 21.0781 168.784 20.5001C171.232 19.9221 173.685 21.4379 174.263 23.8857Z" fill="#39CE54"/>
<path d="M153.839 207.714C154.417 210.162 152.901 212.615 150.453 213.193C148.005 213.771 145.552 212.255 144.974 209.807C144.396 207.359 145.912 204.906 148.36 204.328C150.808 203.75 153.261 205.266 153.839 207.714Z" fill="#39CE54"/>
<path d="M152.641 185.11C154.42 186.889 154.42 189.772 152.641 191.551C150.863 193.329 147.979 193.329 146.201 191.551C144.422 189.772 144.422 186.889 146.201 185.11C147.979 183.332 150.863 183.332 152.641 185.11Z" fill="#39CE54"/>
<path d="M149.409 163.364C151.924 163.364 153.963 165.403 153.963 167.918C153.963 170.433 151.924 172.472 149.409 172.472C146.894 172.472 144.854 170.433 144.854 167.918C144.854 165.403 146.894 163.364 149.409 163.364Z" fill="#39CE54"/>
<path d="M149.409 142.953C151.924 142.953 153.963 144.992 153.963 147.508C153.963 150.023 151.924 152.062 149.409 152.062C146.894 152.062 144.854 150.023 144.854 147.508C144.854 144.992 146.894 142.953 149.409 142.953Z" fill="#39CE54"/>
<path d="M153.826 126.022C154.404 128.47 152.888 130.922 150.44 131.5C147.993 132.078 145.54 130.563 144.962 128.115C144.384 125.667 145.899 123.214 148.347 122.636C150.795 122.058 153.248 123.574 153.826 126.022Z" fill="#39CE54"/>
<path d="M152.636 103.427C154.414 105.205 154.414 108.089 152.636 109.867C150.857 111.646 147.973 111.646 146.195 109.867C144.416 108.089 144.416 105.205 146.195 103.427C147.973 101.648 150.857 101.648 152.636 103.427Z" fill="#39CE54"/>
<path d="M149.409 81.6817C151.924 81.6817 153.963 83.7208 153.963 86.236C153.963 88.7513 151.924 90.7903 149.409 90.7903C146.894 90.7903 144.854 88.7513 144.854 86.236C144.854 83.7208 146.894 81.6817 149.409 81.6817Z" fill="#39CE54"/>
<path d="M149.409 61.2718C151.924 61.2718 153.963 63.3108 153.963 65.8261C153.963 68.3413 151.924 70.3804 149.409 70.3804C146.894 70.3804 144.854 68.3413 144.854 65.8261C144.854 63.3108 146.894 61.2718 149.409 61.2718Z" fill="#39CE54"/>
<path d="M153.855 44.3203C154.433 46.7681 152.918 49.2211 150.47 49.7991C148.022 50.3771 145.569 48.8613 144.991 46.4134C144.413 43.9656 145.929 41.5126 148.377 40.9346C150.824 40.3566 153.277 41.8724 153.855 44.3203Z" fill="#39CE54"/>
<path d="M152.629 21.743C154.407 23.5216 154.407 26.4052 152.629 28.1837C150.85 29.9622 147.967 29.9622 146.188 28.1837C144.41 26.4052 144.41 23.5216 146.188 21.743C147.967 19.9645 150.85 19.9645 152.629 21.743Z" fill="#39CE54"/>
<path d="M130.74 204.577C133.064 205.539 134.168 208.203 133.205 210.527C132.243 212.851 129.578 213.955 127.255 212.992C124.931 212.029 123.827 209.365 124.79 207.041C125.752 204.717 128.417 203.614 130.74 204.577Z" fill="#39CE54"/>
<path d="M133.508 187.624C133.911 190.107 132.225 192.446 129.742 192.849C127.259 193.252 124.92 191.566 124.517 189.083C124.114 186.601 125.8 184.261 128.283 183.858C130.765 183.455 133.105 185.141 133.508 187.624Z" fill="#39CE54"/>
<path d="M129 163.364C131.515 163.364 133.554 165.403 133.554 167.918C133.554 170.433 131.515 172.472 129 172.472C126.484 172.472 124.445 170.433 124.445 167.918C124.445 165.403 126.484 163.364 129 163.364Z" fill="#39CE54"/>
<path d="M129 142.953C131.515 142.953 133.554 144.992 133.554 147.508C133.554 150.023 131.515 152.062 129 152.062C126.484 152.062 124.445 150.023 124.445 147.508C124.445 144.992 126.484 142.953 129 142.953Z" fill="#39CE54"/>
<path d="M130.738 122.892C133.062 123.855 134.166 126.519 133.203 128.843C132.241 131.167 129.576 132.27 127.253 131.308C124.929 130.345 123.825 127.681 124.788 125.357C125.75 123.033 128.415 121.93 130.738 122.892Z" fill="#39CE54"/>
<path d="M133.501 105.934C133.904 108.417 132.218 110.756 129.735 111.159C127.252 111.562 124.913 109.876 124.51 107.393C124.107 104.91 125.793 102.571 128.276 102.168C130.759 101.765 133.098 103.451 133.501 105.934Z" fill="#39CE54"/>
<path d="M129 81.6817C131.515 81.6817 133.554 83.7208 133.554 86.236C133.554 88.7513 131.515 90.7903 129 90.7903C126.484 90.7903 124.445 88.7513 124.445 86.236C124.445 83.7208 126.484 81.6817 129 81.6817Z" fill="#39CE54"/>
<path d="M129 61.2718C131.515 61.2718 133.554 63.3108 133.554 65.8261C133.554 68.3413 131.515 70.3804 129 70.3804C126.484 70.3804 124.445 68.3413 124.445 65.8261C124.445 63.3108 126.484 61.2718 129 61.2718Z" fill="#39CE54"/>
<path d="M130.752 41.1693C133.076 42.1319 134.179 44.7961 133.217 47.1199C132.254 49.4438 129.59 50.5473 127.266 49.5847C124.942 48.6221 123.839 45.9579 124.802 43.6341C125.764 41.3103 128.428 40.2067 130.752 41.1693Z" fill="#39CE54"/>
<path d="M133.493 24.2436C133.896 26.7264 132.21 29.0658 129.727 29.4687C127.244 29.8717 124.905 28.1856 124.502 25.7028C124.099 23.22 125.785 20.8806 128.268 20.4777C130.751 20.0747 133.09 21.7608 133.493 24.2436Z" fill="#39CE54"/>
<path d="M110.29 204.565C112.614 205.528 113.718 208.192 112.755 210.516C111.792 212.84 109.128 213.943 106.804 212.98C104.481 212.018 103.377 209.354 104.34 207.03C105.302 204.706 107.966 203.602 110.29 204.565Z" fill="#39CE54"/>
<path d="M113.08 187.595C113.483 190.077 111.797 192.417 109.314 192.82C106.831 193.223 104.492 191.537 104.089 189.054C103.686 186.571 105.372 184.232 107.855 183.829C110.338 183.426 112.677 185.112 113.08 187.595Z" fill="#39CE54"/>
<path d="M108.547 163.364C111.063 163.364 113.102 165.403 113.102 167.918C113.102 170.433 111.063 172.472 108.547 172.472C106.032 172.472 103.993 170.433 103.993 167.918C103.993 165.403 106.032 163.364 108.547 163.364Z" fill="#39CE54"/>
<path d="M108.547 142.953C111.063 142.953 113.102 144.992 113.102 147.508C113.102 150.023 111.063 152.062 108.547 152.062C106.032 152.062 103.993 150.023 103.993 147.508C103.993 144.992 106.032 142.953 108.547 142.953Z" fill="#39CE54"/>
<path d="M110.288 122.881C112.612 123.844 113.716 126.508 112.753 128.832C111.79 131.155 109.126 132.259 106.802 131.296C104.479 130.334 103.375 127.67 104.338 125.346C105.3 123.022 107.964 121.918 110.288 122.881Z" fill="#39CE54"/>
<path d="M113.072 105.904C113.475 108.387 111.789 110.727 109.306 111.13C106.823 111.533 104.484 109.846 104.081 107.364C103.678 104.881 105.364 102.542 107.847 102.139C110.33 101.736 112.669 103.422 113.072 105.904Z" fill="#39CE54"/>
<path d="M108.547 81.6817C111.063 81.6817 113.102 83.7208 113.102 86.236C113.102 88.7513 111.063 90.7903 108.547 90.7903C106.032 90.7903 103.993 88.7513 103.993 86.236C103.993 83.7208 106.032 81.6817 108.547 81.6817Z" fill="#39CE54"/>
<path d="M108.547 61.2718C111.063 61.2718 113.102 63.3108 113.102 65.8261C113.102 68.3413 111.063 70.3804 108.547 70.3804C106.032 70.3804 103.993 68.3413 103.993 65.8261C103.993 63.3108 106.032 61.2718 108.547 61.2718Z" fill="#39CE54"/>
<path d="M110.303 41.1579C112.627 42.1204 113.73 44.7846 112.768 47.1085C111.805 49.4323 109.141 50.5358 106.817 49.5732C104.493 48.6107 103.39 45.9465 104.352 43.6226C105.315 41.2988 107.979 40.1953 110.303 41.1579Z" fill="#39CE54"/>
<path d="M113.064 24.2143C113.467 26.6971 111.781 29.0365 109.298 29.4394C106.816 29.8424 104.476 28.1563 104.073 25.6735C103.67 23.1907 105.356 20.8513 107.839 20.4484C110.322 20.0454 112.661 21.7315 113.064 24.2143Z" fill="#39CE54"/>
<path d="M91.3514 205.551C93.1299 207.329 93.1299 210.213 91.3514 211.991C89.5729 213.77 86.6893 213.77 84.9108 211.991C83.1322 210.213 83.1322 207.329 84.9108 205.551C86.6893 203.772 89.5729 203.772 91.3514 205.551Z" fill="#39CE54"/>
<path d="M92.5946 187.282C93.1726 189.73 91.6568 192.183 89.209 192.761C86.7611 193.339 84.3082 191.823 83.7302 189.375C83.1522 186.927 84.668 184.475 87.1158 183.897C89.5637 183.319 92.0166 184.834 92.5946 187.282Z" fill="#39CE54"/>
<path d="M88.1383 163.364C90.6535 163.364 92.6925 165.403 92.6925 167.918C92.6925 170.433 90.6535 172.472 88.1383 172.472C85.623 172.472 83.584 170.433 83.584 167.918C83.584 165.403 85.623 163.364 88.1383 163.364Z" fill="#39CE54"/>
<path d="M88.1383 142.953C90.6535 142.953 92.6925 144.992 92.6925 147.508C92.6925 150.023 90.6535 152.062 88.1383 152.062C85.623 152.062 83.584 150.023 83.584 147.508C83.584 144.992 85.623 142.953 88.1383 142.953Z" fill="#39CE54"/>
<path d="M91.3455 123.867C93.1241 125.646 93.1241 128.529 91.3455 130.308C89.567 132.086 86.6834 132.086 84.9049 130.308C83.1264 128.529 83.1264 125.646 84.9049 123.867C86.6834 122.089 89.567 122.089 91.3455 123.867Z" fill="#39CE54"/>
<path d="M92.5829 105.59C93.1609 108.038 91.6451 110.491 89.1972 111.069C86.7494 111.647 84.2965 110.131 83.7184 107.683C83.1404 105.235 84.6562 102.782 87.1041 102.204C89.5519 101.626 92.0049 103.142 92.5829 105.59Z" fill="#39CE54"/>
<path d="M88.1383 81.6817C90.6535 81.6817 92.6925 83.7208 92.6925 86.236C92.6925 88.7513 90.6535 90.7903 88.1383 90.7903C85.623 90.7903 83.584 88.7513 83.584 86.236C83.584 83.7208 85.623 81.6817 88.1383 81.6817Z" fill="#39CE54"/>
<path d="M88.1383 61.2718C90.6535 61.2718 92.6925 63.3108 92.6925 65.8261C92.6925 68.3413 90.6535 70.3804 88.1383 70.3804C85.623 70.3804 83.584 68.3413 83.584 65.8261C83.584 63.3108 85.623 61.2718 88.1383 61.2718Z" fill="#39CE54"/>
<path d="M91.368 42.1539C93.1465 43.9325 93.1466 46.8161 91.368 48.5946C89.5895 50.3731 86.7059 50.3731 84.9274 48.5946C83.1488 46.8161 83.1488 43.9325 84.9274 42.1539C86.7059 40.3754 89.5895 40.3754 91.368 42.1539Z" fill="#39CE54"/>
<path d="M92.5712 23.8979C93.1492 26.3458 91.6334 28.7987 89.1855 29.3767C86.7377 29.9547 84.2847 28.4389 83.7067 25.9911C83.1287 23.5432 84.6445 21.0903 87.0924 20.5123C89.5402 19.9343 91.9932 21.4501 92.5712 23.8979Z" fill="#39CE54"/>
<path d="M72.1454 207.726C72.7234 210.174 71.2076 212.627 68.7597 213.205C66.3119 213.783 63.859 212.267 63.2809 209.819C62.7029 207.371 64.2187 204.918 66.6666 204.34C69.1144 203.762 71.5674 205.278 72.1454 207.726Z" fill="#39CE54"/>
<path d="M70.9588 185.117C72.7374 186.895 72.7374 189.779 70.9588 191.557C69.1803 193.336 66.2967 193.336 64.5182 191.557C62.7396 189.779 62.7396 186.895 64.5182 185.117C66.2967 183.338 69.1803 183.338 70.9588 185.117Z" fill="#39CE54"/>
<path d="M67.7271 163.364C70.2424 163.364 72.2814 165.403 72.2814 167.918C72.2814 170.433 70.2424 172.472 67.7271 172.472C65.2119 172.472 63.1729 170.433 63.1729 167.918C63.1729 165.403 65.2119 163.364 67.7271 163.364Z" fill="#39CE54"/>
<path d="M67.7271 142.953C70.2424 142.953 72.2814 144.992 72.2814 147.508C72.2814 150.023 70.2424 152.062 67.7271 152.062C65.2119 152.062 63.1729 150.023 63.1729 147.508C63.1729 144.992 65.2119 142.953 67.7271 142.953Z" fill="#39CE54"/>
<path d="M72.1337 126.034C72.7117 128.482 71.1959 130.935 68.748 131.513C66.3002 132.091 63.8472 130.575 63.2692 128.127C62.6912 125.679 64.207 123.226 66.6549 122.648C69.1027 122.07 71.5557 123.586 72.1337 126.034Z" fill="#39CE54"/>
<path d="M70.951 103.433C72.7296 105.212 72.7295 108.095 70.951 109.874C69.1725 111.652 66.2889 111.652 64.5104 109.874C62.7318 108.095 62.7318 105.212 64.5104 103.433C66.2889 101.655 69.1725 101.655 70.951 103.433Z" fill="#39CE54"/>
<path d="M67.7271 81.6817C70.2424 81.6817 72.2814 83.7208 72.2814 86.236C72.2814 88.7513 70.2424 90.7903 67.7271 90.7903C65.2119 90.7903 63.1729 88.7513 63.1729 86.236C63.1729 83.7208 65.2119 81.6817 67.7271 81.6817Z" fill="#39CE54"/>
<path d="M67.7271 61.2718C70.2424 61.2718 72.2814 63.3108 72.2814 65.8261C72.2814 68.3413 70.2424 70.3804 67.7271 70.3804C65.2119 70.3804 63.1729 68.3413 63.1729 65.8261C63.1729 63.3108 65.2119 61.2718 67.7271 61.2718Z" fill="#39CE54"/>
<path d="M72.163 44.3322C72.741 46.7801 71.2252 49.233 68.7773 49.811C66.3295 50.389 63.8765 48.8732 63.2985 46.4254C62.7205 43.9775 64.2363 41.5246 66.6842 40.9466C69.132 40.3686 71.585 41.8844 72.163 44.3322Z" fill="#39CE54"/>
<path d="M70.9452 21.7496C72.7237 23.5282 72.7237 26.4118 70.9452 28.1903C69.1666 29.9688 66.283 29.9688 64.5045 28.1903C62.726 26.4118 62.726 23.5282 64.5045 21.7496C66.283 19.9711 69.1666 19.9711 70.9452 21.7496Z" fill="#39CE54"/>
<path d="M49.0568 204.579C51.3807 205.541 52.4842 208.205 51.5216 210.529C50.559 212.853 47.8948 213.956 45.571 212.994C43.2471 212.031 42.1436 209.367 43.1062 207.043C44.0688 204.719 46.733 203.616 49.0568 204.579Z" fill="#39CE54"/>
<path d="M51.8173 187.631C52.2203 190.114 50.5342 192.453 48.0514 192.856C45.5686 193.259 43.2292 191.573 42.8263 189.09C42.4233 186.608 44.1094 184.268 46.5922 183.865C49.075 183.462 51.4144 185.148 51.8173 187.631Z" fill="#39CE54"/>
<path d="M47.3179 163.364C49.8332 163.364 51.8722 165.403 51.8722 167.918C51.8722 170.433 49.8332 172.472 47.3179 172.472C44.8027 172.472 42.7637 170.433 42.7637 167.918C42.7637 165.403 44.8027 163.364 47.3179 163.364Z" fill="#39CE54"/>
<path d="M47.3179 142.953C49.8332 142.953 51.8722 144.992 51.8722 147.508C51.8722 150.023 49.8332 152.062 47.3179 152.062C44.8027 152.062 42.7637 150.023 42.7637 147.508C42.7637 144.992 44.8027 142.953 47.3179 142.953Z" fill="#39CE54"/>
<path d="M49.0539 122.894C51.3777 123.857 52.4812 126.521 51.5187 128.845C50.5561 131.169 47.8919 132.272 45.568 131.31C43.2442 130.347 42.1407 127.683 43.1033 125.359C44.0659 123.035 46.73 121.932 49.0539 122.894Z" fill="#39CE54"/>
<path d="M51.8105 105.941C52.2134 108.424 50.5274 110.763 48.0445 111.166C45.5617 111.569 43.2224 109.883 42.8194 107.4C42.4165 104.917 44.1026 102.578 46.5854 102.175C49.0682 101.772 51.4075 103.458 51.8105 105.941Z" fill="#39CE54"/>
<path d="M47.3179 81.6817C49.8332 81.6817 51.8722 83.7208 51.8722 86.236C51.8722 88.7513 49.8332 90.7903 47.3179 90.7903C44.8027 90.7903 42.7637 88.7513 42.7637 86.236C42.7637 83.7208 44.8027 81.6817 47.3179 81.6817Z" fill="#39CE54"/>
<path d="M47.3179 61.2718C49.8332 61.2718 51.8722 63.3108 51.8722 65.8261C51.8722 68.3413 49.8332 70.3804 47.3179 70.3804C44.8027 70.3804 42.7637 68.3413 42.7637 65.8261C42.7637 63.3108 44.8027 61.2718 47.3179 61.2718Z" fill="#39CE54"/>
<path d="M49.0685 41.1715C51.3924 42.1341 52.4959 44.7983 51.5333 47.1221C50.5707 49.446 47.9065 50.5495 45.5827 49.5869C43.2588 48.6243 42.1553 45.9601 43.1179 43.6363C44.0805 41.3125 46.7447 40.2089 49.0685 41.1715Z" fill="#39CE54"/>
<path d="M51.8036 24.2509C52.2066 26.7337 50.5205 29.0731 48.0377 29.476C45.5549 29.879 43.2155 28.1929 42.8126 25.7101C42.4097 23.2273 44.0957 20.8879 46.5785 20.485C49.0613 20.0821 51.4007 21.7681 51.8036 24.2509Z" fill="#39CE54"/>
<path d="M28.6066 204.567C30.9305 205.529 32.034 208.194 31.0714 210.517C30.1088 212.841 27.4446 213.945 25.1208 212.982C22.7969 212.02 21.6934 209.355 22.656 207.032C23.6186 204.708 26.2828 203.604 28.6066 204.567Z" fill="#39CE54"/>
<path d="M31.3886 187.602C31.7916 190.085 30.1055 192.424 27.6227 192.827C25.1399 193.23 22.8005 191.544 22.3976 189.061C21.9946 186.578 23.6807 184.239 26.1635 183.836C28.6463 183.433 30.9857 185.119 31.3886 187.602Z" fill="#39CE54"/>
<path d="M26.8658 163.364C29.3811 163.364 31.4201 165.403 31.4201 167.918C31.4201 170.433 29.3811 172.472 26.8658 172.472C24.3505 172.472 22.3115 170.433 22.3115 167.918C22.3115 165.403 24.3505 163.364 26.8658 163.364Z" fill="#39CE54"/>
<path d="M26.8658 142.953C29.3811 142.953 31.4201 144.992 31.4201 147.508C31.4201 150.023 29.3811 152.062 26.8658 152.062C24.3505 152.062 22.3115 150.023 22.3115 147.508C22.3115 144.992 24.3505 142.953 26.8658 142.953Z" fill="#39CE54"/>
<path d="M28.6037 122.883C30.9275 123.845 32.031 126.509 31.0685 128.833C30.1059 131.157 27.4417 132.261 25.1178 131.298C22.794 130.336 21.6905 127.671 22.6531 125.347C23.6157 123.024 26.2798 121.92 28.6037 122.883Z" fill="#39CE54"/>
<path d="M31.3818 105.912C31.7847 108.395 30.0986 110.734 27.6158 111.137C25.133 111.54 22.7937 109.854 22.3907 107.371C21.9878 104.888 23.6738 102.549 26.1566 102.146C28.6395 101.743 30.9788 103.429 31.3818 105.912Z" fill="#39CE54"/>
<path d="M26.8658 81.6817C29.3811 81.6817 31.4201 83.7208 31.4201 86.236C31.4201 88.7513 29.3811 90.7903 26.8658 90.7903C24.3505 90.7903 22.3115 88.7513 22.3115 86.236C22.3115 83.7208 24.3505 81.6817 26.8658 81.6817Z" fill="#39CE54"/>
<path d="M26.8658 61.2718C29.3811 61.2718 31.4201 63.3108 31.4201 65.8261C31.4201 68.3413 29.3811 70.3804 26.8658 70.3804C24.3505 70.3804 22.3115 68.3413 22.3115 65.8261C22.3115 63.3108 24.3505 61.2718 26.8658 61.2718Z" fill="#39CE54"/>
<path d="M28.6183 41.1598C30.9422 42.1224 32.0457 44.7866 31.0831 47.1104C30.1205 49.4343 27.4563 50.5378 25.1325 49.5752C22.8087 48.6126 21.7051 45.9484 22.6677 43.6246C23.6303 41.3007 26.2945 40.1972 28.6183 41.1598Z" fill="#39CE54"/>
<path d="M31.3749 24.2216C31.7779 26.7044 30.0918 29.0438 27.609 29.4468C25.1262 29.8497 22.7868 28.1636 22.3839 25.6808C21.9809 23.198 23.667 20.8587 26.1498 20.4557C28.6326 20.0528 30.972 21.7388 31.3749 24.2216Z" fill="#39CE54"/>
<path d="M9.66684 205.557C11.4454 207.336 11.4454 210.219 9.66684 211.998C7.8883 213.776 5.00472 213.776 3.22618 211.998C1.44765 210.219 1.44765 207.336 3.22618 205.557C5.00472 203.779 7.8883 203.779 9.66684 205.557Z" fill="#39CE54"/>
<path d="M10.9022 187.294C11.4802 189.742 9.96442 192.195 7.51657 192.773C5.06872 193.351 2.61579 191.835 2.03778 189.387C1.45978 186.939 2.97558 184.487 5.42343 183.909C7.87127 183.331 10.3242 184.846 10.9022 187.294Z" fill="#39CE54"/>
<path d="M6.45564 163.364C8.97089 163.364 11.0099 165.403 11.0099 167.918C11.0099 170.433 8.97089 172.472 6.45564 172.472C3.94038 172.472 1.90137 170.433 1.90137 167.918C1.90137 165.403 3.94038 163.364 6.45564 163.364Z" fill="#39CE54"/>
<path d="M6.45564 142.953C8.97089 142.953 11.0099 144.992 11.0099 147.508C11.0099 150.023 8.97089 152.062 6.45564 152.062C3.94038 152.062 1.90137 150.023 1.90137 147.508C1.90137 144.992 3.94038 142.953 6.45564 142.953Z" fill="#39CE54"/>
<path d="M9.66098 123.874C11.4395 125.652 11.4395 128.536 9.66097 130.314C7.88244 132.093 4.99886 132.093 3.22033 130.314C1.44179 128.536 1.44179 125.652 3.22032 123.874C4.99886 122.095 7.88244 122.095 9.66098 123.874Z" fill="#39CE54"/>
<path d="M10.8905 105.602C11.4685 108.05 9.95269 110.503 7.50485 111.081C5.057 111.659 2.60407 110.143 2.02606 107.695C1.44806 105.248 2.96386 102.795 5.4117 102.217C7.85955 101.639 10.3125 103.154 10.8905 105.602Z" fill="#39CE54"/>
<path d="M6.45564 81.6817C8.97089 81.6817 11.0099 83.7208 11.0099 86.236C11.0099 88.7513 8.97089 90.7903 6.45564 90.7903C3.94038 90.7903 1.90137 88.7513 1.90137 86.236C1.90137 83.7208 3.94038 81.6817 6.45564 81.6817Z" fill="#39CE54"/>
<path d="M6.45564 61.2718C8.97089 61.2718 11.0099 63.3108 11.0099 65.8261C11.0099 68.3413 8.97089 70.3804 6.45564 70.3804C3.94038 70.3804 1.90137 68.3413 1.90137 65.8261C1.90137 63.3108 3.94038 61.2718 6.45564 61.2718Z" fill="#39CE54"/>
<path d="M9.68344 42.1605C11.462 43.9391 11.462 46.8226 9.68344 48.6012C7.90491 50.3797 5.02132 50.3797 3.24279 48.6012C1.46425 46.8226 1.46426 43.9391 3.24279 42.1605C5.02133 40.382 7.9049 40.382 9.68344 42.1605Z" fill="#39CE54"/>
<path d="M10.8778 23.9104C11.4558 26.3582 9.94001 28.8111 7.49216 29.3892C5.04432 29.9672 2.59137 28.4514 2.01337 26.0035C1.43536 23.5557 2.95118 21.1027 5.39902 20.5247C7.84687 19.9467 10.2998 21.4625 10.8778 23.9104Z" fill="#39CE54"/>
<path d="M231.09 -0.000134468C233.606 -0.000134468 235.645 2.03888 235.645 4.55413C235.645 7.06939 233.606 9.1084 231.09 9.1084C228.575 9.1084 226.536 7.06939 226.536 4.55413C226.536 2.03888 228.575 -0.000134468 231.09 -0.000134468Z" fill="#39CE54"/>
<path d="M210.681 -0.000134468C213.196 -0.000134468 215.235 2.03888 215.235 4.55413C215.235 7.06939 213.196 9.1084 210.681 9.1084C208.166 9.1084 206.127 7.06939 206.127 4.55413C206.127 2.03888 208.166 -0.000134468 210.681 -0.000134468Z" fill="#39CE54"/>
<path d="M190.271 -0.000134468C192.786 -0.000134468 194.825 2.03888 194.825 4.55413C194.825 7.06939 192.786 9.1084 190.271 9.1084C187.756 9.1084 185.717 7.06939 185.717 4.55413C185.717 2.03888 187.756 -0.000134468 190.271 -0.000134468Z" fill="#39CE54"/>
<path d="M169.82 -0.000134468C172.335 -0.000134468 174.374 2.03888 174.374 4.55413C174.374 7.06939 172.335 9.1084 169.82 9.1084C167.305 9.1084 165.266 7.06939 165.266 4.55413C165.266 2.03888 167.305 -0.000134468 169.82 -0.000134468Z" fill="#39CE54"/>
<path d="M149.409 -0.000134468C151.924 -0.000134468 153.963 2.03888 153.963 4.55413C153.963 7.06939 151.924 9.1084 149.409 9.1084C146.894 9.1084 144.854 7.06939 144.854 4.55413C144.854 2.03888 146.894 -0.000134468 149.409 -0.000134468Z" fill="#39CE54"/>
<path d="M129 -0.000134468C131.515 -0.000134468 133.554 2.03888 133.554 4.55413C133.554 7.06939 131.515 9.1084 129 9.1084C126.484 9.1084 124.445 7.06939 124.445 4.55413C124.445 2.03888 126.484 -0.000134468 129 -0.000134468Z" fill="#39CE54"/>
<path d="M108.547 -0.000134468C111.063 -0.000134468 113.102 2.03888 113.102 4.55413C113.102 7.06939 111.063 9.1084 108.547 9.1084C106.032 9.1084 103.993 7.06939 103.993 4.55413C103.993 2.03888 106.032 -0.000134468 108.547 -0.000134468Z" fill="#39CE54"/>
<path d="M88.1383 -0.000134468C90.6535 -0.000134468 92.6925 2.03888 92.6925 4.55413C92.6925 7.06939 90.6535 9.1084 88.1383 9.1084C85.623 9.1084 83.584 7.06939 83.584 4.55413C83.584 2.03888 85.623 -0.000134468 88.1383 -0.000134468Z" fill="#39CE54"/>
<path d="M67.7271 -0.000134468C70.2424 -0.000134468 72.2814 2.03888 72.2814 4.55413C72.2814 7.06939 70.2424 9.1084 67.7271 9.1084C65.2119 9.1084 63.1729 7.06939 63.1729 4.55413C63.1729 2.03888 65.2119 -0.000134468 67.7271 -0.000134468Z" fill="#39CE54"/>
<path d="M47.3179 -0.000134468C49.8332 -0.000134468 51.8722 2.03888 51.8722 4.55413C51.8722 7.06939 49.8332 9.1084 47.3179 9.1084C44.8027 9.1084 42.7637 7.06939 42.7637 4.55413C42.7637 2.03888 44.8027 -0.000134468 47.3179 -0.000134468Z" fill="#39CE54"/>
<path d="M26.8658 -0.000134468C29.3811 -0.000134468 31.4201 2.03888 31.4201 4.55413C31.4201 7.06939 29.3811 9.1084 26.8658 9.1084C24.3505 9.1084 22.3115 7.06939 22.3115 4.55413C22.3115 2.03888 24.3505 -0.000134468 26.8658 -0.000134468Z" fill="#39CE54"/>
<path d="M6.45564 -0.000134468C8.97089 -0.000134468 11.0099 2.03888 11.0099 4.55413C11.0099 7.06939 8.97089 9.1084 6.45564 9.1084C3.94038 9.1084 1.90137 7.06939 1.90137 4.55413C1.90137 2.03888 3.94038 -0.000134468 6.45564 -0.000134468Z" fill="#39CE54"/>
</svg>
