<svg width="607" height="920" viewBox="0 0 607 920" fill="none" xmlns="http://www.w3.org/2000/svg">
<g opacity="0.3">
<g opacity="0.1">
<path fill-rule="evenodd" clip-rule="evenodd" d="M170.884 624.418L170.884 971.021L61.873 1078.75L61.873 1354.13L56.8378 1354.13L56.8378 1076.69L165.849 968.96L165.849 624.418L170.884 624.418Z" fill="#39CE54"/>
<path fill-rule="evenodd" clip-rule="evenodd" d="M478.699 345.69L393.623 429.713L296.95 429.713L233.205 492.757L71.6915 492.757L71.6915 487.782L231.118 487.782L294.863 424.738L391.539 424.738L475.14 342.17L478.699 345.69Z" fill="#39CE54"/>
<path fill-rule="evenodd" clip-rule="evenodd" d="M306.214 676.714L462.52 676.714L462.52 671.739L304.129 671.739L246.847 728.346L250.407 731.864L306.214 676.714Z" fill="#39CE54"/>
<path fill-rule="evenodd" clip-rule="evenodd" d="M172.947 27.8288L172.947 180.31L39.8539 311.836L-49.6563 311.836L-49.6563 306.86L37.7683 306.86L167.912 178.249L167.912 29.8899L112.878 -24.4961L112.878 -227.297L117.913 -227.297L117.913 -26.5572L172.947 27.8288Z" fill="#39CE54"/>
<path fill-rule="evenodd" clip-rule="evenodd" d="M141.882 674.226L141.882 957.27L35.9425 1061.96L35.9425 1354.13L33.4249 1354.13L33.4249 1060.93L139.364 956.24L139.364 674.226L141.882 674.226Z" fill="#39CE54"/>
<path fill-rule="evenodd" clip-rule="evenodd" d="M452.448 563.944L452.448 614.267L449.931 614.267L449.931 564.974L410.588 526.046L-39.3843 526.046L-39.3843 523.558L411.632 523.558L452.448 563.944Z" fill="#39CE54"/>
<path fill-rule="evenodd" clip-rule="evenodd" d="M508.776 491.513L552.918 535.086L554.697 533.326L509.818 489.026L274.307 489.026L274.307 491.513L508.776 491.513Z" fill="#39CE54"/>
<path fill-rule="evenodd" clip-rule="evenodd" d="M365.979 295.25L206.449 452.901L-31.1267 452.901L-31.1267 450.413L205.406 450.413L364.198 293.491L365.979 295.25Z" fill="#39CE54"/>
<path fill-rule="evenodd" clip-rule="evenodd" d="M459.634 146.921L414.553 191.42L215.464 191.42L59.8783 345.174L-39.3822 345.174L-39.3822 342.686L58.8355 342.686L214.421 188.932L413.511 188.932L457.855 145.16L459.634 146.921Z" fill="#39CE54"/>
<path fill-rule="evenodd" clip-rule="evenodd" d="M249.147 1080.5L414.03 1080.5L414.03 1082.99L248.105 1082.99L196.965 1032.51L196.965 787.029L199.483 787.029L199.483 1031.47L249.147 1080.5Z" fill="#39CE54"/>
<path fill-rule="evenodd" clip-rule="evenodd" d="M307.421 295.648L183.288 418.319L-39.3833 418.319L-39.3833 415.831L182.246 415.831L305.641 293.889L307.421 295.648Z" fill="#39CE54"/>
<path fill-rule="evenodd" clip-rule="evenodd" d="M454.175 1045.77L500.768 1091.82L504.328 1088.3L456.26 1040.8L274.29 1040.8L234.981 1001.95L234.981 822.109L229.945 822.109L229.945 1004.01L272.205 1045.77L454.175 1045.77Z" fill="#39CE54"/>
<path fill-rule="evenodd" clip-rule="evenodd" d="M115.145 700.382L115.145 934.413L112.627 934.413L112.627 701.412L-30.2037 560.264L-28.4235 558.504L115.145 700.382Z" fill="#39CE54"/>
<path fill-rule="evenodd" clip-rule="evenodd" d="M87.6533 714.993L87.6533 907.096L82.6182 907.096L82.6182 717.054L-38.7969 597.069L-35.2366 593.55L87.6533 714.993Z" fill="#39CE54"/>
<path fill-rule="evenodd" clip-rule="evenodd" d="M252.739 250.483L522.185 250.483L522.185 245.508L250.654 245.508L124.121 370.501L-39.3846 370.501L-39.3846 375.477L126.206 375.477L252.739 250.483Z" fill="#39CE54"/>
<path fill-rule="evenodd" clip-rule="evenodd" d="M397.401 -21.8942L509.296 -21.8942L509.296 -26.8701L395.315 -26.8701L222.124 144.281L225.684 147.8L397.401 -21.8942Z" fill="#39CE54"/>
<path fill-rule="evenodd" clip-rule="evenodd" d="M273.819 -127.432L425.51 -127.432L425.51 -129.92L272.776 -129.92L196.965 -55.0013L196.965 114.195L199.482 114.195L199.482 -53.9708L273.819 -127.432Z" fill="#39CE54"/>
<path fill-rule="evenodd" clip-rule="evenodd" d="M113.886 175.995L113.886 178.483L60.9335 178.483L17.0271 221.823L-99 221.823L-99 219.335L15.9852 219.335L59.8916 175.995L113.886 175.995Z" fill="#39CE54"/>
<path fill-rule="evenodd" clip-rule="evenodd" d="M305.607 570.779L372.105 636.493L373.885 634.734L306.649 568.291L59.3558 568.291L59.3558 570.779L305.607 570.779Z" fill="#39CE54"/>
<path fill-rule="evenodd" clip-rule="evenodd" d="M55.3623 863.193L18.0357 900.08L-39.5842 900.08L-39.5842 897.592L16.9929 897.592L53.5821 861.434L55.3623 863.193Z" fill="#39CE54"/>
<path fill-rule="evenodd" clip-rule="evenodd" d="M136.292 39.8205L136.292 130.466L131.257 130.466L131.257 41.8816L82.6174 -6.18508L82.6174 -186.645L87.6525 -186.645L87.6525 -8.24613L136.292 39.8205Z" fill="#39CE54"/>
<path fill-rule="evenodd" clip-rule="evenodd" d="M101.852 50.0884L101.852 103.596L99.334 103.596L99.334 51.119L53.2121 5.54024L53.2121 -186.645L55.7297 -186.645L55.7296 4.50972L101.852 50.0884Z" fill="#39CE54"/>
<path fill-rule="evenodd" clip-rule="evenodd" d="M69.5762 65.1485L69.5762 130.466L64.541 130.466L64.541 67.2077L25.3173 28.3961L25.3173 -186.645L30.3525 -186.645L30.3525 26.3369L69.5762 65.1485Z" fill="#39CE54"/>
<path fill-rule="evenodd" clip-rule="evenodd" d="M488.148 915.853L365.608 915.853L272.526 823.868L276.086 820.349L367.693 910.877L488.148 910.878L488.148 915.853Z" fill="#39CE54"/>
<path fill-rule="evenodd" clip-rule="evenodd" d="M556.761 851.35L528.749 879.032L379.371 879.032L296.98 797.661L298.76 795.902L380.414 876.544L527.706 876.544L554.981 849.591L556.761 851.35Z" fill="#39CE54"/>
<path fill-rule="evenodd" clip-rule="evenodd" d="M403.287 703.932L469.282 769.199L471.062 767.44L404.331 701.444L318.496 701.444L273.415 745.994L275.195 747.753L319.539 703.932L403.287 703.932Z" fill="#39CE54"/>
<path fill-rule="evenodd" clip-rule="evenodd" d="M371.853 40.6521L425.51 40.6521L425.51 38.1642L370.81 38.1642L262.538 145.161L264.319 146.92L371.853 40.6521Z" fill="#39CE54"/>
<path fill-rule="evenodd" clip-rule="evenodd" d="M336.036 -56.7252L336.036 -7.84451L233.353 93.5793L231.573 91.8196L333.519 -8.8754L333.519 -56.7252L336.036 -56.7252Z" fill="#39CE54"/>
<path fill-rule="evenodd" clip-rule="evenodd" d="M302.502 -60.3222L302.502 -19.3212L229.108 53.2089L225.547 49.6905L297.467 -21.3823L297.467 -62.3832L338.133 -102.57L341.693 -99.0519L302.502 -60.3222Z" fill="#39CE54"/>
<path fill-rule="evenodd" clip-rule="evenodd" d="M54.4199 762.811L54.4199 817.63L49.3848 817.63L49.3848 764.872L-43.1286 673.448L-39.5682 669.929L54.4199 762.811Z" fill="#39CE54"/>
<path fill-rule="evenodd" clip-rule="evenodd" d="M-62.8138 610.502L52.793 724.747L51.0128 726.506L-64.594 612.261L-62.8138 610.502Z" fill="#39CE54"/>
<path fill-rule="evenodd" clip-rule="evenodd" d="M199.484 602.574L199.484 744.635L196.967 744.635L196.967 602.574L199.484 602.574Z" fill="#39CE54"/>
<path fill-rule="evenodd" clip-rule="evenodd" d="M-49.2184 76.6932L24.9492 149.987L23.169 151.747L-50.9986 78.4524L-49.2184 76.6932Z" fill="#39CE54"/>
<path fill-rule="evenodd" clip-rule="evenodd" d="M453.639 616.011C450.428 614.696 446.746 616.204 445.416 619.377C444.085 622.551 445.61 626.189 448.822 627.504C452.034 628.819 455.715 627.312 457.046 624.138C458.376 620.964 456.851 617.326 453.639 616.011ZM443.09 618.425C444.952 613.982 450.107 611.872 454.603 613.713C459.099 615.553 461.234 620.647 459.372 625.09C457.509 629.533 452.355 631.643 447.859 629.803C443.362 627.962 441.227 622.868 443.09 618.425Z" fill="#39CE54"/>
<path fill-rule="evenodd" clip-rule="evenodd" d="M274.451 751.733C273.652 748.39 270.262 746.32 266.879 747.109C263.496 747.898 261.401 751.248 262.2 754.592C262.999 757.935 266.389 760.005 269.772 759.215C273.155 758.426 275.25 755.076 274.451 751.733ZM266.301 744.688C271.037 743.583 275.783 746.481 276.901 751.161C278.019 755.841 275.086 760.531 270.35 761.637C265.614 762.742 260.868 759.844 259.75 755.163C258.632 750.483 261.565 745.793 266.301 744.688Z" fill="#39CE54"/>
<path fill-rule="evenodd" clip-rule="evenodd" d="M64.3645 852.364C61.9066 849.935 57.9215 849.935 55.4636 852.364C53.0057 854.793 53.0057 858.732 55.4636 861.16C57.9215 863.589 61.9066 863.589 64.3645 861.16C66.8224 858.732 66.8224 854.793 64.3645 852.364ZM53.6835 850.605C57.1245 847.205 62.7036 847.205 66.1447 850.605C69.5857 854.006 69.5857 859.519 66.1447 862.92C62.7036 866.32 57.1245 866.32 53.6835 862.92C50.2424 859.519 50.2424 854.006 53.6835 850.605Z" fill="#39CE54"/>
<path fill-rule="evenodd" clip-rule="evenodd" d="M202.657 590.897C200.2 588.468 196.215 588.468 193.757 590.897C191.299 593.326 191.299 597.264 193.757 599.693C196.215 602.122 200.2 602.122 202.657 599.693C205.115 597.264 205.115 593.326 202.657 590.897ZM191.976 589.138C195.417 585.737 200.997 585.737 204.438 589.138C207.879 592.538 207.879 598.052 204.438 601.452C200.997 604.853 195.417 604.853 191.976 601.452C188.535 598.052 188.535 592.538 191.976 589.138Z" fill="#39CE54"/>
<path fill-rule="evenodd" clip-rule="evenodd" d="M566.948 845.346C566.948 841.911 564.13 839.126 560.654 839.126C557.178 839.126 554.36 841.911 554.36 845.346C554.36 848.781 557.178 851.565 560.654 851.565C564.13 851.565 566.948 848.781 566.948 845.346ZM560.654 836.638C565.521 836.638 569.466 840.537 569.466 845.346C569.466 850.155 565.521 854.053 560.654 854.053C555.788 854.053 551.843 850.155 551.843 845.346C551.843 840.537 555.788 836.638 560.654 836.638Z" fill="#39CE54"/>
<path d="M562.619 534.206C562.619 539.033 558.641 542.914 553.808 542.914C548.924 542.914 544.996 538.983 544.996 534.206C544.996 529.38 548.974 525.498 553.808 525.498C558.641 525.498 562.619 529.429 562.619 534.206Z" fill="#39CE54"/>
<path d="M373.901 294.37C373.901 299.197 369.924 303.078 365.09 303.078C360.206 303.078 356.278 299.147 356.278 294.37C356.278 289.544 360.256 285.663 365.09 285.663C369.924 285.663 373.901 289.544 373.901 294.37Z" fill="#39CE54"/>
<path d="M122.696 177.936C122.696 182.762 118.719 186.643 113.885 186.643C109.001 186.643 105.073 182.712 105.073 177.936C105.073 173.109 109.051 169.228 113.885 169.228C118.719 169.228 122.696 173.109 122.696 177.936Z" fill="#39CE54"/>
<path d="M32.8711 150.867C32.8711 155.694 28.8933 159.575 24.0596 159.575C19.1755 159.575 15.2481 155.644 15.2481 150.867C15.2481 146.04 19.2259 142.159 24.0596 142.159C28.9437 142.159 32.8711 146.09 32.8711 150.867Z" fill="#39CE54"/>
<path d="M382.712 635.614C382.712 640.44 378.734 644.322 373.9 644.322C369.016 644.322 365.089 640.391 365.089 635.614C365.089 630.787 369.067 626.906 373.9 626.906C378.734 626.906 382.712 630.837 382.712 635.614Z" fill="#39CE54"/>
<path d="M481.147 768.32C481.147 773.146 477.17 777.027 472.336 777.027C467.452 777.027 463.524 773.097 463.524 768.32C463.524 763.493 467.502 759.612 472.336 759.612C477.17 759.562 481.147 763.493 481.147 768.32Z" fill="#39CE54"/>
<path d="M306.681 796.782C306.681 801.608 302.703 805.489 297.869 805.489C292.985 805.489 289.058 801.558 289.058 796.782C289.058 791.955 293.035 788.074 297.869 788.074C302.753 788.074 306.681 792.005 306.681 796.782Z" fill="#39CE54"/>
<path d="M207.037 744.635C207.037 749.461 203.059 753.342 198.226 753.342C193.342 753.342 189.414 749.411 189.414 744.635C189.414 739.808 193.392 735.927 198.226 735.927C203.059 735.927 207.037 739.858 207.037 744.635Z" fill="#39CE54"/>
<path d="M207.037 787.029C207.037 791.855 203.059 795.737 198.226 795.737C193.342 795.737 189.414 791.806 189.414 787.029C189.414 782.202 193.392 778.321 198.226 778.321C203.059 778.321 207.037 782.252 207.037 787.029Z" fill="#39CE54"/>
<path d="M149.938 674.226C149.938 679.053 145.961 682.934 141.127 682.934C136.243 682.934 132.315 679.003 132.315 674.226C132.315 669.4 136.293 665.519 141.127 665.519C145.961 665.519 149.938 669.4 149.938 674.226Z" fill="#39CE54"/>
<path d="M61.8223 725.627C61.8223 730.453 57.8445 734.335 53.0108 734.335C48.1267 734.335 44.1993 730.404 44.1993 725.627C44.1993 720.8 48.177 716.919 53.0108 716.919C57.8949 716.919 61.8223 720.85 61.8223 725.627Z" fill="#39CE54"/>
<path d="M68.167 569.535C68.167 574.361 64.1892 578.242 59.3555 578.242C54.4714 578.242 50.544 574.312 50.544 569.535C50.544 564.708 54.5218 560.827 59.3555 560.827C64.2396 560.827 68.167 564.708 68.167 569.535Z" fill="#39CE54"/>
<path d="M434.322 39.4081C434.322 44.2347 430.345 48.1159 425.511 48.1159C420.627 48.1159 416.699 44.185 416.699 39.4081C416.699 34.5816 420.677 30.7004 425.511 30.7004C430.345 30.6507 434.322 34.5816 434.322 39.4081Z" fill="#39CE54"/>
<path d="M272.241 147.732C272.241 152.559 268.263 156.44 263.43 156.44C258.546 156.44 254.618 152.509 254.618 147.732C254.618 142.906 258.596 139.024 263.43 139.024C268.263 139.024 272.241 142.906 272.241 147.732Z" fill="#39CE54"/>
<path d="M241.275 91.754C241.275 96.5805 237.298 100.462 232.464 100.462C227.58 100.462 223.652 96.5308 223.652 91.754C223.652 86.9274 227.63 83.0462 232.464 83.0462C237.348 83.0462 241.275 86.9772 241.275 91.754Z" fill="#39CE54"/>
<path fill-rule="evenodd" clip-rule="evenodd" d="M272.931 488.822C272.132 485.479 268.743 483.409 265.36 484.198C261.977 484.987 259.882 488.337 260.681 491.68C261.48 495.023 264.869 497.094 268.252 496.304C271.635 495.515 273.73 492.165 272.931 488.822ZM264.781 481.777C269.517 480.672 274.263 483.57 275.381 488.25C276.5 492.93 273.567 497.62 268.831 498.725C264.095 499.831 259.349 496.932 258.231 492.252C257.112 487.572 260.045 482.882 264.781 481.777Z" fill="#39CE54"/>
<path fill-rule="evenodd" clip-rule="evenodd" d="M317.918 288.091C316.91 284.804 313.396 282.947 310.069 283.943C306.743 284.94 304.863 288.413 305.872 291.7C306.88 294.987 310.394 296.845 313.721 295.848C317.048 294.852 318.927 291.379 317.918 288.091ZM309.339 281.562C313.996 280.167 318.916 282.767 320.328 287.37C321.739 291.972 319.109 296.834 314.451 298.229C309.794 299.624 304.874 297.024 303.462 292.422C302.051 287.819 304.682 282.958 309.339 281.562Z" fill="#39CE54"/>
<path fill-rule="evenodd" clip-rule="evenodd" d="M106.887 111.608C106.887 108.172 104.069 105.388 100.593 105.388C97.1168 105.388 94.2989 108.172 94.2989 111.608C94.2989 115.043 97.1168 117.827 100.593 117.827C104.069 117.827 106.887 115.043 106.887 111.608ZM100.593 102.9C105.459 102.9 109.404 106.798 109.404 111.608C109.404 116.417 105.459 120.315 100.593 120.315C95.7263 120.315 91.7813 116.417 91.7813 111.608C91.7813 106.798 95.7263 102.9 100.593 102.9Z" fill="#39CE54"/>
<path fill-rule="evenodd" clip-rule="evenodd" d="M203.087 117.88C200.629 115.451 196.644 115.451 194.186 117.88C191.728 120.309 191.728 124.247 194.186 126.676C196.644 129.105 200.629 129.105 203.087 126.676C205.545 124.247 205.545 120.309 203.087 117.88ZM192.406 116.121C195.847 112.72 201.426 112.72 204.867 116.121C208.308 119.521 208.308 125.034 204.867 128.435C201.426 131.836 195.847 131.836 192.406 128.435C188.965 125.034 188.965 119.521 192.406 116.121Z" fill="#39CE54"/>
<path fill-rule="evenodd" clip-rule="evenodd" d="M471.078 140.268C471.078 136.833 468.26 134.049 464.784 134.049C461.308 134.049 458.49 136.833 458.49 140.268C458.49 143.704 461.308 146.488 464.784 146.488C468.26 146.488 471.078 143.704 471.078 140.268ZM464.784 131.561C469.651 131.561 473.596 135.459 473.596 140.268C473.596 145.078 469.651 148.976 464.784 148.976C459.918 148.976 455.973 145.078 455.973 140.268C455.973 135.459 459.918 131.561 464.784 131.561Z" fill="#39CE54"/>
<path fill-rule="evenodd" clip-rule="evenodd" d="M239.212 811.212C239.212 807.886 236.484 805.191 233.119 805.191C229.755 805.191 227.027 807.886 227.027 811.212C227.027 814.537 229.755 817.232 233.119 817.232C236.484 817.232 239.212 814.537 239.212 811.212ZM233.119 800.215C239.265 800.215 244.247 805.138 244.247 811.212C244.247 817.285 239.265 822.208 233.119 822.208C226.974 822.208 221.992 817.285 221.992 811.212C221.992 805.138 226.974 800.215 233.119 800.215Z" fill="#39CE54"/>
<path fill-rule="evenodd" clip-rule="evenodd" d="M244.076 730.404C240.967 729.132 237.403 730.59 236.115 733.663C234.827 736.735 236.304 740.257 239.412 741.529C242.521 742.802 246.085 741.343 247.373 738.271C248.661 735.199 247.184 731.677 244.076 730.404ZM231.463 731.758C233.815 726.147 240.325 723.483 246.003 725.807C251.681 728.131 254.377 734.564 252.025 740.175C249.673 745.786 243.163 748.451 237.485 746.126C231.808 743.802 229.111 737.369 231.463 731.758Z" fill="#39CE54"/>
<path fill-rule="evenodd" clip-rule="evenodd" d="M170.718 611.233C167.609 609.961 164.045 611.42 162.758 614.492C161.47 617.564 162.946 621.086 166.055 622.359C169.164 623.631 172.728 622.172 174.015 619.1C175.303 616.028 173.827 612.506 170.718 611.233ZM158.106 612.587C160.458 606.976 166.967 604.312 172.645 606.636C178.323 608.96 181.019 615.393 178.667 621.004C176.316 626.615 169.806 629.28 164.128 626.956C158.45 624.631 155.754 618.199 158.106 612.587Z" fill="#39CE54"/>
<path fill-rule="evenodd" clip-rule="evenodd" d="M58.3779 824.847C57.8388 821.564 54.7094 819.335 51.388 819.868C48.0665 820.401 45.811 823.493 46.3501 826.776C46.8891 830.058 50.0186 832.287 53.34 831.754C56.6614 831.222 58.9169 828.129 58.3779 824.847ZM50.5813 814.956C56.6477 813.984 62.3635 818.055 63.3481 824.05C64.3326 830.044 60.213 835.693 54.1466 836.666C48.0802 837.639 42.3644 833.568 41.3799 827.573C40.3953 821.578 44.515 815.929 50.5813 814.956Z" fill="#39CE54"/>
<path fill-rule="evenodd" clip-rule="evenodd" d="M87.4954 911.952C84.3867 910.68 80.8227 912.138 79.535 915.211C78.2473 918.283 79.7235 921.805 82.8322 923.077C85.941 924.35 89.505 922.891 90.7927 919.819C92.0805 916.747 90.6042 913.225 87.4954 911.952ZM74.883 913.306C77.235 907.695 83.7444 905.031 89.4224 907.355C95.1003 909.679 97.7966 916.112 95.4447 921.723C93.0928 927.334 86.5832 929.999 80.9053 927.675C75.2273 925.35 72.5311 918.917 74.883 913.306Z" fill="#39CE54"/>
<path fill-rule="evenodd" clip-rule="evenodd" d="M69.1035 489.326C68.5644 486.043 65.4349 483.814 62.1135 484.347C58.7921 484.88 56.5365 487.972 57.0756 491.255C57.6146 494.537 60.7442 496.766 64.0656 496.233C67.387 495.701 69.6425 492.608 69.1035 489.326ZM61.3069 479.435C67.3733 478.463 73.0891 482.534 74.0737 488.529C75.0582 494.523 70.9386 500.172 64.8722 501.145C58.8059 502.118 53.0899 498.047 52.1054 492.052C51.1209 486.057 55.2406 480.408 61.3069 479.435Z" fill="#39CE54"/>
<path fill-rule="evenodd" clip-rule="evenodd" d="M488.903 338.407C488.903 335.082 486.176 332.386 482.811 332.386C479.446 332.386 476.718 335.082 476.718 338.407C476.718 341.732 479.446 344.427 482.811 344.427C486.176 344.427 488.903 341.732 488.903 338.407ZM482.811 327.41C488.956 327.41 493.938 332.333 493.938 338.407C493.938 344.48 488.956 349.403 482.811 349.403C476.665 349.403 471.683 344.48 471.683 338.407C471.683 332.333 476.665 327.41 482.811 327.41Z" fill="#39CE54"/>
<path fill-rule="evenodd" clip-rule="evenodd" d="M227.345 55.2493C226.577 52.0119 223.3 50.0023 220.024 50.7608C216.748 51.5193 214.714 54.7586 215.482 57.996C216.249 61.2334 219.527 63.2429 222.803 62.4845C226.079 61.726 228.113 58.4867 227.345 55.2493ZM218.875 45.9163C224.858 44.531 230.845 48.2014 232.247 54.1143C233.649 60.0272 229.935 65.9436 223.952 67.3289C217.968 68.7143 211.981 65.0439 210.579 59.131C209.178 53.218 212.892 47.3016 218.875 45.9163Z" fill="#39CE54"/>
<path fill-rule="evenodd" clip-rule="evenodd" d="M71.3871 134.772C69.0079 132.421 65.1503 132.421 62.771 134.772C60.3918 137.123 60.3918 140.935 62.7711 143.287C65.1503 145.638 69.0078 145.638 71.3871 143.287C73.7664 140.935 73.7664 137.123 71.3871 134.772ZM59.2107 131.254C63.5563 126.959 70.6019 126.959 74.9475 131.254C79.2931 135.548 79.293 142.511 74.9474 146.805C70.6019 151.099 63.5563 151.099 59.2107 146.805C54.8651 142.511 54.8651 135.548 59.2107 131.254Z" fill="#39CE54"/>
<path d="M502.549 913.366C502.549 919.436 497.564 924.362 491.421 924.362C485.278 924.362 480.293 919.436 480.293 913.366C480.293 907.295 485.278 902.369 491.421 902.369C497.564 902.369 502.549 907.295 502.549 913.366Z" fill="#39CE54"/>
<path d="M473.646 674.226C473.646 680.297 468.661 685.223 462.518 685.223C456.375 685.223 451.39 680.297 451.39 674.226C451.39 668.156 456.375 663.23 462.518 663.23C468.661 663.23 473.646 668.156 473.646 674.226Z" fill="#39CE54"/>
<path d="M533.312 247.996C533.312 254.066 528.328 258.992 522.185 258.992C516.042 258.992 511.057 254.066 511.057 247.996C511.057 241.925 516.042 236.999 522.185 236.999C528.328 236.999 533.312 241.925 533.312 247.996Z" fill="#39CE54"/>
<path d="M235.031 147.732C235.031 153.803 230.046 158.729 223.904 158.729C217.761 158.729 212.776 153.803 212.776 147.732C212.776 141.662 217.761 136.736 223.904 136.736C230.046 136.736 235.031 141.662 235.031 147.732Z" fill="#39CE54"/>
<path d="M144.902 130.466C144.902 136.537 139.918 141.463 133.775 141.463C127.632 141.463 122.647 136.537 122.647 130.466C122.647 124.396 127.632 119.469 133.775 119.469C139.918 119.469 144.902 124.396 144.902 130.466Z" fill="#39CE54"/>
<path d="M285.434 822.109C285.434 828.179 280.449 833.105 274.306 833.105C268.163 833.105 263.178 828.179 263.178 822.109C263.178 816.038 268.163 811.112 274.306 811.112C280.449 811.062 285.434 816.038 285.434 822.109Z" fill="#39CE54"/>
</g>
<g opacity="0.7">
<path fill-rule="evenodd" clip-rule="evenodd" d="M204.166 166.058L204.166 512.611L199.131 512.611L199.131 168.119L90.1201 60.3418L90.1201 -217.097L95.1552 -217.097L95.1552 58.2814L204.166 166.058Z" fill="#39CE54"/>
<path fill-rule="evenodd" clip-rule="evenodd" d="M424.769 712.292L508.37 794.909L511.931 791.39L426.855 707.316L330.181 707.316L266.436 644.272L104.973 644.272L104.973 649.248L264.349 649.248L328.094 712.292L424.769 712.292Z" fill="#39CE54"/>
<path fill-rule="evenodd" clip-rule="evenodd" d="M495.752 465.291L337.361 465.291L280.079 408.683L283.639 405.165L339.447 460.315L495.752 460.315L495.752 465.291Z" fill="#39CE54"/>
<path fill-rule="evenodd" clip-rule="evenodd" d="M206.231 956.769L206.231 1109.25L151.197 1163.59L151.197 1364.33L146.162 1364.33L146.162 1161.52L201.196 1107.19L201.196 958.83L71.0022 830.169L-16.4224 830.169L-16.4224 825.193L73.0878 825.193L206.231 956.769Z" fill="#39CE54"/>
<path fill-rule="evenodd" clip-rule="evenodd" d="M393.474 -74.8869L495.752 -74.8869L495.752 -79.8628L391.388 -79.8628L306.546 3.98022L201.649 3.98022L201.649 8.95606L308.632 8.95607L393.474 -74.8869Z" fill="#39CE54"/>
<path fill-rule="evenodd" clip-rule="evenodd" d="M175.114 179.759L175.114 462.803L172.597 462.803L172.597 180.79L66.6573 76.0978L66.6573 -217.097L69.1749 -217.097L69.1749 75.0673L175.114 179.759Z" fill="#39CE54"/>
<path fill-rule="evenodd" clip-rule="evenodd" d="M485.731 522.812L485.731 573.085L444.864 613.471L-6.10114 613.471L-6.10114 610.984L443.821 610.984L483.214 572.055L483.214 522.812L485.731 522.812Z" fill="#39CE54"/>
<path fill-rule="evenodd" clip-rule="evenodd" d="M587.929 603.703L543.049 648.004L307.589 648.004L307.589 645.516L542.007 645.516L586.15 601.943L587.929 603.703Z" fill="#39CE54"/>
<path fill-rule="evenodd" clip-rule="evenodd" d="M238.64 686.666L397.432 843.539L399.212 841.779L239.682 684.178L2.10672 684.178L2.10672 686.666L238.64 686.666Z" fill="#39CE54"/>
<path fill-rule="evenodd" clip-rule="evenodd" d="M446.792 948.097L491.085 991.868L492.865 990.109L447.835 945.609L248.695 945.609L93.1595 791.905L-6.10092 791.905L-6.10092 794.393L92.1168 794.393L247.652 948.097L446.792 948.097Z" fill="#39CE54"/>
<path fill-rule="evenodd" clip-rule="evenodd" d="M447.313 54.0371L447.313 56.525L282.38 56.525L232.716 105.605L232.716 350L230.198 350L230.198 104.574L281.337 54.0371L447.313 54.0371Z" fill="#39CE54"/>
<path fill-rule="evenodd" clip-rule="evenodd" d="M215.529 721.198L338.924 843.14L340.704 841.381L216.572 718.711L-6.10016 718.71L-6.10016 721.198L215.529 721.198Z" fill="#39CE54"/>
<path fill-rule="evenodd" clip-rule="evenodd" d="M537.562 48.7297L489.495 96.282L307.524 96.282L268.264 135.079L268.264 314.97L263.229 314.97L263.229 133.018L305.438 91.3062L487.407 91.3062L534 45.2131L537.562 48.7297Z" fill="#39CE54"/>
<path fill-rule="evenodd" clip-rule="evenodd" d="M148.377 202.616L148.377 436.648L4.809 578.575L3.02852 576.816L145.859 435.617L145.859 202.616L148.377 202.616Z" fill="#39CE54"/>
<path fill-rule="evenodd" clip-rule="evenodd" d="M115.851 419.976L115.851 229.933L120.886 229.933L120.886 422.036L-1.95344 543.479L-5.51456 539.961L115.851 419.976Z" fill="#39CE54"/>
<path fill-rule="evenodd" clip-rule="evenodd" d="M555.418 891.522L283.887 891.522L157.405 766.528L-6.10089 766.528L-6.10089 761.552L159.49 761.552L285.973 886.546L555.418 886.546L555.418 891.522Z" fill="#39CE54"/>
<path fill-rule="evenodd" clip-rule="evenodd" d="M94.1673 958.546L147.119 958.546L147.119 961.034L93.1245 961.034L49.2685 917.695L-65.7666 917.695L-65.7666 915.207L50.3113 915.207L94.1673 958.546Z" fill="#39CE54"/>
<path fill-rule="evenodd" clip-rule="evenodd" d="M407.167 502.295L339.881 568.739L92.6383 568.739L92.6383 566.251L338.839 566.251L405.387 500.535L407.167 502.295Z" fill="#39CE54"/>
<path fill-rule="evenodd" clip-rule="evenodd" d="M69.3587 209.781L99.4527 180.091L101.231 181.851L70.4003 212.269L-18.9907 212.269L-18.9907 209.781L69.3587 209.781Z" fill="#39CE54"/>
<path fill-rule="evenodd" clip-rule="evenodd" d="M84.2462 140.75L39.4172 96.449L39.4172 -217.097L41.9348 -217.097L41.9348 95.4185L86.0264 138.991L84.2462 140.75Z" fill="#39CE54"/>
<path fill-rule="evenodd" clip-rule="evenodd" d="M50.2243 239.437L86.8136 275.596L88.5937 273.836L51.2671 236.949L-6.35276 236.949L-6.35276 239.437L50.2243 239.437Z" fill="#39CE54"/>
<path fill-rule="evenodd" clip-rule="evenodd" d="M400.976 226.152L521.381 226.152L521.381 221.176L398.89 221.176L305.808 313.212L309.369 316.729L400.976 226.152Z" fill="#39CE54"/>
<path fill-rule="evenodd" clip-rule="evenodd" d="M560.988 260.485L588.211 287.437L589.993 285.68L562.032 257.997L412.603 257.997L330.212 339.418L331.992 341.177L413.645 260.485L560.988 260.485Z" fill="#39CE54"/>
<path fill-rule="evenodd" clip-rule="evenodd" d="M504.295 369.639L437.563 435.585L351.728 435.585L306.698 391.035L308.479 389.276L352.772 433.097L436.52 433.097L502.515 367.88L504.295 369.639Z" fill="#39CE54"/>
<path fill-rule="evenodd" clip-rule="evenodd" d="M82.6182 372.207L82.6182 319.449L87.6533 319.449L87.6533 374.268L-6.2845 467.1L-9.84489 463.581L82.6182 372.207Z" fill="#39CE54"/>
<path fill-rule="evenodd" clip-rule="evenodd" d="M-31.3606 524.768L84.2462 410.523L86.0264 412.282L-29.5804 526.527L-31.3606 524.768Z" fill="#39CE54"/>
<path fill-rule="evenodd" clip-rule="evenodd" d="M201.363 121.742L119.995 41.3327L121.776 39.5735L203.144 119.983L201.363 121.742Z" fill="#39CE54"/>
<path fill-rule="evenodd" clip-rule="evenodd" d="M230.198 534.455L230.198 392.395L232.716 392.395L232.716 534.455L230.198 534.455Z" fill="#39CE54"/>
<path fill-rule="evenodd" clip-rule="evenodd" d="M485.887 509.291C482.505 508.501 479.115 510.571 478.316 513.915C477.517 517.258 479.612 520.608 482.995 521.397C486.378 522.186 489.768 520.116 490.566 516.773C491.365 513.43 489.27 510.08 485.887 509.291ZM475.866 513.343C476.984 508.663 481.73 505.764 486.466 506.869C491.202 507.975 494.135 512.665 493.016 517.345C491.898 522.025 487.152 524.923 482.416 523.818C477.68 522.713 474.747 518.023 475.866 513.343Z" fill="#39CE54"/>
<path fill-rule="evenodd" clip-rule="evenodd" d="M302.516 377.743C299.085 377.193 295.852 379.495 295.295 382.886C294.738 386.277 297.068 389.472 300.5 390.022C303.931 390.572 307.164 388.27 307.721 384.879C308.278 381.488 305.947 378.293 302.516 377.743ZM292.81 382.488C293.59 377.741 298.116 374.517 302.92 375.287C307.723 376.058 310.985 380.53 310.206 385.278C309.426 390.025 304.9 393.248 300.096 392.478C295.293 391.708 292.03 387.235 292.81 382.488Z" fill="#39CE54"/>
<path fill-rule="evenodd" clip-rule="evenodd" d="M92.7594 139.488C89.4085 138.574 85.9428 140.518 85.0185 143.83C84.0943 147.141 86.0614 150.566 89.4123 151.479C92.7632 152.393 96.2289 150.449 97.1532 147.137C98.0775 143.826 96.1103 140.401 92.7594 139.488ZM82.5916 143.168C83.8856 138.532 88.7376 135.81 93.4289 137.089C98.1201 138.368 100.874 143.163 99.5802 147.799C98.2862 152.435 93.4342 155.156 88.7429 153.878C84.0516 152.599 81.2976 147.804 82.5916 143.168Z" fill="#39CE54"/>
<path fill-rule="evenodd" clip-rule="evenodd" d="M99.4356 280.289C99.4356 276.854 96.6177 274.069 93.1416 274.069C89.6656 274.069 86.8477 276.854 86.8477 280.289C86.8477 283.724 89.6656 286.509 93.1416 286.509C96.6177 286.509 99.4356 283.724 99.4356 280.289ZM93.1416 271.581C98.0081 271.581 101.953 275.48 101.953 280.289C101.953 285.098 98.0081 288.997 93.1416 288.997C88.2752 288.997 84.3301 285.098 84.3301 280.289C84.3301 275.48 88.2752 271.581 93.1416 271.581Z" fill="#39CE54"/>
<path fill-rule="evenodd" clip-rule="evenodd" d="M232.472 535.597C229.041 535.047 225.808 537.35 225.251 540.74C224.694 544.131 227.024 547.326 230.456 547.876C233.887 548.427 237.12 546.124 237.677 542.733C238.234 539.342 235.903 536.148 232.472 535.597ZM222.766 540.342C223.546 535.595 228.072 532.371 232.876 533.141C237.679 533.912 240.941 538.385 240.162 543.132C239.382 547.879 234.856 551.103 230.052 550.332C225.249 549.562 221.987 545.089 222.766 540.342Z" fill="#39CE54"/>
<path fill-rule="evenodd" clip-rule="evenodd" d="M598.351 287.324C595.893 284.895 591.908 284.895 589.45 287.324C586.992 289.753 586.992 293.691 589.45 296.12C591.908 298.549 595.893 298.549 598.351 296.12C600.809 293.691 600.809 289.753 598.351 287.324ZM587.67 285.564C591.111 282.164 596.69 282.164 600.131 285.564C603.572 288.965 603.572 294.478 600.131 297.879C596.69 301.279 591.111 301.279 587.67 297.879C584.229 294.478 584.229 288.965 587.67 285.564Z" fill="#39CE54"/>
<path d="M595.851 602.823C595.851 597.997 591.873 594.115 587.039 594.115C582.155 594.115 578.228 598.046 578.228 602.823C578.228 607.65 582.205 611.531 587.039 611.531C591.873 611.531 595.851 607.6 595.851 602.823Z" fill="#39CE54"/>
<path d="M407.135 842.659C407.135 837.832 403.157 833.951 398.323 833.951C393.439 833.951 389.512 837.882 389.512 842.659C389.512 847.485 393.49 851.367 398.323 851.367C403.207 851.367 407.135 847.485 407.135 842.659Z" fill="#39CE54"/>
<path d="M415.943 501.415C415.943 496.589 411.966 492.708 407.132 492.708C402.248 492.708 398.32 496.639 398.32 501.415C398.32 506.242 402.298 510.123 407.132 510.123C412.016 510.123 415.943 506.192 415.943 501.415Z" fill="#39CE54"/>
<path d="M514.381 368.759C514.381 363.933 510.403 360.052 505.569 360.052C500.685 360.052 496.758 363.983 496.758 368.759C496.758 373.586 500.736 377.467 505.569 377.467C510.453 377.467 514.381 373.536 514.381 368.759Z" fill="#39CE54"/>
<path d="M339.914 340.248C339.914 335.421 335.936 331.54 331.103 331.54C326.218 331.54 322.291 335.471 322.291 340.248C322.291 345.074 326.269 348.955 331.103 348.955C335.987 348.955 339.914 345.074 339.914 340.248Z" fill="#39CE54"/>
<path d="M240.269 392.395C240.269 387.568 236.291 383.687 231.457 383.687C226.573 383.687 222.646 387.618 222.646 392.395C222.646 397.221 226.623 401.102 231.457 401.102C236.341 401.102 240.269 397.221 240.269 392.395Z" fill="#39CE54"/>
<path d="M240.269 350C240.269 345.174 236.291 341.293 231.457 341.293C226.573 341.293 222.646 345.224 222.646 350C222.646 354.827 226.623 358.708 231.457 358.708C236.341 358.708 240.269 354.827 240.269 350Z" fill="#39CE54"/>
<path d="M210.461 120.863C210.461 116.036 206.483 112.155 201.649 112.155C196.765 112.155 192.838 116.086 192.838 120.863C192.838 125.689 196.816 129.57 201.649 129.57C206.483 129.57 210.461 125.64 210.461 120.863Z" fill="#39CE54"/>
<path d="M183.171 462.803C183.171 457.976 179.193 454.095 174.359 454.095C169.475 454.095 165.548 458.026 165.548 462.803C165.548 467.629 169.526 471.511 174.359 471.511C179.243 471.511 183.171 467.629 183.171 462.803Z" fill="#39CE54"/>
<path d="M155.93 202.317C155.93 197.491 151.952 193.61 147.118 193.61C142.234 193.61 138.307 197.541 138.307 202.317C138.307 207.144 142.284 211.025 147.118 211.025C152.002 211.025 155.93 207.144 155.93 202.317Z" fill="#39CE54"/>
<path d="M129.698 40.4531C129.698 35.6265 125.72 31.7453 120.887 31.7453C116.003 31.7453 112.075 35.6762 112.075 40.4531C112.075 45.2796 116.053 49.1608 120.887 49.1608C125.771 49.1608 129.698 45.2796 129.698 40.4531Z" fill="#39CE54"/>
<path d="M110.261 180.971C110.261 176.144 106.283 172.263 101.449 172.263C96.5652 172.263 92.6378 176.194 92.6378 180.971C92.6378 185.798 96.6155 189.679 101.449 189.679C106.283 189.679 110.261 185.798 110.261 180.971Z" fill="#39CE54"/>
<path d="M95.0557 411.402C95.0557 406.576 91.0779 402.695 86.2442 402.695C81.3601 402.695 77.4327 406.626 77.4327 411.402C77.4327 416.229 81.4105 420.11 86.2442 420.11C91.1283 420.11 95.0557 416.229 95.0557 411.402Z" fill="#39CE54"/>
<path d="M456.126 55.2811C456.126 50.4545 452.148 46.5734 447.314 46.5734C442.43 46.5734 438.503 50.5043 438.503 55.2811C438.503 60.1077 442.481 63.9888 447.314 63.9888C452.148 63.9888 456.126 60.0579 456.126 55.2811Z" fill="#39CE54"/>
<path d="M101.45 567.495C101.45 562.668 97.4724 558.787 92.6387 558.787C87.7546 558.787 83.8272 562.718 83.8272 567.495C83.8272 572.321 87.805 576.202 92.6387 576.202C97.4724 576.202 101.45 572.321 101.45 567.495Z" fill="#39CE54"/>
<path fill-rule="evenodd" clip-rule="evenodd" d="M300.999 640.682C297.567 640.131 294.334 642.434 293.778 645.825C293.221 649.216 295.551 652.411 298.982 652.961C302.413 653.511 305.646 651.209 306.203 647.818C306.76 644.427 304.43 641.232 300.999 640.682ZM291.292 645.426C292.072 640.679 296.598 637.456 301.402 638.226C306.206 638.996 309.468 643.469 308.688 648.216C307.909 652.963 303.382 656.187 298.579 655.417C293.775 654.646 290.513 650.174 291.292 645.426Z" fill="#39CE54"/>
<path fill-rule="evenodd" clip-rule="evenodd" d="M351.395 847.137C351.395 843.702 348.577 840.917 345.101 840.917C341.625 840.917 338.807 843.702 338.807 847.137C338.807 850.572 341.625 853.357 345.101 853.357C348.577 853.357 351.395 850.572 351.395 847.137ZM345.101 838.429C349.967 838.429 353.912 842.328 353.912 847.137C353.912 851.946 349.967 855.845 345.101 855.845C340.234 855.845 336.289 851.946 336.289 847.137C336.289 842.328 340.234 838.429 345.101 838.429Z" fill="#39CE54"/>
<path fill-rule="evenodd" clip-rule="evenodd" d="M548.621 40.4531C548.621 37.128 545.893 34.4324 542.529 34.4324C539.164 34.4324 536.436 37.128 536.436 40.4531C536.436 43.7783 539.164 46.4739 542.529 46.4739C545.893 46.4739 548.621 43.7783 548.621 40.4531ZM542.529 29.4565C548.674 29.4565 553.656 34.3799 553.656 40.4531C553.656 46.5264 548.674 51.4498 542.529 51.4498C536.383 51.4498 531.401 46.5264 531.401 40.4531C531.401 34.3799 536.383 29.4565 542.529 29.4565Z" fill="#39CE54"/>
<path fill-rule="evenodd" clip-rule="evenodd" d="M272.493 325.818C272.493 322.493 269.765 319.797 266.401 319.797C263.036 319.797 260.308 322.493 260.308 325.818C260.308 329.143 263.036 331.839 266.401 331.839C269.765 331.839 272.493 329.143 272.493 325.818ZM266.401 314.821C272.546 314.821 277.528 319.745 277.528 325.818C277.528 331.891 272.546 336.814 266.401 336.814C260.255 336.814 255.273 331.891 255.273 325.818C255.273 319.745 260.255 314.821 266.401 314.821Z" fill="#39CE54"/>
<path fill-rule="evenodd" clip-rule="evenodd" d="M281.104 401.102C281.104 397.777 278.376 395.082 275.011 395.082C271.646 395.082 268.918 397.777 268.918 401.102C268.918 404.428 271.646 407.123 275.011 407.123C278.376 407.123 281.104 404.428 281.104 401.102ZM275.011 390.106C281.157 390.106 286.139 395.029 286.139 401.102C286.139 407.176 281.157 412.099 275.011 412.099C268.865 412.099 263.883 407.176 263.883 401.102C263.883 395.029 268.865 390.106 275.011 390.106Z" fill="#39CE54"/>
<path fill-rule="evenodd" clip-rule="evenodd" d="M207.741 520.274C207.741 516.949 205.014 514.253 201.649 514.253C198.284 514.253 195.556 516.949 195.556 520.274C195.556 523.599 198.284 526.295 201.649 526.295C205.014 526.295 207.741 523.599 207.741 520.274ZM201.649 509.277C207.794 509.277 212.776 514.201 212.776 520.274C212.776 526.347 207.794 531.27 201.649 531.27C195.503 531.27 190.521 526.347 190.521 520.274C190.521 514.201 195.503 509.277 201.649 509.277Z" fill="#39CE54"/>
<path fill-rule="evenodd" clip-rule="evenodd" d="M91.6826 311.239C91.6826 307.913 88.9549 305.218 85.5901 305.218C82.2253 305.218 79.4976 307.913 79.4976 311.239C79.4976 314.564 82.2253 317.259 85.5901 317.259C88.9549 317.259 91.6826 314.564 91.6826 311.239ZM85.5901 300.242C91.7358 300.242 96.7178 305.165 96.7178 311.239C96.7178 317.312 91.7358 322.235 85.5901 322.235C79.4445 322.235 74.4625 317.312 74.4625 311.239C74.4625 305.165 79.4445 300.242 85.5901 300.242Z" fill="#39CE54"/>
<path fill-rule="evenodd" clip-rule="evenodd" d="M124.46 219.584C124.46 216.258 121.732 213.563 118.367 213.563C115.003 213.563 112.275 216.258 112.275 219.584C112.275 222.909 115.003 225.604 118.367 225.604C121.732 225.604 124.46 222.909 124.46 219.584ZM118.367 208.587C124.513 208.587 129.495 213.51 129.495 219.584C129.495 225.657 124.513 230.58 118.367 230.58C112.222 230.58 107.24 225.657 107.24 219.584C107.24 213.51 112.222 208.587 118.367 208.587Z" fill="#39CE54"/>
<path fill-rule="evenodd" clip-rule="evenodd" d="M102.456 646.76C102.456 643.435 99.7284 640.739 96.3636 640.739C92.9987 640.739 90.271 643.435 90.271 646.76C90.271 650.085 92.9987 652.78 96.3636 652.78C99.7284 652.78 102.456 650.085 102.456 646.76ZM96.3636 635.763C102.509 635.763 107.491 640.686 107.491 646.76C107.491 652.833 102.509 657.756 96.3636 657.756C90.2179 657.756 85.2359 652.833 85.2359 646.76C85.2359 640.686 90.2179 635.763 96.3636 635.763Z" fill="#39CE54"/>
<path fill-rule="evenodd" clip-rule="evenodd" d="M522.136 798.672C522.136 795.347 519.408 792.652 516.043 792.652C512.678 792.652 509.951 795.347 509.951 798.672C509.951 801.998 512.678 804.693 516.043 804.693C519.408 804.693 522.136 801.998 522.136 798.672ZM516.043 787.676C522.189 787.676 527.171 792.599 527.171 798.672C527.171 804.746 522.189 809.669 516.043 809.669C509.898 809.669 504.916 804.746 504.916 798.672C504.916 792.599 509.898 787.676 516.043 787.676Z" fill="#39CE54"/>
<path fill-rule="evenodd" clip-rule="evenodd" d="M199.736 6.4681C199.736 3.14293 197.009 0.447339 193.644 0.447339C190.279 0.447339 187.551 3.14292 187.551 6.4681C187.551 9.79329 190.279 12.4889 193.644 12.4889C197.009 12.4889 199.736 9.79328 199.736 6.4681ZM193.644 -4.52851C199.789 -4.52851 204.771 0.394824 204.771 6.4681C204.771 12.5414 199.789 17.4647 193.644 17.4647C187.498 17.4647 182.516 12.5414 182.516 6.4681C182.516 0.394835 187.498 -4.52851 193.644 -4.52851Z" fill="#39CE54"/>
<path d="M535.781 223.664C535.781 217.593 530.796 212.667 524.654 212.667C518.511 212.667 513.526 217.593 513.526 223.664C513.526 229.734 518.511 234.66 524.654 234.66C530.796 234.71 535.781 229.734 535.781 223.664Z" fill="#39CE54"/>
<path d="M506.879 462.803C506.879 456.732 501.894 451.806 495.751 451.806C489.608 451.806 484.624 456.732 484.624 462.803C484.624 468.873 489.608 473.799 495.751 473.799C501.894 473.799 506.879 468.873 506.879 462.803Z" fill="#39CE54"/>
<path d="M566.546 889.034C566.546 882.963 561.561 878.037 555.418 878.037C549.275 878.037 544.291 882.963 544.291 889.034C544.291 895.104 549.275 900.03 555.418 900.03C561.561 900.03 566.546 895.104 566.546 889.034Z" fill="#39CE54"/>
<path d="M318.716 314.971C318.716 308.9 313.731 303.974 307.588 303.974C301.445 303.974 296.46 308.9 296.46 314.971C296.46 321.041 301.445 325.967 307.588 325.967C313.731 325.967 318.716 321.041 318.716 314.971Z" fill="#39CE54"/>
</g>
</g>
</svg>
