<svg width="26" height="30" viewBox="0 0 26 30" fill="none" xmlns="http://www.w3.org/2000/svg">
<path fill-rule="evenodd" clip-rule="evenodd" d="M12.4029 20.0942V25.1335H3.29841V16.5954C3.29841 11.2297 7.65461 6.87344 13.0203 6.87344C18.386 6.87344 22.7423 11.2297 22.7423 16.5954V25.1335H13.3865V20.1379C14.5345 19.9526 15.4125 18.956 15.4125 17.756C15.4125 16.4244 14.3314 15.3433 12.9998 15.3433C11.6682 15.3433 10.5871 16.4244 10.5871 17.756C10.5871 18.8816 11.3596 19.8282 12.4029 20.0942ZM6.06996 16.3284C6.06996 12.6273 9.07476 9.6225 12.7758 9.6225C13.0472 9.6225 13.2676 9.40211 13.2676 9.1307C13.2676 8.85928 13.0472 8.63889 12.7758 8.63889C8.53187 8.63889 5.08636 12.0844 5.08636 16.3284C5.08636 16.5998 5.30675 16.8202 5.57816 16.8202C5.84957 16.8202 6.06996 16.5998 6.06996 16.3284ZM13.5121 4.92486C13.5121 5.19633 13.2918 5.41666 13.0203 5.41666C12.7489 5.41666 12.5285 5.19633 12.5285 4.92486V0.491803C12.5285 0.220389 12.7489 0 13.0203 0C13.2918 0 13.5121 0.220389 13.5121 0.491803V4.92486ZM17.5765 5.91916C17.4736 6.17029 17.1861 6.29066 16.9349 6.18775C16.6838 6.08477 16.5634 5.79732 16.6664 5.54613L17.8551 2.64566C17.958 2.39447 18.2455 2.2741 18.4967 2.37707C18.7479 2.47998 18.8682 2.76744 18.7652 3.01863L17.5765 5.91916ZM9.285 5.57853C9.39013 5.82879 9.27234 6.1173 9.02207 6.22242C8.77181 6.32754 8.4833 6.20975 8.37818 5.95949L7.16404 3.06953C7.05892 2.81926 7.17677 2.53076 7.42697 2.42564C7.67724 2.32045 7.96574 2.4383 8.07093 2.68857L9.285 5.57853ZM21.0152 8.44021C20.8233 8.63213 20.5117 8.63213 20.3198 8.44021C20.1278 8.24828 20.1278 7.9366 20.3198 7.74467L23.4544 4.61004C23.6463 4.41811 23.958 4.41811 24.1499 4.61004C24.3419 4.80197 24.3419 5.11359 24.1499 5.30551L21.0152 8.44021ZM5.72091 7.74467C5.91283 7.9366 5.91283 8.24828 5.72091 8.44021C5.52898 8.63213 5.21736 8.63213 5.02537 8.44021L1.89074 5.30551C1.69881 5.11359 1.69881 4.80197 1.89074 4.61004C2.08267 4.41811 2.39435 4.41811 2.58627 4.61004L5.72091 7.74467ZM25.6771 30H0.322503C0.211848 30 0.109737 29.9405 0.0551468 29.8443C0.000556589 29.748 0.0019092 29.6298 0.0587125 29.5348L2.01345 26.2667C2.06896 26.1739 2.1691 26.1171 2.27724 26.1171H23.7223C23.8305 26.1171 23.9306 26.1739 23.9861 26.2667L25.9408 29.5348C25.9976 29.6298 25.999 29.748 25.9444 29.8443C25.8898 29.9405 25.7877 30 25.6771 30Z" fill="white"/>
</svg>
