<svg width="30" height="30" viewBox="0 0 30 30" fill="none" xmlns="http://www.w3.org/2000/svg">
<path fill-rule="evenodd" clip-rule="evenodd" d="M11.5702 11.7419L11.5684 11.7504C9.69746 11.8482 8.74844 7.80147 11.0243 8.64701C11.3953 6.99896 11.8071 5.83842 12.2599 5.16502C14.9219 8.45319 17.4379 10.1449 19.8082 10.2403C19.8935 9.74578 19.9509 9.21488 19.9758 8.64701C22.2516 7.80147 21.3026 11.8482 19.4317 11.7504L19.4302 11.7421C17.8196 16.4469 13.1819 16.4459 11.5702 11.7419ZM15.5 30C11.3156 30 7.72499 28.9799 6.95628 27.5719L7.39643 22.3359C7.41899 22.061 7.2145 21.8197 6.93947 21.7971C6.66445 21.7745 6.42316 21.9789 6.40041 22.2539L5.94447 27.6784L5.99171 27.6794C4.81797 27.6627 3.69326 27.1131 2.95996 26.1522C3.46871 23.4296 3.9007 20.3228 5.79424 18.5247C6.85934 17.5133 8.58266 17.0239 10.2027 16.6445V20.2188C9.61397 20.2574 9.08193 20.5138 8.68686 20.9081L8.68584 20.9091L8.68476 20.9102C8.25595 21.3397 7.99041 21.9311 7.99041 22.5811V24.2047C7.99041 24.4809 8.21418 24.7047 8.49028 24.7047C8.76639 24.7047 8.99021 24.4808 8.99021 24.2047V22.5811C8.99021 22.2035 9.14309 21.8617 9.38984 21.6151L9.39176 21.6133C9.6384 21.3667 9.98017 21.2136 10.3578 21.2136H11.0476C11.425 21.2136 11.7669 21.3667 12.0134 21.6133V21.6151C12.2613 21.8629 12.4151 22.205 12.4151 22.5811V24.1642C12.4151 24.4402 12.6389 24.6643 12.915 24.6643C13.191 24.6643 13.415 24.4402 13.415 24.1642V22.5811C13.415 21.9289 13.1491 21.3368 12.7205 20.9082L12.7194 20.9092C12.3242 20.5143 11.7917 20.2575 11.2025 20.2189V16.416C11.4708 16.3545 11.731 16.294 11.9793 16.2326L15.5 26.1477V30ZM19.0206 16.2325C19.269 16.2943 19.5293 16.3548 19.7974 16.4159V20.5124C19.6783 20.5696 19.5704 20.6464 19.4779 20.7389L19.4758 20.741C19.2658 20.9513 19.1356 21.2412 19.1356 21.5605C19.1356 21.8799 19.2657 22.1698 19.4758 22.3801L19.4779 22.3818C19.688 22.5918 19.978 22.7221 20.2973 22.7221C20.6168 22.7221 20.9067 22.5922 21.117 22.3818L21.1189 22.3801C21.3291 22.1698 21.4593 21.8799 21.4593 21.5605C21.4593 21.2396 21.3291 20.9492 21.1189 20.7389H21.1169C21.0243 20.6464 20.9163 20.5696 20.7972 20.5124V16.6445C22.4173 17.0239 24.1397 17.5137 25.2059 18.5247C27.0993 20.3228 27.5314 23.4296 28.0401 26.1522C27.3169 27.0999 26.2132 27.6474 25.0572 27.6784L24.6012 22.254C24.5786 21.9789 24.3373 21.7745 24.0622 21.7972C23.7872 21.8197 23.5825 22.061 23.6053 22.336L24.0454 27.5723L24.0463 27.5725L24.0438 27.572C23.3373 28.8662 20.2454 29.8328 16.4998 29.9805V25.9752L15.5807 23.3866L19.0206 16.2325ZM20.3577 15.5145C22.6027 14.4528 23.8625 12.7092 23.5412 10.2533C23.0587 6.07797 20.0378 -0.00401953 15.5 1.9933e-06C10.9623 -0.00401953 7.94131 6.07797 7.45885 10.2533C7.13593 12.72 8.45589 14.4421 10.7389 15.4918L11.2026 15.3832V15.3898C11.382 15.3484 11.5613 15.3059 11.74 15.2616L12.026 15.1912L12.0808 15.1214C12.1306 15.0587 12.1601 14.9026 12.1774 14.7432C13.0477 15.6632 14.194 16.2712 15.5017 16.2709C16.7944 16.2706 17.9489 15.6702 18.8231 14.7447C18.8405 14.9049 18.8701 15.061 18.9197 15.1223L18.9751 15.1907L19.2624 15.2623C19.4402 15.3066 19.6188 15.3489 19.7974 15.3901V15.3832L20.3577 15.5145Z" fill="white"/>
</svg>
