<svg width="30" height="30" viewBox="0 0 30 30" fill="none" xmlns="http://www.w3.org/2000/svg">
<path d="M19.5143 20.927C19.4419 20.7043 19.2493 20.542 19.0176 20.5083L16.6227 20.1603L15.5517 17.9902C15.448 17.7802 15.2342 17.6472 15 17.6472C14.7658 17.6472 14.552 17.7802 14.4482 17.9902L13.3773 20.1603L10.9824 20.5083C10.7506 20.542 10.5581 20.7043 10.4857 20.927C10.4134 21.1497 10.4737 21.3942 10.6414 21.5577L12.3743 23.2469L11.9652 25.6321C11.9256 25.8629 12.0205 26.0963 12.21 26.2339C12.3995 26.3715 12.6506 26.3898 12.8579 26.2807L15 25.1545L17.1421 26.2807C17.2321 26.3281 17.3304 26.3514 17.4283 26.3514C17.5559 26.3514 17.6829 26.3118 17.79 26.2339C17.9795 26.0963 18.0744 25.8629 18.0348 25.6321L17.6257 23.2469L19.3586 21.5577C19.5263 21.3942 19.5867 21.1498 19.5143 20.927Z" fill="white"/>
<path d="M9.56467 20.9271C9.49213 20.7043 9.29959 20.542 9.06786 20.5083L6.67295 20.1603L5.60198 17.9902C5.49827 17.7802 5.28446 17.6472 5.05026 17.6472C4.81606 17.6472 4.60225 17.7802 4.49854 17.9902L3.42756 20.1603L1.03266 20.5083C0.800922 20.542 0.608383 20.7043 0.535961 20.927C0.463657 21.1497 0.52395 21.3942 0.691645 21.5577L2.42461 23.247L2.01557 25.6322C1.97596 25.863 2.07082 26.0963 2.26032 26.234C2.44969 26.3716 2.70094 26.3897 2.90825 26.2808L5.05032 25.1546L7.19245 26.2808C7.28245 26.3281 7.38077 26.3514 7.47868 26.3514C7.60624 26.3514 7.73321 26.3118 7.84038 26.234C8.02981 26.0963 8.12473 25.863 8.08512 25.6322L7.67602 23.247L9.40899 21.5578C9.57668 21.3943 9.63704 21.1498 9.56467 20.9271Z" fill="white"/>
<path d="M29.4641 20.9269C29.3915 20.7043 29.199 20.542 28.9673 20.5083L26.5724 20.1603L25.5014 17.9902C25.3977 17.7802 25.1839 17.6472 24.9497 17.6472C24.7155 17.6472 24.5017 17.7802 24.398 17.9902L23.327 20.1603L20.9321 20.5083C20.7003 20.542 20.5078 20.7043 20.4354 20.927C20.3631 21.1497 20.4234 21.3942 20.5911 21.5577L22.324 23.2469L21.9149 25.6321C21.8753 25.8629 21.9702 26.0963 22.1597 26.2339C22.2668 26.3118 22.3938 26.3514 22.5214 26.3514C22.6193 26.3514 22.7176 26.3281 22.8076 26.2807L24.9497 25.1545L27.0918 26.2807C27.299 26.3896 27.5502 26.3716 27.7397 26.2339C27.9292 26.0963 28.0241 25.8629 27.9845 25.6321L27.5754 23.2469L29.3084 21.5576C29.4761 21.3942 29.5364 21.1497 29.4641 20.9269Z" fill="white"/>
<path d="M25.7747 3.64868H4.22531C1.89551 3.64868 0 5.54413 0 7.87399V10.7251C0 12.9004 1.65211 14.697 3.76764 14.9258L4.68123 16.1429C4.9824 16.5442 5.44277 16.7788 5.94434 16.7866C5.95295 16.7867 5.96162 16.7867 5.97018 16.7867C6.46195 16.7867 6.91875 16.5675 7.22684 16.1827L8.21361 14.9504H25.7747C28.1046 14.9504 30 13.0549 30 10.725V7.87394C30 5.54413 28.1045 3.64868 25.7747 3.64868ZM13.1152 11.9096H5.115C4.62961 11.9096 4.23609 11.5161 4.23609 11.0307C4.23609 10.5453 4.62961 10.1518 5.115 10.1518H13.1152C13.6005 10.1518 13.9941 10.5453 13.9941 11.0307C13.9941 11.5161 13.6005 11.9096 13.1152 11.9096ZM24.885 8.37573H5.115C4.62961 8.37573 4.23609 7.98222 4.23609 7.49683C4.23609 7.01144 4.62961 6.61792 5.115 6.61792H24.885C25.3704 6.61792 25.7639 7.01144 25.7639 7.49683C25.7639 7.98222 25.3704 8.37573 24.885 8.37573Z" fill="white"/>
</svg>
